<?xml version="1.0" standalone="no"?>
<!DOCTYPE svg PUBLIC "-//W3C//DTD SVG 1.1//EN" "http://www.w3.org/Graphics/SVG/1.1/DTD/svg11.dtd" >
<svg>
<metadata>
Created by FontForge 20120731 at Mon Mar  6 21:49:43 2017
 By www-data
Sinkin Sans is a trademark of K-Type.
</metadata>
<defs>
<font id="SinkinSans-200XLightItalic" horiz-adv-x="672" >
  <font-face 
    font-family="Sinkin Sans 200 X Light Italic"
    font-weight="200"
    font-style="italic"
    font-stretch="normal"
    units-per-em="1000"
    panose-1="0 0 0 0 0 0 0 0 0 0"
    ascent="810"
    descent="-190"
    x-height="629"
    cap-height="810"
    bbox="-218 -251.072 1279.21 1202"
    underline-thickness="50"
    underline-position="-50"
    slope="-112"
    stemv="45"
    unicode-range="U+0009-FB02"
  />
<missing-glyph horiz-adv-x="990" 
 />
    <glyph glyph-name=".notdef" horiz-adv-x="990" 
 />
    <glyph glyph-name="space" unicode=" " horiz-adv-x="307" 
 />
    <glyph glyph-name="exclam" unicode="!" horiz-adv-x="233" 
d="M70 95c31 0 43 -20 35 -52s-30 -53 -60 -53c-31 0 -42 20 -35 53c8 32 30 52 60 52zM217 810h60l-174 -643h-29z" />
    <glyph glyph-name="quotedbl" unicode="&#x22;" horiz-adv-x="281" 
d="M192 840h55l-84 -279h-24zM310 840h55l-85 -279h-24z" />
    <glyph glyph-name="numbersign" unicode="#" horiz-adv-x="656" 
d="M528 529l7 6h-221v-6l-122 -247l-7 -7h219v7zM701 582l-12 -47h-121v-6l-124 -247l-7 -7h112l-12 -47h-123v-5l-112 -223h-41l112 222l7 6h-218l-1 -6l-112 -222h-40l111 221l8 7h-111l11 47h122l1 7l123 247l7 6h-112l11 47h123v6l112 222h40l-111 -222l-6 -6h218l1 7
l112 221h40l-111 -221l-7 -7h110z" />
    <glyph glyph-name="dollar" unicode="$" horiz-adv-x="689" 
d="M548 181c16 64 -17 120 -125 152c-4 1 -37 11 -50 15l2 -5l-75 -304l-4 -5c152 5 233 68 252 147zM426 689l4 5c-144 -3 -234 -61 -253 -140c-19 -75 41 -109 153 -143l28 -8l-1 6zM596 184c-22 -89 -106 -186 -310 -192l1 -5l-24 -97h-34l24 97l4 5
c-107 3 -189 38 -248 105l46 35c54 -61 120 -95 212 -98l-2 5l77 312l5 4c-10 3 -53 14 -55 16c-129 37 -186 85 -163 181c23 91 120 180 311 184l-1 6l24 97h35l-25 -99l-4 -5c97 -4 160 -38 209 -94l-44 -34c-39 49 -93 81 -175 86l1 -4l-71 -290l-4 -4
c27 -8 57 -17 65 -20c135 -40 166 -110 146 -191z" />
    <glyph glyph-name="percent" unicode="%" horiz-adv-x="762" 
d="M371 590c23 95 22 187 -65 187c-85 0 -133 -89 -157 -187c-24 -95 -17 -181 65 -181c83 0 132 82 157 181zM413 590c-33 -134 -109 -224 -209 -224c-99 0 -131 90 -98 224c33 135 114 230 210 230c98 0 130 -95 97 -230zM635 820h41l-486 -830h-41zM673 213
c23 95 23 187 -65 187c-85 0 -133 -90 -157 -187c-24 -95 -17 -181 66 -181c82 0 131 82 156 181zM715 213c-33 -134 -108 -224 -209 -224c-99 0 -131 90 -98 224s114 230 210 230c99 0 131 -95 97 -230z" />
    <glyph glyph-name="ampersand" unicode="&#x26;" horiz-adv-x="685" 
d="M506 104l-6 2l-176 304l2 6c-19 -10 -62 -32 -83 -44c-22 -13 -45 -26 -65 -42c-43 -33 -82 -75 -97 -134c-29 -120 73 -164 194 -164c82 0 153 14 231 72zM558 637c18 76 -26 139 -99 139c-75 0 -149 -60 -168 -139c-9 -36 -3 -67 10 -93c11 -20 41 -75 45 -81l-1 -6
c20 9 43 20 61 29c89 45 135 84 152 151zM560 94l56 -94h-54l-37 65v5c-79 -58 -166 -81 -261 -81c-172 0 -262 80 -230 207c24 98 119 174 276 247l-7 2c-3 6 -32 56 -38 68s-12 25 -16 38c-8 26 -9 54 0 89c24 99 123 178 219 178c97 0 157 -79 133 -178
c-20 -79 -70 -124 -176 -179c-18 -10 -52 -26 -63 -31l6 -3c15 -26 149 -257 170 -294v-6c39 39 57 74 67 106h48c-14 -42 -45 -91 -97 -137z" />
    <glyph glyph-name="quoteright" unicode="&#x2019;" horiz-adv-x="179" 
d="M255 770c-3 -10 -9 -22 -15 -32l-83 -124l-26 14l57 86l9 6c-30 -1 -39 22 -32 50c8 30 28 50 57 50c30 0 40 -20 33 -50z" />
    <glyph glyph-name="parenleft" unicode="(" horiz-adv-x="225" 
d="M336 907h34c-125 -177 -206 -351 -251 -536c-48 -192 -61 -382 -20 -562h-34c-53 191 -53 360 -6 549c47 191 136 367 277 549z" />
    <glyph glyph-name="parenright" unicode=")" horiz-adv-x="225" 
d="M205 358c-47 -189 -131 -358 -278 -549h-33c128 180 210 370 257 562c46 185 51 359 14 536h33c51 -182 54 -358 7 -549z" />
    <glyph glyph-name="asterisk" unicode="*" horiz-adv-x="563" 
d="M390 620l193 -37l-19 -41l-183 55l51 -182l-42 -18l-34 189l-127 -190l-33 18l142 182l-210 -54l1 41l210 38l-135 121l34 33l120 -137l42 207h41l-60 -208l187 137l18 -33z" />
    <glyph glyph-name="plus" unicode="+" horiz-adv-x="666" 
d="M614 428l-12 -46h-225l2 -5l-59 -239h-44l59 239l5 5h-226l11 46h226l-2 5l59 240h44l-59 -240l-5 -5h226z" />
    <glyph glyph-name="comma" unicode="," horiz-adv-x="223" 
d="M95 43c-3 -10 -9 -22 -16 -33l-87 -130l-27 14l60 91l10 6c-33 -1 -41 24 -34 52c8 33 29 53 60 53s42 -20 34 -53z" />
    <glyph glyph-name="hyphen" unicode="-" horiz-adv-x="351" 
d="M338 348l-11 -45h-292l11 45h292z" />
    <glyph glyph-name="period" unicode="." horiz-adv-x="223" 
d="M61 95c31 0 42 -20 34 -52s-30 -53 -60 -53c-31 0 -42 20 -34 53c8 32 29 52 60 52z" />
    <glyph glyph-name="slash" unicode="/" horiz-adv-x="192" 
d="M361 860h43l-511 -910h-44z" />
    <glyph glyph-name="zero" unicode="0" horiz-adv-x="698" 
d="M626 400c46 186 37 377 -154 377c-184 0 -294 -186 -342 -377c-47 -191 -31 -367 157 -367c187 0 290 168 339 367zM673 400c-63 -255 -205 -410 -396 -410c-189 0 -256 155 -193 410s215 420 398 420c186 0 254 -164 191 -420z" />
    <glyph glyph-name="one" unicode="1" horiz-adv-x="338" 
d="M369 810l-200 -810h-44l167 680l24 77h-2l-61 -59l-122 -103l-26 31l222 184h42z" />
    <glyph glyph-name="two" unicode="2" horiz-adv-x="625" 
d="M652 610c-23 -91 -88 -171 -244 -223l-138 -47c-116 -39 -188 -126 -213 -232c-2 -2 -13 -57 -14 -60l-6 -5h474l-11 -43h-514l28 115c26 112 107 220 252 269l120 41c135 47 197 101 218 185c20 83 -12 167 -161 167c-83 0 -168 -35 -235 -95l-24 34
c77 68 170 104 270 104c183 0 223 -109 198 -210z" />
    <glyph glyph-name="three" unicode="3" horiz-adv-x="639" 
d="M568 214c-26 -105 -130 -224 -333 -224c-107 0 -178 40 -227 104l43 36c39 -56 103 -97 194 -97c163 0 255 93 276 181c26 103 -30 174 -164 188c-23 3 -72 3 -99 4l10 41c28 1 79 2 97 4c150 16 221 94 240 171c20 80 -27 154 -175 154c-86 0 -168 -33 -234 -90l-25 37
c78 63 167 97 270 97c185 0 235 -100 211 -197c-18 -75 -84 -159 -212 -192v-3c118 -34 151 -120 128 -214z" />
    <glyph glyph-name="four" unicode="4" horiz-adv-x="663" 
d="M568 655l24 86h-2l-55 -58l-395 -387l-56 -48v-2h385l-1 5zM615 246l-11 -44l-107 1l2 -6l-49 -197h-44l49 197l4 6l-439 -1l9 38l586 570h35l-138 -559l-4 -5h107z" />
    <glyph glyph-name="five" unicode="5" horiz-adv-x="654" 
d="M594 255c-34 -136 -149 -266 -352 -266c-115 0 -179 40 -228 126l39 34c40 -75 105 -117 199 -117c171 0 268 113 295 223c28 112 -17 225 -177 225c-84 0 -167 -27 -242 -85l-23 29l138 386h430l-11 -43l-396 -1l3 -4l-89 -247l-29 -63l1 -1c70 48 148 72 229 72
c189 0 247 -127 213 -268z" />
    <glyph glyph-name="six" unicode="6" horiz-adv-x="691" 
d="M585 255c26 103 -17 225 -176 225c-151 0 -268 -120 -295 -226c-25 -101 22 -222 178 -222c154 0 265 113 293 223zM631 255c-34 -133 -155 -266 -351 -266s-260 151 -199 399c51 205 195 432 414 432c100 0 169 -28 217 -102l-42 -36c-39 68 -103 95 -185 95
c-188 0 -312 -201 -355 -378c-3 -14 -8 -35 -11 -50h2c80 124 196 174 299 174c185 0 246 -130 211 -268z" />
    <glyph glyph-name="seven" unicode="7" horiz-adv-x="606" 
d="M707 810l-10 -38l-296 -310c-94 -99 -140 -197 -175 -339l-30 -123h-45l32 129c38 153 83 247 184 353l207 216l72 67v2h-496l10 43h547z" />
    <glyph glyph-name="eight" unicode="8" horiz-adv-x="695" 
d="M579 220c27 111 -56 191 -200 191s-265 -78 -293 -191c-22 -90 41 -187 200 -187c158 0 271 99 293 187zM471 776c-152 0 -239 -81 -259 -164c-20 -81 34 -166 175 -166c142 0 240 85 260 166c20 83 -25 164 -176 164zM625 218c-26 -105 -151 -228 -349 -228
c-197 0 -263 123 -237 228c25 100 98 172 228 211l1 2c-92 39 -122 108 -102 187c25 100 124 202 314 202c192 0 240 -102 216 -202c-20 -79 -84 -149 -195 -186v-2c110 -39 148 -114 124 -212z" />
    <glyph glyph-name="nine" unicode="9" horiz-adv-x="691" 
d="M638 557c29 116 -38 220 -177 220c-142 0 -264 -102 -294 -224c-29 -118 35 -223 177 -223c136 0 265 107 294 227zM672 422c-51 -206 -195 -433 -415 -433c-99 0 -168 29 -217 103l43 36c38 -69 103 -96 185 -96c187 0 312 202 355 378c3 14 8 35 10 51h-2
c-78 -124 -194 -174 -298 -174c-167 0 -249 113 -212 264c38 155 176 269 352 269c207 0 256 -167 199 -398z" />
    <glyph glyph-name="colon" unicode=":" horiz-adv-x="233" 
d="M70 95c31 0 43 -20 35 -53c-8 -32 -30 -52 -60 -52c-31 0 -42 20 -35 52c8 32 30 53 60 53zM189 574c31 0 42 -20 34 -52s-30 -53 -60 -53c-31 0 -42 21 -34 53s29 52 60 52z" />
    <glyph glyph-name="semicolon" unicode=";" horiz-adv-x="233" 
d="M105 43c-3 -10 -9 -22 -16 -33l-87 -130l-28 14l61 91l10 6c-33 -1 -41 24 -34 52c8 33 29 53 60 53s42 -20 34 -53zM189 575c31 0 42 -21 34 -53s-30 -52 -60 -52c-31 0 -42 20 -34 52s29 53 60 53z" />
    <glyph glyph-name="less" unicode="&#x3c;" horiz-adv-x="450" 
d="M85 405l347 291l23 -32l-244 -203l-72 -55l-1 -2l45 -55l145 -201l-40 -32z" />
    <glyph glyph-name="equal" unicode="=" horiz-adv-x="668" 
d="M585 305l-11 -44h-490l11 44h490zM645 549l-10 -43h-490l10 43h490z" />
    <glyph glyph-name="greater" unicode="&#x3e;" horiz-adv-x="450" 
d="M223 696l203 -291l-345 -289l-25 32l244 201l73 55v2l-45 55l-144 203z" />
    <glyph glyph-name="question" unicode="?" horiz-adv-x="574" 
d="M185 95c31 0 42 -20 34 -52s-30 -53 -60 -53c-31 0 -42 20 -34 53c7 32 29 52 60 52zM603 621c-21 -84 -83 -140 -162 -175l-38 -16c-102 -44 -135 -90 -162 -201l-16 -61h-45l18 71c30 120 67 176 198 233l27 12c72 32 117 72 133 137c20 80 -42 156 -143 156
c-86 0 -160 -35 -225 -97l-26 35c76 68 161 105 262 105c149 0 201 -110 179 -199z" />
    <glyph glyph-name="at" unicode="@" horiz-adv-x="964" 
d="M631 451c16 63 21 148 -68 148c-107 0 -208 -128 -233 -227c-21 -88 -11 -169 77 -169c114 0 201 152 224 248zM936 446c-34 -135 -153 -281 -285 -281c-52 0 -86 35 -87 87h-2c-50 -54 -109 -88 -174 -88c-103 0 -132 91 -105 201c32 130 157 271 298 271
c62 0 95 -48 90 -106h2l48 96h43l-123 -252c-14 -28 -27 -58 -34 -88c-11 -46 16 -84 56 -84c120 0 208 144 233 242c49 202 -73 367 -269 367c-211 0 -432 -181 -486 -397c-56 -228 68 -406 290 -406c68 0 145 22 208 58l20 -26c-72 -40 -159 -66 -231 -66
c-251 0 -388 186 -325 442c58 235 304 429 531 429c216 0 357 -175 302 -399z" />
    <glyph glyph-name="A" unicode="A" horiz-adv-x="757" 
d="M168 261h412l-5 6l-73 419l-5 71h-1l-41 -71l-281 -420zM530 810l143 -810h-50l-39 214l4 4h-450l1 -5l-143 -213h-50l544 810h40z" />
    <glyph glyph-name="B" unicode="B" horiz-adv-x="727" 
d="M619 219c27 111 -28 177 -162 177h-298l3 -4l-84 -344l-6 -5h299c138 0 220 61 248 176zM678 604c27 112 -32 163 -148 163h-280l4 -5l-79 -318l-6 -4h281c137 0 206 77 228 164zM667 218c-33 -132 -132 -218 -306 -218h-341l200 810h172h169c127 0 196 -79 165 -206
c-20 -79 -78 -150 -162 -178v-2c101 -30 126 -110 103 -206z" />
    <glyph glyph-name="C" unicode="C" horiz-adv-x="718" 
d="M796 716l-43 -35c-36 60 -104 96 -207 96c-228 0 -366 -174 -416 -378c-50 -201 1 -366 231 -366c102 0 189 36 254 95l25 -34c-77 -65 -174 -104 -290 -104c-243 0 -328 160 -266 410s235 420 472 420c118 0 195 -39 240 -104z" />
    <glyph glyph-name="D" unicode="D" horiz-adv-x="768" 
d="M480 767h-231l3 -5l-176 -715l-6 -4h237c261 0 346 181 391 362c44 179 49 362 -218 362zM744 405c-49 -201 -151 -405 -438 -405h-286l200 810h282c279 0 296 -189 242 -405z" />
    <glyph glyph-name="E" unicode="E" horiz-adv-x="698" 
d="M570 43l-11 -43h-539l200 810h539l-10 -43h-500l3 -5l-81 -330l-6 -5h452l-10 -43h-453l4 -5l-82 -331l-6 -5h500z" />
    <glyph glyph-name="F" unicode="F" horiz-adv-x="639" 
d="M739 810l-10 -43h-480l3 -5l-86 -351l-6 -5h432l-11 -44h-432l4 -4l-89 -358h-44l200 810h519z" />
    <glyph glyph-name="G" unicode="G" horiz-adv-x="831" 
d="M778 428l-105 -428h-37l49 199h-2c-60 -104 -187 -209 -334 -209c-238 0 -329 153 -266 406c64 262 240 424 475 424c103 0 197 -29 250 -102l-43 -35c-44 68 -132 94 -217 94c-219 0 -362 -153 -418 -381c-55 -220 14 -363 230 -363c168 0 320 143 368 347l6 5h-268
l11 43h301z" />
    <glyph glyph-name="H" unicode="H" horiz-adv-x="787" 
d="M829 810l-200 -810h-45l94 379l6 5h-530l4 -5l-94 -379h-44l200 810h44l-93 -378l-6 -5h529l-3 5l93 378h45z" />
    <glyph glyph-name="I" unicode="I" horiz-adv-x="233" 
d="M269 810l-200 -810h-44l200 810h44z" />
    <glyph glyph-name="J" unicode="J" horiz-adv-x="550" 
d="M552 810h45l-129 -521c-56 -228 -193 -299 -335 -299c-80 0 -144 40 -179 103l40 34c30 -56 85 -94 150 -94c114 0 231 59 279 252z" />
    <glyph glyph-name="K" unicode="K" horiz-adv-x="640" 
d="M264 810l-200 -810h-44l200 810h44zM237 409l333 -409h-65l-330 409l519 401h64l-521 -399v-2z" />
    <glyph glyph-name="L" unicode="L" horiz-adv-x="597" 
d="M523 43l-10 -43h-493l200 810h44l-188 -762l-6 -5h453z" />
    <glyph glyph-name="M" unicode="M" horiz-adv-x="915" 
d="M956 810l-199 -810h-45l175 708h-2l-90 -138l-408 -580h-3l-122 583l-21 136h-2l-175 -709h-44l200 810h40l132 -625l17 -97h2l65 98l440 624h40z" />
    <glyph glyph-name="N" unicode="N" horiz-adv-x="787" 
d="M829 810l-200 -810h-42l-298 634l-40 104h-2l-183 -738h-44l200 810h42l298 -635l40 -103h2l182 738h45z" />
    <glyph glyph-name="O" unicode="O" horiz-adv-x="811" 
d="M739 400c49 196 11 377 -211 377c-220 0 -348 -178 -398 -377c-49 -199 -4 -367 214 -367c219 0 346 169 395 367zM786 400c-62 -251 -226 -410 -453 -410c-229 0 -311 159 -249 410s226 420 454 420c230 0 310 -168 248 -420z" />
    <glyph glyph-name="P" unicode="P" horiz-adv-x="714" 
d="M694 570c29 117 -16 197 -144 197h-301l4 -5l-95 -384l-6 -4h300c129 0 215 84 242 196zM741 570c-34 -134 -142 -240 -299 -240h-301l4 -5l-81 -325h-44l200 810h341c157 0 214 -99 180 -240z" />
    <glyph glyph-name="Q" unicode="Q" horiz-adv-x="817" 
d="M741 406c48 194 8 371 -213 371c-219 0 -347 -171 -396 -371c-48 -196 -6 -373 212 -373c86 0 166 28 229 81l8 1l-100 134l38 32l97 -132l2 8c63 70 101 161 123 249zM638 118l95 -127l-37 -31l-93 126c-84 -67 -167 -96 -270 -96c-229 0 -309 166 -248 416
c62 250 225 414 453 414c231 0 312 -162 250 -414c-29 -114 -72 -204 -150 -288z" />
    <glyph glyph-name="R" unicode="R" horiz-adv-x="720" 
d="M687 582c33 132 -41 185 -151 185h-287l3 -6l-88 -357l-6 -6h276c145 0 230 89 253 184zM595 231l51 -231h-53l-44 212c-20 98 -74 143 -188 143h-213l3 -5l-87 -350h-44l200 810h326c138 0 226 -73 188 -228c-26 -102 -105 -190 -234 -216v-2c56 -22 83 -78 95 -133z
" />
    <glyph glyph-name="S" unicode="S" horiz-adv-x="701" 
d="M632 204c-24 -101 -123 -214 -347 -214c-117 0 -216 40 -278 116l45 36c59 -71 141 -109 241 -109c168 0 269 74 292 168c18 74 -22 136 -135 171c-17 5 -120 38 -137 43c-135 43 -199 95 -173 201c25 102 133 204 343 204c107 0 190 -38 242 -105l-43 -35
c-43 59 -117 97 -209 97c-159 0 -263 -66 -286 -159c-21 -86 47 -124 165 -162l126 -40c140 -45 177 -122 154 -212z" />
    <glyph glyph-name="T" unicode="T" horiz-adv-x="658" 
d="M769 810l-10 -43h-291l2 -5l-188 -762h-44l188 762l4 5h-290l10 43h619z" />
    <glyph glyph-name="U" unicode="U" horiz-adv-x="799" 
d="M801 810h44l-108 -441c-62 -251 -195 -379 -409 -379s-284 127 -222 379l109 441h44l-110 -445c-49 -201 -6 -332 189 -332s303 130 353 332z" />
    <glyph glyph-name="V" unicode="V" horiz-adv-x="738" 
d="M803 810h51l-531 -810h-46l-132 810h52l107 -676l7 -87h2l50 88z" />
    <glyph glyph-name="W" unicode="W" horiz-adv-x="973" 
d="M1030 810h49l-418 -810h-54l-14 634l4 90h-2l-41 -90l-327 -634h-54l-18 810h50l12 -674l-5 -86h1l37 86l349 674h36l15 -677l-5 -83h2l36 84z" />
    <glyph glyph-name="X" unicode="X" horiz-adv-x="659" 
d="M389 407l181 -407h-57l-132 304l-27 71h-2l-61 -71l-283 -304h-58l383 407l-180 403h58l132 -298l26 -71h2l61 71l279 298h57z" />
    <glyph glyph-name="Y" unicode="Y" horiz-adv-x="698" 
d="M756 810h57l-426 -466l-84 -344h-45l84 344l-197 466h59l141 -344l29 -83h1l69 83z" />
    <glyph glyph-name="Z" unicode="Z" horiz-adv-x="732" 
d="M614 43l-11 -43h-613l9 35l660 666l74 64v2h-544l11 43h598l-9 -37l-655 -659l-79 -69v-2h559z" />
    <glyph glyph-name="bracketleft" unicode="[" horiz-adv-x="257" 
d="M140 -153l-9 -37h-188l271 1097h187l-9 -38h-147l-252 -1022h147z" />
    <glyph glyph-name="backslash" unicode="\" horiz-adv-x="272" 
d="M157 860l63 -910h-44l-63 910h44z" />
    <glyph glyph-name="bracketright" unicode="]" horiz-adv-x="257" 
d="M352 907l-271 -1097h-187l9 38h147l252 1021h-147l10 38h187z" />
    <glyph glyph-name="asciicircum" unicode="^" horiz-adv-x="605" 
d="M447 810l117 -395h-48l-81 279l-14 64h-2l-46 -64l-218 -279h-48l311 395h29z" />
    <glyph glyph-name="underscore" unicode="_" horiz-adv-x="651" 
d="M563 -118l-10 -41h-671l10 41h671z" />
    <glyph glyph-name="quoteleft" unicode="&#x2018;" horiz-adv-x="179" 
d="M140 668c3 10 8 21 15 31l83 124l26 -13l-57 -87l-10 -6c31 2 39 -22 33 -49c-8 -31 -28 -50 -57 -50c-30 0 -40 19 -33 50z" />
    <glyph glyph-name="a" unicode="a" 
d="M553 311c40 160 3 287 -151 287c-163 0 -261 -139 -298 -287c-36 -149 -5 -280 158 -280c152 0 253 126 291 280zM670 630l-156 -630h-43l32 129h-2c-61 -90 -153 -139 -251 -139c-178 0 -235 132 -188 321c47 193 169 328 349 328c97 0 161 -49 181 -142h2l33 133h43z
" />
    <glyph glyph-name="b" unicode="b" 
d="M583 311c36 148 8 287 -155 287c-154 0 -254 -127 -294 -287c-38 -154 2 -280 153 -280c163 0 259 131 296 280zM626 311c-47 -189 -169 -321 -347 -321c-98 0 -166 49 -183 139h-2l-32 -129h-42l207 840h43l-85 -343h2c66 93 155 142 253 142c179 0 233 -135 186 -328z
" />
    <glyph glyph-name="c" unicode="c" horiz-adv-x="553" 
d="M447 95l22 -32c-63 -49 -134 -73 -214 -73c-185 0 -240 132 -193 320c47 191 182 330 355 330c84 0 134 -23 171 -64l-38 -32c-29 35 -81 55 -143 54c-159 -1 -266 -139 -303 -288c-35 -144 -5 -279 161 -279c65 0 126 20 182 64z" />
    <glyph glyph-name="d" unicode="d" 
d="M553 311c40 160 3 287 -151 287c-163 0 -261 -139 -298 -287c-36 -149 -5 -280 158 -280c152 0 253 126 291 280zM721 839l-207 -839h-43l32 129h-2c-61 -90 -153 -139 -251 -139c-178 0 -235 132 -188 321c47 193 169 328 349 328c97 0 161 -49 181 -142h2l85 342h42z
" />
    <glyph glyph-name="e" unicode="e" horiz-adv-x="649" 
d="M106 336l464 1l-4 4c26 143 -12 257 -160 257c-147 0 -248 -116 -293 -257zM602 310l-3 -13v0l-503 -1l4 -5c-29 -153 16 -260 170 -260c65 0 129 23 186 65l23 -32c-66 -49 -142 -74 -219 -74c-195 0 -243 140 -198 320c44 181 170 330 354 330c200 0 227 -165 186 -330
z" />
    <glyph glyph-name="f" unicode="f" horiz-adv-x="348" 
d="M-139 -215c-30 0 -50 4 -70 11l10 41c19 -7 45 -11 64 -11c85 0 138 41 170 172l145 587l5 5h-79l10 39h78l-2 5l7 28c28 113 108 183 220 183c20 0 43 -4 58 -10l-9 -39c-17 5 -42 9 -57 9c-90 0 -148 -54 -170 -145l-6 -26l-4 -5h196l-10 -39h-196l2 -5l-146 -590
c-39 -157 -109 -210 -216 -210z" />
    <glyph glyph-name="g" unicode="g" 
d="M563 349c33 136 -13 250 -162 250c-153 0 -253 -110 -287 -250c-36 -144 14 -246 165 -246c153 0 251 113 284 246zM627 630h42l-144 -584c-41 -168 -144 -261 -322 -261c-83 0 -151 23 -201 68l39 33c40 -38 106 -61 171 -61c145 0 236 81 271 222l36 145h-2
c-59 -77 -146 -130 -250 -130c-178 0 -238 117 -196 287c41 164 161 291 339 291c105 0 170 -58 184 -134h2z" />
    <glyph glyph-name="h" unicode="h" 
d="M621 413l-102 -413h-43l99 401c27 107 11 197 -144 197c-104 0 -236 -60 -274 -215l-95 -383h-42l207 840h43l-81 -326h2c61 82 156 126 256 126c161 0 207 -91 174 -227z" />
    <glyph glyph-name="i" unicode="i" horiz-adv-x="221" 
d="M218 629l-156 -629h-42l155 629h43zM250 846c23 0 33 -15 26 -45c-8 -31 -25 -46 -48 -46c-24 0 -34 15 -26 46c7 30 25 45 48 45z" />
    <glyph glyph-name="j" unicode="j" horiz-adv-x="221" 
d="M175 630h43l-171 -692c-26 -105 -85 -153 -176 -153c-18 0 -39 4 -54 11l10 41c14 -7 36 -11 53 -11c62 0 106 36 126 119zM276 801c-8 -31 -25 -45 -49 -45c-23 0 -33 14 -25 45c7 31 24 45 48 45c23 0 33 -14 26 -45z" />
    <glyph glyph-name="k" unicode="k" horiz-adv-x="524" 
d="M270 840l-208 -840h-42l207 840h43zM211 322l244 -322h-61l-242 324l381 305h59l-381 -305v-2z" />
    <glyph glyph-name="l" unicode="l" horiz-adv-x="220" 
d="M269 840l-207 -840h-42l207 840h42z" />
    <glyph glyph-name="m" unicode="m" horiz-adv-x="946" 
d="M888 384l-96 -384h-43l90 364c34 138 28 235 -94 234c-112 0 -195 -100 -222 -209l-95 -389h-43l93 380c33 131 20 219 -98 219c-102 0 -193 -95 -223 -217l-94 -382h-43l155 630h43l-28 -117h2c48 76 124 127 207 127c97 0 137 -64 141 -135h3c54 84 140 135 220 135
c122 0 168 -81 125 -256z" />
    <glyph glyph-name="n" unicode="n" 
d="M620 409l-101 -409h-43l96 387c29 119 14 211 -146 211c-118 0 -234 -73 -270 -220l-94 -378h-42l155 630h43l-29 -115h2c58 79 156 125 250 125c164 0 214 -91 179 -231z" />
    <glyph glyph-name="o" unicode="o" horiz-adv-x="650" 
d="M561 315c37 152 4 283 -158 283c-164 0 -260 -131 -297 -283c-37 -151 -5 -283 157 -283c163 0 260 131 298 283zM604 315c-48 -192 -173 -325 -351 -325c-180 0 -238 131 -190 325c48 193 171 325 350 325c180 0 239 -130 191 -325z" />
    <glyph glyph-name="p" unicode="p" 
d="M585 318c36 149 5 280 -158 280c-151 0 -253 -126 -291 -280c-40 -160 -2 -287 152 -287c163 0 260 140 297 287zM627 318c-47 -192 -169 -328 -348 -328c-98 0 -162 49 -182 143h-2l-85 -343h-42l207 840h43l-32 -130h2c61 90 153 140 252 140c178 0 234 -133 187 -322z
" />
    <glyph glyph-name="q" unicode="q" 
d="M555 317c38 154 -1 282 -153 282c-163 0 -259 -133 -296 -282c-36 -147 -8 -286 155 -286c154 0 254 127 294 286zM669 630l-207 -840h-42l84 342h-2c-66 -93 -155 -142 -252 -142c-180 0 -234 135 -187 327c47 190 169 323 347 323c98 0 166 -50 183 -141h2l32 131h42z
" />
    <glyph glyph-name="r" unicode="r" horiz-adv-x="372" 
d="M440 634l-12 -49h-10c-104 1 -231 -79 -279 -275l-77 -310h-42l155 629h43l-39 -158h2c55 104 156 163 253 163h6z" />
    <glyph glyph-name="s" unicode="s" horiz-adv-x="572" 
d="M487 159c-20 -82 -98 -170 -268 -170c-87 0 -164 29 -213 94l41 33c48 -58 105 -85 180 -85c113 0 197 48 216 126c16 64 -16 99 -97 125c-12 4 -90 31 -102 35c-102 34 -154 76 -133 161c20 80 103 162 261 162c84 0 148 -30 189 -86l-41 -33c-33 48 -84 77 -158 77
c-110 0 -190 -50 -207 -118c-16 -65 35 -96 125 -125c12 -4 79 -28 92 -33c109 -35 133 -92 115 -163z" />
    <glyph glyph-name="t" unicode="t" horiz-adv-x="405" 
d="M314 72l22 -31c-53 -34 -103 -51 -156 -51c-89 0 -132 60 -102 181l102 414l4 5h-78l10 40h78l-2 5l29 115l48 23l-34 -138l-4 -5h196l-10 -40h-196l2 -5l-102 -410c-24 -98 6 -144 73 -144c41 0 81 14 120 41z" />
    <glyph glyph-name="u" unicode="u" horiz-adv-x="665" 
d="M662 630l-156 -630h-42l28 116h-2c-57 -76 -145 -126 -246 -126c-159 0 -210 87 -172 242l99 398h42l-97 -393c-27 -108 -17 -205 144 -205c115 0 230 73 266 220l93 378h43z" />
    <glyph glyph-name="v" unicode="v" horiz-adv-x="587" 
d="M614 630h49l-418 -630h-42l-107 630h49l83 -504l7 -76h3l43 76z" />
    <glyph glyph-name="w" unicode="w" horiz-adv-x="820" 
d="M845 630h46l-339 -630h-46l-27 500l4 72h-2l-32 -72l-274 -500h-47l-27 630h46l21 -510l-3 -68h3l30 68l278 510h40l27 -510l-3 -68h2l30 68z" />
    <glyph glyph-name="x" unicode="x" horiz-adv-x="531" 
d="M300 316l141 -316h-53l-104 237l-16 49h-2l-41 -49l-222 -237h-53l299 317l-140 313h53l102 -232l17 -50h2l42 50l217 232h53z" />
    <glyph glyph-name="y" unicode="y" horiz-adv-x="584" 
d="M607 630h49l-443 -705c-61 -97 -128 -140 -198 -140c-35 0 -62 5 -85 17l10 40c23 -10 52 -16 77 -16c59 0 112 33 171 127c0 0 22 36 26 43l-113 634h49l85 -502l9 -86h2l50 86z" />
    <glyph glyph-name="z" unicode="z" horiz-adv-x="610" 
d="M491 40l-10 -40h-491l9 35l512 502l61 50l1 2h-430l10 40h480l-8 -32l-515 -504l-60 -51l-1 -2h442z" />
    <glyph glyph-name="braceleft" unicode="{" horiz-adv-x="305" 
d="M186 -160l-9 -36s-49 0 -68 3c-84 11 -98 63 -77 152l63 253c13 54 16 103 -44 116l15 61c58 14 86 53 99 109l68 273c20 83 61 130 148 140c19 3 70 3 70 3l-9 -36c-113 0 -150 -28 -166 -94l-69 -278c-18 -74 -40 -116 -110 -147v-1c58 -31 57 -68 37 -148l-65 -265
c-17 -66 -2 -105 117 -105z" />
    <glyph glyph-name="bar" unicode="|" horiz-adv-x="268" 
d="M297 860l-225 -910h-40l225 910h40z" />
    <glyph glyph-name="braceright" unicode="}" horiz-adv-x="305" 
d="M292 389l-15 -61c-66 -13 -88 -62 -101 -116l-63 -253c-21 -89 -61 -141 -151 -152c-21 -3 -70 -3 -70 -3l9 36c119 0 153 39 169 105l66 265c20 80 36 117 111 148c0 0 0 2 -1 2c-54 31 -55 73 -37 146l69 278c16 66 -7 94 -121 94l9 36s51 0 69 -3
c82 -10 99 -57 79 -140l-68 -273c-13 -56 -5 -95 46 -109z" />
    <glyph glyph-name="asciitilde" unicode="~" horiz-adv-x="550" 
d="M519 387l20 -28c-37 -67 -101 -103 -165 -103c-31 0 -58 14 -86 38c-18 15 -36 30 -52 41s-34 18 -54 18c-45 0 -96 -35 -129 -89l-20 28c31 56 97 104 164 104c32 0 64 -19 93 -44c15 -14 31 -27 47 -37s33 -17 52 -17c47 0 93 27 130 89z" />
    <glyph glyph-name="exclamdown" unicode="&#xa1;" horiz-adv-x="233" 
d="M220 642l-143 -642h-60l174 642h29zM284 767c-8 -32 -30 -53 -60 -53c-31 0 -43 21 -35 53s30 53 60 53c31 0 42 -21 35 -53z" />
    <glyph glyph-name="cent" unicode="&#xa2;" horiz-adv-x="553" 
d="M457 682l6 5c-10 2 -23 2 -34 2c-159 -1 -266 -140 -303 -289c-29 -118 -18 -230 94 -270v6zM470 185l22 -31c-63 -49 -135 -74 -215 -74c-14 0 -36 0 -50 3l2 -5l-38 -89h-35l42 96l5 3c-126 36 -158 156 -119 312c47 191 182 330 355 330c12 0 30 0 42 -2l-2 6l38 86
h35l-40 -92l-6 -4c51 -13 80 -32 104 -58l-38 -32c-18 21 -45 39 -83 49v-6l-238 -548l-6 -6c11 -2 25 -3 37 -3c66 0 132 22 188 65z" />
    <glyph glyph-name="sterling" unicode="&#xa3;" horiz-adv-x="656" 
d="M486 820c90 0 167 -37 208 -99l-40 -33c-38 57 -100 89 -180 89c-104 0 -200 -52 -229 -169c-13 -54 -17 -122 -17 -177l-3 -6h231l-10 -42h-221l3 -4c0 -44 -5 -92 -14 -130c-27 -106 -82 -169 -150 -204v-2h460l-10 -43h-529l10 39c89 44 147 101 174 208
c9 37 14 85 14 131l4 5h-90l10 42h81l-4 5c-2 52 3 128 15 176c33 135 144 214 287 214z" />
    <glyph glyph-name="fraction" unicode="&#x2044;" horiz-adv-x="223" 
d="M365 820h40l-486 -830h-40z" />
    <glyph glyph-name="yen" unicode="&#xa5;" horiz-adv-x="717" 
d="M766 810h57l-358 -392l-25 -23h205l-10 -43h-238l1 -5l-23 -93l-4 -5h238l-10 -44h-239l2 -5l-49 -200h-46l50 200l4 5h-238l11 44h239l-1 5l24 93l3 5h-240l11 43h206l-15 23l-166 392h58l144 -348l27 -79h1l65 80z" />
    <glyph glyph-name="florin" unicode="&#x192;" horiz-adv-x="349" 
d="M405 627l-9 -39h-192l2 -5l-139 -564c-38 -154 -95 -234 -216 -234c-25 0 -47 5 -69 14l10 40c18 -7 42 -13 63 -13c76 0 114 38 143 108c10 25 19 55 28 88c8 30 14 59 20 84l118 477l5 5h-78l9 39h78l-2 6l11 43c25 104 95 168 202 169c23 0 47 -4 67 -13l-10 -40
c-21 9 -45 12 -65 13c-87 0 -133 -53 -153 -133l-10 -40l-4 -5h191z" />
    <glyph glyph-name="section" unicode="&#xa7;" horiz-adv-x="576" 
d="M486 271c18 71 -27 112 -74 148c-20 15 -137 96 -156 120c-72 -49 -130 -102 -145 -162c-15 -61 21 -107 72 -146c20 -16 142 -100 162 -122c69 50 127 102 141 162zM533 280c-18 -74 -75 -130 -166 -192c37 -56 45 -86 33 -136c-26 -103 -118 -153 -218 -153
c-73 0 -147 30 -191 80l37 31c39 -45 101 -69 164 -69c74 0 140 31 161 112c7 29 0 58 -12 79c-19 34 -50 61 -83 86c-33 24 -70 48 -103 73c-73 55 -107 107 -89 182c18 73 79 128 173 190c-28 36 -39 72 -28 115c21 86 113 141 222 141c72 0 138 -35 181 -86l-37 -31
c-35 44 -88 77 -154 77c-78 0 -148 -35 -165 -103c-9 -35 2 -64 28 -95c11 -13 26 -26 43 -40c16 -13 33 -25 53 -39c21 -15 57 -40 77 -55c65 -51 91 -98 74 -167z" />
    <glyph glyph-name="currency" unicode="&#xa4;" horiz-adv-x="579" 
d="M488 403c11 47 5 87 -19 121c-24 33 -60 50 -107 50s-91 -17 -132 -51c-40 -34 -66 -74 -77 -120c-12 -46 -6 -86 18 -119s61 -50 108 -50c46 0 91 16 131 49c41 33 67 74 78 120zM582 640l24 -30l-92 -75c24 -50 23 -94 14 -132c-11 -42 -34 -88 -79 -133l53 -74
l-37 -30l-56 73c-55 -35 -99 -44 -140 -44c-43 0 -84 12 -121 45l-91 -73l-22 30l91 75c-23 46 -24 91 -14 131c10 39 31 82 79 130l-55 77l37 30l56 -74c56 36 101 47 143 47c41 0 81 -11 118 -47z" />
    <glyph glyph-name="quotesingle" unicode="'" horiz-adv-x="164" 
d="M192 840h55l-84 -279h-24z" />
    <glyph glyph-name="quotedblleft" unicode="&#x201c;" horiz-adv-x="306" 
d="M140 668c3 10 8 21 15 31l83 124l26 -13l-57 -87l-10 -6c31 2 39 -22 33 -49c-8 -31 -28 -50 -57 -50c-30 0 -40 19 -33 50zM267 668c3 10 9 21 15 31l83 124l26 -13l-57 -87l-9 -6c30 2 39 -22 32 -49c-8 -31 -28 -50 -57 -50c-30 0 -40 19 -33 50z" />
    <glyph glyph-name="guillemotleft" unicode="&#xab;" horiz-adv-x="473" 
d="M263 446l23 -32l-122 -110l-62 -47l-1 -4l39 -47l68 -110l-39 -32l-121 191zM428 446l23 -32l-122 -110l-62 -47l-1 -4l39 -47l68 -110l-39 -32l-121 191z" />
    <glyph glyph-name="guilsinglleft" unicode="&#x2039;" horiz-adv-x="308" 
d="M263 446l23 -32l-122 -110l-62 -47l-1 -4l39 -47l68 -110l-39 -32l-121 191z" />
    <glyph glyph-name="guilsinglright" unicode="&#x203a;" horiz-adv-x="308" 
d="M126 446l121 -191l-215 -191l-23 32l122 110l62 47l1 4l-39 47l-68 110z" />
    <glyph glyph-name="fi" unicode="&#xfb01;" horiz-adv-x="571" 
d="M516 590h-295l2 -5l-145 -585l-1 -5c-39 -157 -109 -210 -216 -210c-30 0 -50 4 -70 11l10 41c19 -7 45 -11 64 -11c85 0 138 41 170 172l145 587l5 5h-79l10 39h78l-2 5l7 28c28 113 108 183 220 183c20 0 43 -4 58 -10l-9 -39c-17 5 -42 9 -57 9
c-90 0 -148 -54 -170 -145l-6 -26l-4 -5h337l-155 -629h-43zM626 801c-8 -31 -25 -46 -48 -46s-33 15 -26 46c8 30 25 45 48 45c24 0 34 -15 26 -45z" />
    <glyph glyph-name="fl" unicode="&#xfb02;" horiz-adv-x="571" 
d="M417 590h-196l2 -5l-145 -585l-1 -5c-39 -157 -109 -210 -216 -210c-30 0 -50 4 -70 11l10 41c19 -7 45 -11 64 -11c85 0 138 41 170 172l145 587l5 5h-79l10 39h78l-2 5l7 28c27 110 103 177 213 177h207l-207 -839h-42l198 800h-158c-90 0 -147 -49 -169 -140l-6 -26
l-4 -5h196z" />
    <glyph glyph-name="endash" unicode="&#x2013;" horiz-adv-x="557" 
d="M544 348l-11 -45h-498l11 45h498z" />
    <glyph glyph-name="dagger" unicode="&#x2020;" horiz-adv-x="581" 
d="M593 571l-11 -45l-210 7l-169 -713h-46l183 713l-220 -7l11 45l217 -8l54 247h45l-68 -247z" />
    <glyph glyph-name="daggerdbl" unicode="&#x2021;" horiz-adv-x="572" 
d="M586 571l-11 -45l-210 7l-108 -437l213 8l-11 -45l-210 8l-53 -246h-45l68 246l-214 -8l11 45l210 -8l108 437l-213 -7l11 45l210 -8l53 246h45l-68 -246z" />
    <glyph glyph-name="periodcentered" unicode="&#xb7;" horiz-adv-x="223" 
d="M150 457c31 0 42 -21 34 -53s-30 -52 -60 -52c-31 0 -42 20 -34 52s29 53 60 53z" />
    <glyph glyph-name="paragraph" unicode="&#xb6;" horiz-adv-x="515" 
d="M576 810l-10 -40h-62l4 -5l-234 -946h-39l233 946l6 5h-70l4 -5l-234 -946h-40l123 498l6 6h-20c-130 0 -206 108 -173 243c34 134 166 244 296 244h210z" />
    <glyph glyph-name="bullet" unicode="&#x2022;" horiz-adv-x="305" 
d="M247 405c-15 -61 -76 -110 -135 -110c-60 0 -96 49 -81 110c14 60 75 109 135 109c59 0 96 -49 81 -109z" />
    <glyph glyph-name="quotesinglbase" unicode="&#x201a;" horiz-adv-x="179" 
d="M76 45c-2 -10 -8 -21 -15 -31l-83 -124l-26 13l57 87l10 6c-31 -1 -39 22 -33 49c8 31 28 50 57 50c30 0 41 -19 33 -50z" />
    <glyph glyph-name="quotedblbase" unicode="&#x201e;" horiz-adv-x="306" 
d="M203 45c-2 -10 -8 -21 -15 -31l-82 -124l-27 13l58 87l9 6c-31 -1 -39 22 -32 49c7 31 28 50 57 50s40 -19 32 -50zM76 45c-2 -10 -8 -21 -15 -31l-83 -124l-26 13l57 87l10 6c-31 -1 -39 22 -33 49c8 31 28 50 57 50c30 0 41 -19 33 -50z" />
    <glyph glyph-name="quotedblright" unicode="&#x201d;" horiz-adv-x="306" 
d="M382 770c-2 -10 -8 -22 -15 -32l-83 -124l-26 14l57 86l10 6c-31 -1 -39 22 -33 50c8 30 28 50 57 50c30 0 41 -20 33 -50zM255 770c-3 -10 -9 -22 -15 -32l-83 -124l-26 14l57 86l9 6c-30 -1 -39 22 -32 50c8 30 28 50 57 50c30 0 40 -20 33 -50z" />
    <glyph glyph-name="guillemotright" unicode="&#xbb;" horiz-adv-x="473" 
d="M126 446l121 -191l-215 -191l-23 32l122 110l62 47l1 4l-39 47l-68 110zM291 446l121 -191l-216 -191l-22 32l122 110l62 47l1 4l-39 47l-68 110z" />
    <glyph glyph-name="ellipsis" unicode="&#x2026;" horiz-adv-x="654" 
d="M89 40c-7 -30 -28 -50 -57 -50s-40 20 -32 50c7 30 28 50 57 50s40 -19 32 -50zM308 40c-8 -30 -29 -50 -58 -50s-39 20 -32 50c8 30 28 50 57 50s40 -19 33 -50zM526 40c-8 -30 -29 -50 -58 -50s-39 20 -32 50c8 30 28 50 57 50s40 -19 33 -50z" />
    <glyph glyph-name="perthousand" unicode="&#x2030;" horiz-adv-x="1117" 
d="M371 590c23 95 22 187 -65 187c-85 0 -133 -89 -157 -187c-24 -95 -17 -181 65 -181c83 0 132 82 157 181zM413 590c-33 -134 -109 -224 -209 -224c-99 0 -131 90 -98 224c33 135 114 230 210 230c98 0 130 -95 97 -230zM635 820h41l-486 -830h-41zM673 213
c23 95 23 187 -65 187c-85 0 -133 -90 -157 -187c-24 -95 -17 -181 66 -181c82 0 131 82 156 181zM715 213c-33 -134 -108 -224 -209 -224c-99 0 -131 90 -98 224s114 230 210 230c99 0 131 -95 97 -230zM1028 213c24 95 23 187 -64 187c-86 0 -133 -90 -157 -187
c-24 -95 -18 -181 65 -181s132 82 156 181zM1071 213c-33 -134 -109 -224 -209 -224c-99 0 -131 90 -98 224s113 230 210 230c98 0 130 -95 97 -230z" />
    <glyph glyph-name="questiondown" unicode="&#xbf;" horiz-adv-x="574" 
d="M447 130l26 -35c-76 -68 -161 -105 -263 -105c-148 0 -200 110 -178 199c21 84 83 140 162 175l38 16c102 44 135 90 162 201l16 61h45l-18 -71c-30 -120 -67 -176 -198 -233l-27 -12c-73 -32 -117 -72 -133 -137c-20 -80 42 -156 143 -156c87 0 161 36 225 97zM476 820
c31 0 42 -20 34 -53c-8 -32 -29 -52 -60 -52s-42 20 -34 52s30 53 60 53z" />
    <glyph glyph-name="grave" unicode="`" horiz-adv-x="652" 
d="M408 895l118 -183l-22 -17l-141 165z" />
    <glyph glyph-name="acute" unicode="&#xb4;" horiz-adv-x="652" 
d="M571 899l28 -36l-227 -168l-13 17z" />
    <glyph glyph-name="circumflex" unicode="&#x2c6;" horiz-adv-x="587" 
d="M441 875l120 -162l-23 -19l-112 125l-3 -1l-171 -124l-15 20l202 163z" />
    <glyph glyph-name="tilde" unicode="&#x2dc;" horiz-adv-x="656" 
d="M664 838l18 -25c-32 -57 -84 -95 -146 -95c-70 0 -113 79 -175 79c-42 0 -82 -23 -107 -72l-19 25c29 56 78 87 140 87c71 0 113 -80 174 -80c46 0 90 35 115 81z" />
    <glyph glyph-name="macron" unicode="&#xaf;" horiz-adv-x="673" 
d="M643 767l-9 -36h-365l9 36h365z" />
    <glyph glyph-name="breve" unicode="&#x2d8;" horiz-adv-x="663" 
d="M577 804h44c-41 -65 -104 -109 -185 -109c-82 0 -123 44 -132 109h45c10 -43 39 -70 97 -70s100 27 131 70z" />
    <glyph glyph-name="dotaccent" unicode="&#x2d9;" horiz-adv-x="626" 
d="M445 803c28 0 38 -19 31 -48s-27 -48 -55 -48s-38 19 -31 48s27 48 55 48z" />
    <glyph glyph-name="dieresis" unicode="&#xa8;" horiz-adv-x="640" 
d="M366 751c-6 -27 -24 -43 -48 -43c-25 0 -34 16 -27 43c6 27 24 43 48 43c25 0 34 -16 27 -43zM565 751c-7 -27 -25 -43 -49 -43s-34 16 -27 43s24 43 48 43c25 0 34 -16 28 -43z" />
    <glyph glyph-name="ring" unicode="&#x2da;" horiz-adv-x="640" 
d="M504 791c9 37 -3 68 -46 68s-70 -31 -79 -68s3 -68 45 -68c44 0 71 31 80 68zM531 791c-14 -56 -54 -96 -113 -96c-61 0 -80 39 -66 96s53 96 113 96s80 -39 66 -96z" />
    <glyph glyph-name="cedilla" unicode="&#xb8;" horiz-adv-x="658" 
d="M242 -3l32 5l12 -16c16 -22 23 -34 18 -53c-4 -19 -11 -26 -54 -60l-73 -59l-20 28l74 59c43 35 49 45 28 74z" />
    <glyph glyph-name="hungarumlaut" unicode="&#x2dd;" horiz-adv-x="698" 
d="M495 860l28 -37l-172 -128l-13 18zM634 860l27 -37l-171 -128l-14 18z" />
    <glyph glyph-name="ogonek" unicode="&#x2db;" horiz-adv-x="691" 
d="M508 -183l15 -21c-4 -4 -10 -12 -17 -15c-20 -17 -45 -32 -73 -32c-49 -2 -80 39 -68 89c6 27 23 53 45 70l120 99l34 -4l-129 -107c-16 -13 -26 -32 -30 -48c-8 -35 15 -60 46 -60c15 1 31 7 44 17c2 3 7 6 13 12z" />
    <glyph glyph-name="caron" unicode="&#x2c7;" horiz-adv-x="587" 
d="M582 877l15 -20l-202 -163l-2 1l-120 162l24 20l111 -126l3 1z" />
    <glyph glyph-name="emdash" unicode="&#x2014;" horiz-adv-x="807" 
d="M794 348l-11 -45h-748l11 45h748z" />
    <glyph glyph-name="AE" unicode="&#xc6;" horiz-adv-x="976" 
d="M848 43l-11 -43h-409l53 214l6 4h-351l1 -5l-140 -213h-51l540 810h551l-10 -43h-368l2 -5l-82 -331l-5 -5h329l-11 -42h-329l3 -5l-81 -330l-6 -6h369zM616 763l4 4h-116l1 -5l-333 -495l-8 -6h332l-4 5z" />
    <glyph glyph-name="ordfeminine" unicode="&#xaa;" horiz-adv-x="433" 
d="M331 780c-101 0 -162 -86 -186 -180c-23 -95 -3 -176 98 -176c93 0 158 78 182 176c25 102 0 180 -94 180zM456 737l18 74h36l-103 -417h-36l17 71c-40 -50 -97 -77 -156 -77c-117 0 -154 89 -123 212c31 126 111 217 230 217c59 0 100 -28 117 -80z" />
    <glyph glyph-name="Lslash" unicode="&#x141;" horiz-adv-x="597" 
d="M523 43l-10 -43h-493l85 341l4 7l-86 -33l12 46l86 34l-2 5l101 410h44l-97 -394l-4 -5l240 92l-11 -46l-241 -93l2 -4l-77 -311l-6 -6h453z" />
    <glyph glyph-name="Oslash" unicode="&#xd8;" horiz-adv-x="811" 
d="M689 718l5 3c-38 36 -92 56 -166 56c-220 0 -348 -178 -398 -377c-32 -131 -24 -249 50 -315l1 7zM739 400c30 120 28 236 -32 308l-2 -7l-506 -624l-6 -2c37 -27 87 -42 151 -42c219 0 346 169 395 367zM786 400c-62 -251 -226 -410 -453 -410c-70 0 -130 16 -172 45
l-2 -7l-70 -86l-19 13l71 87l6 4c-83 68 -103 192 -63 354c62 251 226 420 454 420c80 0 143 -20 188 -60l2 6l65 80l18 -14l-66 -82l-6 -2c71 -73 84 -196 47 -348z" />
    <glyph glyph-name="OE" unicode="&#x152;" horiz-adv-x="1057" 
d="M607 400c46 186 33 377 -143 377c-174 0 -283 -185 -331 -377c-46 -190 -25 -367 148 -367c174 0 279 177 326 367zM929 43l-11 -42h-417l33 135h-2c-81 -103 -167 -146 -262 -146c-184 0 -249 154 -186 410s208 420 391 420c88 0 158 -40 189 -152h2l35 141h417l-11 -42
h-377l5 -5l-81 -331l-8 -5h338l-11 -42h-337l5 -5l-82 -331l-7 -5h377z" />
    <glyph glyph-name="ordmasculine" unicode="&#xba;" horiz-adv-x="444" 
d="M433 604c24 97 3 180 -99 180c-103 0 -164 -83 -188 -180s-3 -181 99 -181s164 83 188 181zM469 604c-31 -128 -115 -217 -233 -217c-120 0 -158 88 -127 217c32 127 114 216 233 216c120 0 159 -88 127 -216z" />
    <glyph glyph-name="ae" unicode="&#xe6;" horiz-adv-x="1132" 
d="M553 311c40 160 3 287 -151 287c-163 0 -261 -139 -298 -287c-36 -149 -5 -280 158 -280c152 0 253 126 291 280zM589 336l463 1l-4 4c26 143 -12 257 -160 257c-147 0 -248 -116 -293 -257zM670 630l-32 -129h2c59 79 153 139 258 139c200 0 227 -165 186 -330l-3 -13v0
l-503 -1l4 -5c-29 -153 16 -260 170 -260c65 0 130 23 187 65l22 -32c-66 -49 -142 -74 -219 -74c-110 0 -170 48 -196 130h-2l-30 -120h-43l32 129h-2c-61 -90 -153 -139 -251 -139c-178 0 -235 132 -188 321c47 193 169 328 349 328c97 0 161 -49 181 -142h2l33 133h43z
" />
    <glyph glyph-name="dotlessi" unicode="&#x131;" horiz-adv-x="221" 
d="M218 629l-156 -629h-42l155 629h43z" />
    <glyph glyph-name="lslash" unicode="&#x142;" horiz-adv-x="232" 
d="M234 840h42l-99 -401l-4 -6l90 35l-10 -44l-91 -35l2 -4l-95 -385h-43l91 367l4 7l-92 -36l11 43l92 36l-2 3z" />
    <glyph glyph-name="oslash" unicode="&#xf8;" horiz-adv-x="650" 
d="M518 554l6 4c-27 25 -68 40 -121 40c-164 0 -260 -131 -297 -283c-23 -94 -20 -180 27 -234l6 9zM561 315c22 90 20 174 -22 227l-4 -7l-379 -464l-6 -6c27 -21 65 -33 113 -33c163 0 260 131 298 283zM604 315c-48 -192 -173 -325 -351 -325c-56 0 -100 12 -135 37
l-3 -7l-62 -75l-21 15l64 78l5 4c-57 56 -68 153 -38 273c48 193 171 325 350 325c60 0 106 -15 142 -43l2 6l63 76l21 -15l-64 -78l-6 -5c52 -56 61 -150 33 -266z" />
    <glyph glyph-name="oe" unicode="&#x153;" horiz-adv-x="1147" 
d="M604 336l464 1l-4 4c26 143 -12 257 -160 257c-147 0 -248 -116 -293 -257zM560 315c38 152 5 283 -157 283c-164 0 -260 -131 -298 -283c-37 -151 -4 -283 158 -283c163 0 260 131 297 283zM1100 310l-3 -13v0l-503 -1l4 -5c-29 -153 16 -260 169 -260
c66 0 130 23 187 65l23 -32c-66 -49 -142 -74 -219 -74c-140 0 -204 72 -213 179h-1c-73 -123 -175 -179 -291 -179c-180 0 -238 131 -190 325c48 193 171 325 350 325c120 0 191 -58 204 -183h2c64 108 165 183 295 183c200 0 227 -165 186 -330z" />
    <glyph glyph-name="germandbls" unicode="&#xdf;" horiz-adv-x="626" 
d="M558 229c-35 -142 -153 -240 -277 -240c-49 0 -86 6 -118 19l11 43c34 -15 66 -21 108 -21c107 0 203 77 233 198c28 111 -18 203 -150 203h-94l10 40h73c100 -1 177 63 202 163c27 112 -45 171 -142 171c-107 0 -166 -52 -194 -167l-157 -637h-43l162 654
c33 136 119 190 242 190c122 0 207 -81 176 -208c-23 -92 -84 -151 -147 -176v-3c91 -26 134 -112 105 -229z" />
    <glyph glyph-name="onesuperior" unicode="&#xb9;" horiz-adv-x="238" 
d="M295 810l-113 -454h-38l89 363l15 41h-2l-33 -34l-59 -49l-20 27l127 106h34z" />
    <glyph glyph-name="logicalnot" unicode="&#xac;" horiz-adv-x="528" 
d="M514 344l-72 -294h-43l61 244l6 6h-432l11 44h469z" />
    <glyph glyph-name="mu" unicode="&#xb5;" horiz-adv-x="659" 
d="M654 630l-156 -630h-42l27 109h-3c-58 -73 -149 -119 -237 -119c-78 0 -141 42 -160 119h-2l-79 -319h-43l207 840h43l-95 -385c-36 -146 51 -209 140 -209c105 0 227 64 263 212l94 382h43z" />
    <glyph glyph-name="trademark" unicode="&#x2122;" horiz-adv-x="785" 
d="M482 810l-6 -26h-150l1 -4l-92 -375h-27l93 375l3 4h-150l6 26h322zM886 810l-100 -405h-27l85 344h-1l-54 -83l-190 -267h-2l-58 268l-13 82h-2l-84 -344h-27l100 405h24l64 -295l11 -55h2l37 55l210 295h25z" />
    <glyph glyph-name="Eth" unicode="&#xd0;" horiz-adv-x="765" 
d="M478 767h-230l5 -5l-82 -331l-4 -5h196l-11 -42h-196l2 -5l-82 -331l-6 -5h234c260 0 345 180 390 362s46 362 -216 362zM20 0l94 379l5 5h-69l11 42h68l-3 5l94 379h278c292 0 293 -204 243 -405c-50 -203 -150 -405 -438 -405h-283z" />
    <glyph glyph-name="onehalf" unicode="&#xbd;" horiz-adv-x="683" 
d="M534 820h41l-486 -830h-41zM295 810l-113 -454h-38l89 363l15 41h-2l-33 -34l-59 -49l-20 27l127 106h34zM642 336c-13 -54 -49 -93 -129 -123l-71 -26c-54 -21 -88 -63 -103 -133l-3 -13l-2 -2h234l-9 -40h-272l16 65c20 79 61 133 132 159l65 25c64 25 94 49 104 88
c9 40 -5 79 -75 79c-41 0 -77 -16 -117 -55l-21 31c50 44 97 63 148 63c95 0 118 -60 103 -118z" />
    <glyph glyph-name="plusminus" unicode="&#xb1;" horiz-adv-x="668" 
d="M544 137l-11 -44h-490l11 44h490zM631 498l-12 -46h-225l2 -5l-59 -239h-44l59 239l5 5h-226l12 46h225l-2 5l59 240h44l-59 -240l-5 -5h226z" />
    <glyph glyph-name="Thorn" unicode="&#xde;" horiz-adv-x="714" 
d="M509 601h-301l4 -5l-95 -384l-6 -4h300c129 0 215 84 242 196c29 117 -16 197 -144 197zM700 404c-34 -134 -142 -240 -299 -240h-301l4 -5l-40 -159h-44l200 810h44l-40 -161l-6 -5h302c157 0 214 -99 180 -240z" />
    <glyph glyph-name="onequarter" unicode="&#xbc;" horiz-adv-x="668" 
d="M493 150l-1 6l44 183l15 49h-2l-71 -70l-125 -117l-59 -50l-1 -2zM572 113h-55l2 -5l-29 -115h-39l28 115l4 5h-250l7 30l325 305h38l-71 -292l-5 -5h54zM295 810l-113 -454h-38l89 363l15 41h-2l-33 -34l-59 -49l-20 27l127 106h34zM534 820h41l-486 -830h-41z" />
    <glyph glyph-name="divide" unicode="&#xf7;" horiz-adv-x="668" 
d="M358 183c-8 -32 -30 -53 -61 -53c-30 0 -42 20 -34 53c8 32 30 52 60 52c31 0 43 -20 35 -52zM615 427l-11 -44h-490l11 44h490zM433 680c31 0 42 -21 34 -53c-7 -32 -29 -52 -60 -52c-30 0 -42 20 -34 52s30 53 60 53z" />
    <glyph glyph-name="brokenbar" unicode="&#xa6;" horiz-adv-x="268" 
d="M174 360l-102 -410h-40l101 410h41zM297 860l-101 -410h-40l101 410h40z" />
    <glyph glyph-name="degree" unicode="&#xb0;" horiz-adv-x="398" 
d="M396 646c19 75 -1 137 -86 137c-84 0 -134 -61 -152 -137c-19 -75 1 -137 85 -137c85 0 134 62 153 137zM434 646c-25 -102 -97 -174 -200 -174c-105 0 -139 72 -114 174s95 174 199 174c105 0 140 -71 115 -174z" />
    <glyph glyph-name="thorn" unicode="&#xfe;" 
d="M584 315c37 148 6 283 -157 283c-152 0 -254 -129 -292 -283c-39 -160 -1 -284 153 -284c163 0 260 137 296 284zM626 315c-47 -192 -168 -325 -347 -325c-101 0 -160 49 -182 143h-2l-85 -343h-42l259 1051h43l-85 -344h2c63 91 152 142 253 142
c178 0 233 -135 186 -324z" />
    <glyph glyph-name="threequarters" unicode="&#xbe;" horiz-adv-x="802" 
d="M627 150l-2 6l45 183l14 49h-2l-70 -70l-125 -117l-60 -50v-2zM706 113h-55l1 -5l-28 -115h-40l29 115l4 5h-250l7 30l324 305h38l-71 -292l-4 -5h54zM668 820h41l-486 -830h-41zM405 488c-15 -60 -78 -132 -188 -132c-59 0 -99 20 -128 63l35 30c22 -36 51 -56 102 -56
c81 0 129 50 139 92c12 48 -16 86 -80 93c-12 2 -41 2 -57 3l9 36c17 1 46 2 55 3c71 9 110 49 119 85c10 42 -11 77 -88 77c-48 0 -86 -17 -126 -52l-20 30c49 42 99 60 156 60c105 0 130 -61 116 -118c-11 -44 -56 -86 -111 -101l-1 -1c52 -12 81 -58 68 -112z" />
    <glyph glyph-name="twosuperior" unicode="&#xb2;" horiz-adv-x="381" 
d="M429 697c-13 -54 -50 -93 -130 -123l-70 -26c-54 -20 -88 -63 -103 -133l-3 -13l-2 -2h234l-9 -39h-272l16 64c20 79 61 133 132 160l64 24c65 25 95 49 104 88c10 40 -4 79 -74 79c-41 0 -77 -16 -117 -55l-21 31c50 45 97 63 148 63c95 0 118 -59 103 -118z" />
    <glyph glyph-name="registered" unicode="&#xae;" horiz-adv-x="926" 
d="M653 502c19 75 -26 100 -87 100h-168l3 -5l-46 -189l-7 -4h162c73 0 129 38 143 98zM608 303l31 -140h-43l-26 124c-12 54 -41 80 -108 80h-122l3 -4l-49 -200h-37l117 476h214c76 0 125 -53 105 -137c-13 -50 -52 -101 -132 -125c28 -20 41 -42 47 -74zM858 401
c51 207 -71 382 -271 382s-409 -175 -461 -382c-51 -207 71 -383 272 -383s409 176 460 383zM896 401c-57 -229 -283 -416 -506 -416s-358 187 -301 416c56 228 283 414 506 414c222 0 357 -186 301 -414z" />
    <glyph glyph-name="minus" unicode="&#x2212;" horiz-adv-x="668" 
d="M615 427l-11 -44h-490l11 44h490z" />
    <glyph glyph-name="eth" unicode="&#xf0;" horiz-adv-x="623" 
d="M531 292c35 140 1 262 -152 262c-154 0 -246 -121 -281 -262c-34 -139 -1 -262 152 -262s246 122 281 262zM572 292c-45 -178 -163 -302 -333 -302s-226 123 -182 302c45 179 161 302 331 302c37 0 67 -7 105 -26l1 1l-61 167l1 7l-102 -55l-12 29l103 56l-5 3l-26 70h48
l18 -48l-1 -7l85 45l11 -31l-85 -45l4 -2l102 -276c18 -50 17 -113 -2 -190z" />
    <glyph glyph-name="multiply" unicode="&#xd7;" horiz-adv-x="567" 
d="M346 401l133 -176l-39 -32l-130 178v6l-226 -184l-23 32l228 183l-6 1l-133 178l38 31l132 -178l-1 -7l225 185l24 -32l-228 -183z" />
    <glyph glyph-name="threesuperior" unicode="&#xb3;" horiz-adv-x="408" 
d="M405 488c-15 -60 -78 -132 -188 -132c-59 0 -99 20 -128 63l35 30c22 -36 51 -56 102 -56c81 0 129 50 139 92c12 48 -16 86 -80 93c-12 2 -41 2 -57 3l9 36c17 1 46 2 55 3c71 9 110 49 119 85c10 42 -11 77 -88 77c-48 0 -86 -17 -126 -52l-20 30c49 42 99 60 156 60
c105 0 130 -61 116 -118c-11 -44 -56 -86 -111 -101l-1 -1c52 -12 81 -58 68 -112z" />
    <glyph glyph-name="copyright" unicode="&#xa9;" horiz-adv-x="926" 
d="M592 218l21 -29c-60 -43 -119 -63 -189 -63c-163 0 -212 112 -173 270c40 161 157 278 310 278c72 0 117 -19 151 -54l-34 -29c-28 28 -73 46 -126 46c-138 -1 -231 -115 -262 -241c-30 -121 -1 -232 143 -232c57 0 111 18 159 54zM858 401c51 207 -71 382 -271 382
s-409 -175 -461 -382c-51 -207 71 -383 272 -383s409 176 460 383zM896 401c-57 -229 -283 -416 -506 -416s-358 187 -301 416c56 228 283 414 506 414c222 0 357 -186 301 -414z" />
    <glyph glyph-name="Aacute" unicode="&#xc1;" horiz-adv-x="757" 
d="M168 261h412l-5 6l-73 419l-5 71h-1l-41 -71l-281 -420zM530 810l143 -810h-50l-39 214l4 4h-450l1 -5l-143 -213h-50l544 810h40zM651 1076l27 -36l-221 -165l-14 17z" />
    <glyph glyph-name="Acircumflex" unicode="&#xc2;" horiz-adv-x="757" 
d="M168 261h412l-5 6l-73 419l-5 71h-1l-41 -71l-281 -420zM530 810l143 -810h-50l-39 214l4 4h-450l1 -5l-143 -213h-50l544 810h40zM571 1055l121 -163l-24 -19l-112 126l-3 -2l-171 -124l-14 20l201 163z" />
    <glyph glyph-name="Adieresis" unicode="&#xc4;" horiz-adv-x="757" 
d="M168 261h412l-5 6l-73 419l-5 71h-1l-41 -71l-281 -420zM530 810l143 -810h-50l-39 214l4 4h-450l1 -5l-143 -213h-50l544 810h40zM482 943c-7 -27 -25 -43 -49 -43c-25 0 -34 16 -27 43s24 43 48 43c25 0 34 -16 28 -43zM680 943c-6 -27 -24 -43 -48 -43
c-25 0 -34 16 -27 43c6 27 24 43 48 43c25 0 34 -16 27 -43z" />
    <glyph glyph-name="Agrave" unicode="&#xc0;" horiz-adv-x="757" 
d="M168 261h412l-5 6l-73 419l-5 71h-1l-41 -71l-281 -420zM530 810l143 -810h-50l-39 214l4 4h-450l1 -5l-143 -213h-50l544 810h40zM504 1075l117 -183l-22 -17l-140 164z" />
    <glyph glyph-name="Aring" unicode="&#xc5;" horiz-adv-x="757" 
d="M168 261h412l-5 6l-73 419l-5 71h-1l-41 -71l-281 -420zM529 810l144 -810h-50l-39 214l4 4h-450l1 -5l-143 -213h-50l543 810h40zM611 971c9 37 -2 68 -45 68s-70 -31 -79 -68c-9 -36 2 -68 45 -68s70 31 79 68zM638 971c-13 -56 -53 -96 -113 -96s-80 39 -66 96
s53 96 113 96c61 0 81 -39 66 -96z" />
    <glyph glyph-name="Atilde" unicode="&#xc3;" horiz-adv-x="757" 
d="M168 261h412l-5 6l-73 419l-5 71h-1l-41 -71l-281 -420zM530 810l143 -810h-50l-39 214l4 4h-450l1 -5l-143 -213h-50l544 810h40zM747 996l19 -26c-32 -57 -84 -95 -147 -95c-70 0 -113 80 -174 80c-42 0 -83 -24 -108 -73l-18 25c29 57 78 87 140 87
c70 0 112 -79 173 -79c46 0 90 34 115 81z" />
    <glyph glyph-name="Ccedilla" unicode="&#xc7;" horiz-adv-x="718" 
d="M796 716l-43 -35c-36 60 -104 96 -207 96c-228 0 -366 -174 -416 -378c-50 -201 1 -366 231 -366c102 0 189 36 254 95l25 -34c-73 -62 -163 -100 -271 -103c-2 0 -5 0 -7 -1l11 -15c18 -26 20 -51 -17 -81l-99 -80l-20 28l73 59c43 35 49 45 28 74l-12 16
c-224 10 -302 168 -242 409c62 250 235 420 472 420c118 0 195 -39 240 -104z" />
    <glyph glyph-name="Eacute" unicode="&#xc9;" horiz-adv-x="698" 
d="M570 43l-11 -43h-539l200 810h539l-10 -43h-500l3 -5l-81 -330l-6 -5h452l-10 -43h-453l4 -5l-82 -331l-6 -5h500zM661 1075l27 -36l-222 -165l-13 17z" />
    <glyph glyph-name="Ecircumflex" unicode="&#xca;" horiz-adv-x="698" 
d="M570 43l-11 -43h-539l200 810h539l-10 -43h-500l3 -5l-81 -330l-6 -5h452l-10 -43h-453l4 -5l-82 -331l-6 -5h500zM553 1055l121 -163l-24 -19l-112 126l-2 -2l-171 -124l-15 20l201 163z" />
    <glyph glyph-name="Edieresis" unicode="&#xcb;" horiz-adv-x="698" 
d="M570 43l-11 -43h-539l200 810h539l-10 -43h-500l3 -5l-81 -330l-6 -5h452l-10 -43h-453l4 -5l-82 -331l-6 -5h500zM469 942c-7 -27 -25 -43 -49 -43s-34 16 -27 43s24 43 49 43c24 0 33 -16 27 -43zM667 942c-7 -27 -24 -43 -48 -43c-25 0 -34 16 -28 43
c7 27 24 43 49 43s34 -16 27 -43z" />
    <glyph glyph-name="Egrave" unicode="&#xc8;" horiz-adv-x="698" 
d="M570 43l-11 -43h-539l200 810h539l-10 -43h-500l3 -5l-81 -330l-6 -5h452l-10 -43h-453l4 -5l-82 -331l-6 -5h500zM488 1075l117 -183l-21 -17l-141 164z" />
    <glyph glyph-name="Iacute" unicode="&#xcd;" horiz-adv-x="233" 
d="M269 810l-200 -810h-44l200 810h44zM384 1076l27 -36l-222 -165l-13 17z" />
    <glyph glyph-name="Icircumflex" unicode="&#xce;" horiz-adv-x="233" 
d="M269 810l-200 -810h-44l200 810h44zM310 1055l120 -163l-23 -19l-112 126l-3 -2l-171 -124l-14 20l201 163z" />
    <glyph glyph-name="Idieresis" unicode="&#xcf;" horiz-adv-x="233" 
d="M269 810l-200 -810h-44l200 810h44zM218 943c-6 -27 -24 -43 -48 -43c-25 0 -34 16 -27 43s24 43 48 43c25 0 34 -16 27 -43zM417 943c-7 -27 -24 -43 -49 -43c-24 0 -33 16 -27 43c7 27 24 43 49 43c24 0 33 -16 27 -43z" />
    <glyph glyph-name="Igrave" unicode="&#xcc;" horiz-adv-x="233" 
d="M269 810l-200 -810h-44l200 810h44zM238 1075l117 -183l-21 -17l-141 164z" />
    <glyph glyph-name="Ntilde" unicode="&#xd1;" horiz-adv-x="787" 
d="M829 810l-200 -810h-42l-298 634l-40 104h-2l-183 -738h-44l200 810h42l298 -635l40 -103h2l182 738h45zM769 996l18 -26c-32 -57 -84 -95 -146 -95c-70 0 -113 80 -175 80c-42 0 -82 -24 -108 -73l-18 25c29 57 78 87 140 87c71 0 113 -79 174 -79c46 0 89 34 115 81z
" />
    <glyph glyph-name="Oacute" unicode="&#xd3;" horiz-adv-x="811" 
d="M739 400c49 196 11 377 -211 377c-220 0 -348 -178 -398 -377c-49 -199 -4 -367 214 -367c219 0 346 169 395 367zM786 400c-62 -251 -226 -410 -453 -410c-229 0 -311 159 -249 410s226 420 454 420c230 0 310 -168 248 -420zM677 1076l27 -36l-222 -165l-13 17z" />
    <glyph glyph-name="Ocircumflex" unicode="&#xd4;" horiz-adv-x="811" 
d="M739 400c49 196 11 377 -211 377c-220 0 -348 -178 -398 -377c-49 -199 -4 -367 214 -367c219 0 346 169 395 367zM786 400c-62 -251 -226 -410 -453 -410c-229 0 -311 159 -249 410s226 420 454 420c230 0 310 -168 248 -420zM600 1055l120 -163l-23 -19l-112 126l-3 -2
l-171 -124l-14 20l201 163z" />
    <glyph glyph-name="Odieresis" unicode="&#xd6;" horiz-adv-x="811" 
d="M739 400c49 196 11 377 -211 377c-220 0 -348 -178 -398 -377c-49 -199 -4 -367 214 -367c219 0 346 169 395 367zM786 400c-62 -251 -226 -410 -453 -410c-229 0 -311 159 -249 410s226 420 454 420c230 0 310 -168 248 -420zM510 943c-7 -27 -25 -43 -49 -43
c-25 0 -34 16 -27 43s24 43 48 43c25 0 34 -16 28 -43zM708 943c-7 -27 -24 -43 -49 -43c-24 0 -33 16 -27 43c7 27 24 43 49 43c24 0 34 -16 27 -43z" />
    <glyph glyph-name="Ograve" unicode="&#xd2;" horiz-adv-x="811" 
d="M739 400c49 196 11 377 -211 377c-220 0 -348 -178 -398 -377c-49 -199 -4 -367 214 -367c219 0 346 169 395 367zM786 400c-62 -251 -226 -410 -453 -410c-229 0 -311 159 -249 410s226 420 454 420c230 0 310 -168 248 -420zM526 1075l117 -183l-21 -17l-141 164z" />
    <glyph glyph-name="Otilde" unicode="&#xd5;" horiz-adv-x="811" 
d="M739 400c49 196 11 377 -211 377c-220 0 -348 -178 -398 -377c-49 -199 -4 -367 214 -367c219 0 346 169 395 367zM786 400c-62 -251 -226 -410 -453 -410c-229 0 -311 159 -249 410s226 420 454 420c230 0 310 -168 248 -420zM770 996l18 -26c-32 -57 -84 -95 -146 -95
c-70 0 -113 80 -175 80c-42 0 -82 -24 -108 -73l-18 25c29 57 78 87 140 87c71 0 113 -79 174 -79c46 0 89 34 115 81z" />
    <glyph glyph-name="Scaron" unicode="&#x160;" horiz-adv-x="701" 
d="M632 204c-24 -101 -123 -214 -347 -214c-117 0 -216 40 -278 116l45 36c59 -71 141 -109 241 -109c168 0 269 74 292 168c18 74 -22 136 -135 171c-17 5 -120 38 -137 43c-135 43 -199 95 -173 201c25 102 133 204 343 204c107 0 190 -38 242 -105l-43 -35
c-43 59 -117 97 -209 97c-159 0 -263 -66 -286 -159c-21 -86 47 -124 165 -162l126 -40c140 -45 177 -122 154 -212zM684 1058l14 -20l-201 -163l-2 1l-120 163l23 19l112 -126l3 1z" />
    <glyph glyph-name="Uacute" unicode="&#xda;" horiz-adv-x="799" 
d="M801 810h44l-108 -441c-62 -251 -195 -379 -409 -379s-284 127 -222 379l109 441h44l-110 -445c-49 -201 -6 -332 189 -332s303 130 353 332zM669 1076l27 -36l-222 -165l-13 17z" />
    <glyph glyph-name="Ucircumflex" unicode="&#xdb;" horiz-adv-x="799" 
d="M801 810h44l-108 -441c-62 -251 -195 -379 -409 -379s-284 127 -222 379l109 441h44l-110 -445c-49 -201 -6 -332 189 -332s303 130 353 332zM594 1055l120 -163l-24 -19l-111 126l-3 -2l-171 -124l-15 20l201 163z" />
    <glyph glyph-name="Udieresis" unicode="&#xdc;" horiz-adv-x="799" 
d="M801 810h44l-108 -441c-62 -251 -195 -379 -409 -379s-284 127 -222 379l109 441h44l-110 -445c-49 -201 -6 -332 189 -332s303 130 353 332zM499 943c-7 -27 -25 -43 -49 -43s-34 16 -27 43s24 43 48 43c25 0 34 -16 28 -43zM697 943c-7 -27 -24 -43 -49 -43
c-24 0 -33 16 -27 43c7 27 24 43 49 43s34 -16 27 -43z" />
    <glyph glyph-name="Ugrave" unicode="&#xd9;" horiz-adv-x="799" 
d="M801 810h44l-108 -441c-62 -251 -195 -379 -409 -379s-284 127 -222 379l109 441h44l-110 -445c-49 -201 -6 -332 189 -332s303 130 353 332zM517 1075l118 -183l-22 -17l-141 164z" />
    <glyph glyph-name="Yacute" unicode="&#xdd;" horiz-adv-x="698" 
d="M756 810h57l-426 -466l-84 -344h-45l84 344l-197 466h59l137 -335l33 -90h2l76 90zM617 1076l27 -36l-222 -165l-13 17z" />
    <glyph glyph-name="Ydieresis" unicode="&#x178;" horiz-adv-x="698" 
d="M756 810h57l-426 -466l-84 -344h-45l84 344l-197 466h59l141 -344l29 -83h1l69 83zM449 943c-7 -27 -24 -43 -48 -43c-25 0 -34 16 -27 43c6 27 23 43 48 43s34 -16 27 -43zM647 943c-6 -27 -24 -43 -48 -43c-25 0 -34 16 -27 43s24 43 48 43c25 0 34 -16 27 -43z" />
    <glyph glyph-name="Zcaron" unicode="&#x17d;" horiz-adv-x="730" 
d="M612 43l-11 -43h-611l10 39l659 661l75 65v2h-545l11 43h596l-10 -39l-654 -655l-80 -71v-2h560zM699 1058l15 -20l-201 -163l-2 1l-121 163l24 19l112 -126l2 1z" />
    <glyph glyph-name="aacute" unicode="&#xe1;" 
d="M553 311c40 160 3 287 -151 287c-163 0 -261 -139 -298 -287c-36 -149 -5 -280 158 -280c152 0 253 126 291 280zM670 630l-156 -630h-43l32 129h-2c-61 -90 -153 -139 -251 -139c-178 0 -235 132 -188 321c47 193 169 328 349 328c97 0 161 -49 181 -142h2l33 133h43z
M572 895l27 -35l-222 -165l-13 17z" />
    <glyph glyph-name="acircumflex" unicode="&#xe2;" 
d="M553 311c40 160 3 287 -151 287c-163 0 -261 -139 -298 -287c-36 -149 -5 -280 158 -280c152 0 253 126 291 280zM670 630l-156 -630h-43l32 129h-2c-61 -90 -153 -139 -251 -139c-178 0 -235 132 -188 321c47 193 169 328 349 328c97 0 161 -49 181 -142h2l33 133h43z
M477 875l120 -162l-23 -19l-112 125l-3 -1l-171 -124l-14 20l201 163z" />
    <glyph glyph-name="adieresis" unicode="&#xe4;" 
d="M553 311c40 160 3 287 -151 287c-163 0 -261 -139 -298 -287c-36 -149 -5 -280 158 -280c152 0 253 126 291 280zM670 630l-156 -630h-43l32 129h-2c-61 -90 -153 -139 -251 -139c-178 0 -235 132 -188 321c47 193 169 328 349 328c97 0 161 -49 181 -142h2l33 133h43z
M380 751c-6 -27 -24 -43 -48 -43c-25 0 -34 16 -27 43c6 27 24 43 48 43c25 0 34 -16 27 -43zM579 751c-7 -27 -25 -43 -49 -43c-25 0 -34 16 -27 43s24 43 48 43c25 0 34 -16 28 -43z" />
    <glyph glyph-name="agrave" unicode="&#xe0;" 
d="M553 311c40 160 3 287 -151 287c-163 0 -261 -139 -298 -287c-36 -149 -5 -280 158 -280c152 0 253 126 291 280zM670 630l-156 -630h-43l32 129h-2c-61 -90 -153 -139 -251 -139c-178 0 -235 132 -188 321c47 193 169 328 349 328c97 0 161 -49 181 -142h2l33 133h43z
M417 895l117 -183l-21 -17l-141 165z" />
    <glyph glyph-name="aring" unicode="&#xe5;" 
d="M553 311c40 160 3 287 -151 287c-163 0 -261 -139 -298 -287c-36 -149 -5 -280 158 -280c152 0 253 126 291 280zM670 630l-156 -630h-43l32 129h-2c-61 -90 -153 -139 -251 -139c-178 0 -235 132 -188 321c47 193 169 328 349 328c97 0 161 -49 181 -142h2l33 133h43z
M518 791c10 37 -2 68 -45 68s-70 -31 -79 -68s2 -68 45 -68s70 31 79 68zM546 791c-14 -56 -54 -96 -114 -96s-79 39 -65 96s53 96 113 96s80 -39 66 -96z" />
    <glyph glyph-name="atilde" unicode="&#xe3;" 
d="M553 311c40 160 3 287 -151 287c-163 0 -261 -139 -298 -287c-36 -149 -5 -280 158 -280c152 0 253 126 291 280zM670 630l-156 -630h-43l32 129h-2c-61 -90 -153 -139 -251 -139c-178 0 -235 132 -188 321c47 193 169 328 349 328c97 0 161 -49 181 -142h2l33 133h43z
M657 838l18 -25c-32 -57 -84 -95 -146 -95c-70 0 -113 79 -174 79c-43 0 -83 -23 -108 -72l-19 25c29 56 78 87 140 87c71 0 113 -80 174 -80c46 0 90 35 115 81z" />
    <glyph glyph-name="ccedilla" unicode="&#xe7;" horiz-adv-x="553" 
d="M447 95l22 -32c-59 -46 -126 -70 -200 -73h-5l11 -15c19 -26 20 -51 -17 -81l-99 -80l-20 28l73 59c43 35 49 45 28 74l-12 16c-163 12 -210 140 -166 319c47 191 182 330 355 330c84 0 134 -23 171 -64l-38 -32c-29 35 -81 55 -143 54c-159 -1 -266 -139 -303 -288
c-35 -144 -5 -279 161 -279c65 0 126 20 182 64z" />
    <glyph glyph-name="eacute" unicode="&#xe9;" horiz-adv-x="649" 
d="M106 336l464 1l-4 4c26 143 -12 257 -160 257c-147 0 -248 -116 -293 -257zM602 310l-3 -13v0l-503 -1l4 -5c-29 -153 16 -260 170 -260c65 0 129 23 186 65l23 -32c-66 -49 -142 -74 -219 -74c-195 0 -243 140 -198 320c44 181 170 330 354 330c121 0 179 -60 196 -144
c12 -55 7 -120 -9 -184zM566 895l27 -35l-222 -165l-13 17z" />
    <glyph glyph-name="ecircumflex" unicode="&#xea;" horiz-adv-x="649" 
d="M106 336l464 1l-4 4c26 143 -12 257 -160 257c-147 0 -248 -116 -293 -257zM602 310l-3 -13v0l-503 -1l4 -5c-29 -153 16 -260 170 -260c65 0 129 23 186 65l23 -32c-66 -49 -142 -74 -219 -74c-195 0 -243 140 -198 320c44 181 170 330 354 330c200 0 227 -165 186 -330
zM478 875l120 -162l-23 -19l-112 125l-3 -1l-171 -124l-14 20l201 163z" />
    <glyph glyph-name="edieresis" unicode="&#xeb;" horiz-adv-x="649" 
d="M106 336l464 1l-4 4c26 143 -12 257 -160 257c-147 0 -248 -116 -293 -257zM602 310l-3 -13v0l-503 -1l4 -5c-29 -153 16 -260 170 -260c65 0 129 23 186 65l23 -32c-66 -49 -142 -74 -219 -74c-195 0 -243 140 -198 320c44 181 170 330 354 330c200 0 227 -165 186 -330
zM382 751c-7 -27 -24 -43 -49 -43c-24 0 -34 16 -27 43s24 43 49 43c24 0 33 -16 27 -43zM580 751c-7 -27 -24 -43 -48 -43c-25 0 -34 16 -28 43c7 27 24 43 49 43s34 -16 27 -43z" />
    <glyph glyph-name="egrave" unicode="&#xe8;" horiz-adv-x="649" 
d="M106 336l464 1l-4 4c26 143 -12 257 -160 257c-147 0 -248 -116 -293 -257zM602 310l-3 -13v0l-503 -1l4 -5c-29 -153 16 -260 170 -260c65 0 129 23 186 65l23 -32c-66 -49 -142 -74 -219 -74c-195 0 -243 140 -198 320c44 181 170 330 354 330c200 0 227 -165 186 -330
zM405 895l118 -183l-22 -17l-140 165z" />
    <glyph glyph-name="iacute" unicode="&#xed;" horiz-adv-x="221" 
d="M218 629l-156 -629h-42l155 629h43zM340 895l27 -35l-222 -165l-13 17z" />
    <glyph glyph-name="icircumflex" unicode="&#xee;" horiz-adv-x="221" 
d="M218 629l-156 -629h-42l155 629h43zM261 875l120 -162l-24 -19l-111 125l-3 -1l-171 -124l-15 20l201 163z" />
    <glyph glyph-name="idieresis" unicode="&#xef;" horiz-adv-x="221" 
d="M218 629l-156 -629h-42l155 629h43zM167 751c-7 -27 -24 -43 -49 -43c-24 0 -33 16 -27 43c7 27 24 43 49 43c24 0 34 -16 27 -43zM365 751c-6 -27 -24 -43 -48 -43c-25 0 -34 16 -27 43c6 27 24 43 48 43c25 0 34 -16 27 -43z" />
    <glyph glyph-name="igrave" unicode="&#xec;" horiz-adv-x="221" 
d="M218 629l-156 -629h-42l155 629h43zM188 895l118 -183l-22 -17l-140 165z" />
    <glyph glyph-name="ntilde" unicode="&#xf1;" 
d="M620 409l-101 -409h-43l96 387c29 119 14 211 -146 211c-118 0 -234 -73 -270 -220l-94 -378h-42l155 630h43l-29 -115h2c58 79 156 125 250 125c164 0 214 -91 179 -231zM674 838l18 -25c-32 -57 -84 -95 -146 -95c-70 0 -113 79 -175 79c-42 0 -82 -23 -108 -72l-18 25
c29 56 78 87 140 87c71 0 113 -80 174 -80c46 0 90 35 115 81z" />
    <glyph glyph-name="oacute" unicode="&#xf3;" horiz-adv-x="650" 
d="M561 315c37 152 4 283 -158 283c-164 0 -260 -131 -297 -283c-37 -151 -5 -283 157 -283c163 0 260 131 298 283zM604 315c-48 -192 -173 -325 -351 -325c-180 0 -238 131 -190 325c48 193 171 325 350 325c180 0 239 -130 191 -325zM561 895l27 -35l-222 -165l-13 17z
" />
    <glyph glyph-name="ocircumflex" unicode="&#xf4;" horiz-adv-x="650" 
d="M561 315c37 152 4 283 -158 283c-164 0 -260 -131 -297 -283c-37 -151 -5 -283 157 -283c163 0 260 131 298 283zM604 315c-48 -192 -173 -325 -351 -325c-180 0 -238 131 -190 325c48 193 171 325 350 325c180 0 239 -130 191 -325zM472 875l120 -162l-23 -19l-112 125
l-3 -1l-171 -124l-14 20l201 163z" />
    <glyph glyph-name="odieresis" unicode="&#xf6;" horiz-adv-x="650" 
d="M561 315c37 152 4 283 -158 283c-164 0 -260 -131 -297 -283c-37 -151 -5 -283 157 -283c163 0 260 131 298 283zM604 315c-48 -192 -173 -325 -351 -325c-180 0 -238 131 -190 325c48 193 171 325 350 325c180 0 239 -130 191 -325zM379 751c-7 -27 -24 -43 -49 -43
c-24 0 -33 16 -27 43c7 27 24 43 49 43c24 0 33 -16 27 -43zM577 751c-7 -27 -24 -43 -48 -43c-25 0 -34 16 -28 43c7 27 24 43 49 43s34 -16 27 -43z" />
    <glyph glyph-name="ograve" unicode="&#xf2;" horiz-adv-x="650" 
d="M561 315c37 152 4 283 -158 283c-164 0 -260 -131 -297 -283c-37 -151 -5 -283 157 -283c163 0 260 131 298 283zM604 315c-48 -192 -173 -325 -351 -325c-180 0 -238 131 -190 325c48 193 171 325 350 325c180 0 239 -130 191 -325zM397 895l117 -183l-22 -17l-140 165z
" />
    <glyph glyph-name="otilde" unicode="&#xf5;" horiz-adv-x="650" 
d="M561 315c37 152 4 283 -158 283c-164 0 -260 -131 -297 -283c-37 -151 -5 -283 157 -283c163 0 260 131 298 283zM604 315c-48 -192 -173 -325 -351 -325c-180 0 -238 131 -190 325c48 193 171 325 350 325c180 0 239 -130 191 -325zM653 838l19 -25
c-32 -57 -84 -95 -146 -95c-70 0 -113 79 -175 79c-42 0 -82 -23 -108 -72l-18 25c29 56 78 87 140 87c71 0 112 -80 174 -80c45 0 89 35 114 81z" />
    <glyph glyph-name="scaron" unicode="&#x161;" horiz-adv-x="572" 
d="M487 159c-20 -82 -98 -170 -268 -170c-87 0 -164 29 -213 94l41 33c48 -58 105 -85 180 -85c113 0 197 48 216 126c15 60 -17 101 -97 126l-102 34c-102 34 -154 76 -133 161c20 80 103 162 261 162c84 0 148 -30 189 -86l-41 -33c-33 48 -84 77 -158 77
c-112 0 -190 -50 -207 -118c-16 -65 36 -96 125 -125c13 -4 79 -27 92 -31c108 -34 132 -96 115 -165zM573 877l15 -20l-201 -163l-3 1l-120 162l24 20l111 -126l3 1z" />
    <glyph glyph-name="uacute" unicode="&#xfa;" horiz-adv-x="665" 
d="M662 630l-156 -630h-42l28 116h-2c-57 -76 -145 -126 -246 -126c-159 0 -210 87 -172 242l99 398h42l-97 -393c-27 -108 -17 -205 144 -205c115 0 230 73 266 220l93 378h43zM562 895l27 -35l-221 -165l-14 17z" />
    <glyph glyph-name="ucircumflex" unicode="&#xfb;" horiz-adv-x="665" 
d="M662 630l-156 -630h-42l28 116h-2c-57 -76 -145 -126 -246 -126c-159 0 -210 87 -172 242l99 398h42l-97 -393c-27 -108 -17 -205 144 -205c115 0 230 73 266 220l93 378h43zM478 875l120 -162l-23 -19l-112 125l-3 -1l-171 -124l-14 20l201 163z" />
    <glyph glyph-name="udieresis" unicode="&#xfc;" horiz-adv-x="665" 
d="M662 630l-156 -630h-42l28 116h-2c-57 -76 -145 -126 -246 -126c-159 0 -210 87 -172 242l99 398h42l-97 -393c-27 -108 -17 -205 144 -205c115 0 230 73 266 220l93 378h43zM379 751c-7 -27 -24 -43 -49 -43c-24 0 -33 16 -27 43c7 27 24 43 49 43c24 0 33 -16 27 -43z
M577 751c-7 -27 -24 -43 -48 -43c-25 0 -34 16 -28 43c7 27 24 43 49 43s34 -16 27 -43z" />
    <glyph glyph-name="ugrave" unicode="&#xf9;" horiz-adv-x="665" 
d="M662 630l-156 -630h-42l28 116h-2c-57 -76 -145 -126 -246 -126c-159 0 -210 87 -172 242l99 398h42l-97 -393c-27 -108 -17 -205 144 -205c115 0 230 73 266 220l93 378h43zM403 895l118 -183l-22 -17l-140 165z" />
    <glyph glyph-name="yacute" unicode="&#xfd;" horiz-adv-x="584" 
d="M607 630h49l-443 -705c-61 -97 -128 -140 -198 -140c-35 0 -62 5 -85 17l10 40c23 -10 52 -16 77 -16c59 0 112 33 171 127c0 0 22 36 26 43l-113 634h49l85 -502l9 -86h2l50 86zM519 896l27 -36l-222 -165l-13 17z" />
    <glyph glyph-name="ydieresis" unicode="&#xff;" horiz-adv-x="584" 
d="M607 630h49l-443 -705c-61 -97 -128 -140 -198 -140c-35 0 -62 5 -85 17l10 40c23 -10 52 -16 77 -16c59 0 112 33 171 127c0 0 22 36 26 43l-113 634h49l85 -502l9 -86h2l50 86zM347 751c-7 -27 -25 -43 -49 -43c-25 0 -34 16 -27 43s24 43 48 43c25 0 34 -16 28 -43z
M545 751c-7 -27 -24 -43 -49 -43c-24 0 -33 16 -27 43c7 27 24 43 49 43c24 0 34 -16 27 -43z" />
    <glyph glyph-name="zcaron" unicode="&#x17e;" horiz-adv-x="610" 
d="M491 40l-10 -40h-491l8 31l507 502l66 54v2h-428l10 40h480l-7 -30l-508 -502l-66 -55l-1 -2h440zM594 877l15 -20l-201 -163l-3 1l-120 162l24 20l111 -126l3 1z" />
    <glyph glyph-name="onethird" unicode="&#x2153;" horiz-adv-x="713" 
d="M539 820h41l-486 -830h-41zM295 810l-113 -454h-38l89 363l15 41h-2l-33 -34l-59 -49l-20 27l127 106h34zM620 122c-15 -60 -78 -132 -188 -132c-59 0 -99 20 -128 63l35 30c22 -36 52 -56 102 -56c81 0 129 50 139 92c12 48 -16 86 -80 93c-12 1 -41 2 -57 2l9 37
c17 1 46 1 55 3c71 9 110 49 119 85c10 41 -11 77 -88 77c-48 0 -86 -17 -126 -52l-20 30c49 42 99 60 156 60c105 0 130 -61 116 -118c-11 -44 -56 -86 -111 -101l-1 -2c52 -11 81 -57 68 -111z" />
    <glyph glyph-name="twothirds" unicode="&#x2154;" horiz-adv-x="856" 
d="M429 697c-13 -54 -50 -93 -130 -123l-70 -26c-54 -20 -88 -63 -103 -133l-3 -13l-2 -2h234l-9 -39h-272l16 64c20 79 61 133 132 160l64 24c65 25 95 49 104 88c10 40 -4 79 -74 79c-41 0 -77 -16 -117 -55l-21 31c50 45 97 63 148 63c95 0 118 -59 103 -118zM673 820h41
l-486 -830h-41zM763 122c-15 -60 -78 -132 -188 -132c-59 0 -99 20 -128 63l35 30c22 -36 52 -56 102 -56c81 0 129 50 139 92c12 48 -16 86 -80 93c-12 1 -41 2 -57 2l9 37c17 1 46 1 55 3c71 9 110 49 119 85c10 41 -11 77 -88 77c-48 0 -86 -17 -126 -52l-20 30
c49 42 99 60 156 60c105 0 130 -61 116 -118c-11 -44 -56 -86 -111 -101l-1 -2c52 -11 81 -57 68 -111z" />
    <glyph glyph-name="HT" unicode="&#x9;" horiz-adv-x="990" 
 />
    <glyph glyph-name="LF" unicode="&#xa;" horiz-adv-x="990" 
 />
    <glyph glyph-name="CR" unicode="&#xd;" horiz-adv-x="990" 
 />
    <glyph glyph-name="DLE" horiz-adv-x="990" 
 />
    <glyph glyph-name="DC1" horiz-adv-x="990" 
 />
    <glyph glyph-name="DC2" horiz-adv-x="990" 
 />
    <glyph glyph-name="DC3" horiz-adv-x="990" 
 />
    <glyph glyph-name="DC4" horiz-adv-x="990" 
 />
    <glyph glyph-name="RS" horiz-adv-x="990" 
 />
    <glyph glyph-name="US" horiz-adv-x="990" 
 />
    <glyph glyph-name="DEL" horiz-adv-x="990" 
 />
    <glyph glyph-name="notequal" unicode="&#x2260;" horiz-adv-x="668" 
d="M584 302l-10 -44h-302l1 -4l-100 -134h-43l101 134l7 4h-154l10 44h178l-1 5l148 196l8 5h-282l11 44h304l-1 5l100 132h42l-101 -132l-8 -5h154l-11 -44h-176l1 -5l-146 -196l-8 -5h278z" />
    <glyph glyph-name="infinity" unicode="&#x221e;" horiz-adv-x="829" 
d="M289 560c-76 0 -138 -76 -157 -152c-18 -75 8 -152 83 -152c77 0 165 97 210 153c-35 85 -71 151 -136 151zM760 408c19 77 -8 152 -83 152c-59 0 -108 -43 -154 -94c-13 -14 -30 -33 -50 -57c3 -9 12 -34 19 -50c18 -44 51 -103 111 -103c76 0 138 76 157 152zM801 409
c-27 -112 -108 -194 -203 -194c-72 0 -111 52 -157 162c-96 -107 -169 -162 -241 -162c-96 0 -137 80 -109 194c27 111 109 192 204 192c73 0 111 -51 158 -163c99 116 162 163 239 163c96 0 137 -78 109 -192z" />
    <glyph glyph-name="lessequal" unicode="&#x2264;" horiz-adv-x="444" 
d="M312 106l-11 -42h-300l10 42h301zM101 457l338 291l23 -31l-234 -199l-73 -56l26 -29l32 -45l123 -179l-39 -32z" />
    <glyph glyph-name="greaterequal" unicode="&#x2265;" horiz-adv-x="444" 
d="M347 106l-11 -42h-300l10 42h301zM236 748l195 -291l-335 -280l-24 32l234 197l72 56l-25 29l-33 46l-122 180z" />
    <glyph glyph-name="partialdiff" unicode="&#x2202;" horiz-adv-x="600" 
d="M494 281c34 138 4 252 -135 252c-147 0 -231 -125 -262 -252c-31 -125 -8 -252 138 -252s228 127 259 252zM566 362c-59 -238 -167 -370 -341 -370c-160 0 -212 119 -170 289c41 170 152 289 312 289c104 0 153 -54 169 -132h2c56 235 23 365 -113 365
c-55 0 -120 -20 -177 -60l-22 32c68 47 137 70 210 70c196 0 201 -195 130 -483z" />
    <glyph glyph-name="summation" unicode="&#x2211;" horiz-adv-x="684" 
d="M518 -167l-10 -43h-575l10 40l496 488l1 7l-265 445l10 39h562l-10 -42l-514 1l51 -69l225 -378l-426 -419l-79 -68z" />
    <glyph glyph-name="product" unicode="&#x220f;" horiz-adv-x="718" 
d="M794 809l-10 -42h-97l2 -5l-241 -973h-44l241 973l4 5h-340l2 -5l-241 -973h-44l241 973l4 5h-97l11 42h609z" />
    <glyph glyph-name="pi" unicode="&#x3c0;" horiz-adv-x="621" 
d="M687 629l-10 -42h-88l3 -5l-144 -582h-43l144 582l5 5h-336l3 -5l-144 -582h-43l144 582l5 5h-88l11 42h581z" />
    <glyph glyph-name="integral" unicode="&#x222b;" horiz-adv-x="408" 
d="M550 920l-17 -28c-13 7 -29 10 -44 10c-71 0 -112 -39 -135 -106c-3 -8 -16 -56 -42 -159l-138 -558c-19 -80 -33 -126 -39 -144c-27 -74 -79 -127 -183 -127c-18 0 -35 4 -52 7l15 29c12 -4 29 -7 41 -7c73 0 119 40 145 109c4 12 16 54 29 106l155 628
c10 44 16 64 24 93c31 109 84 160 184 160c21 0 40 -5 57 -13z" />
    <glyph glyph-name="Omega" unicode="&#x2126;" horiz-adv-x="830" 
d="M710 43l-11 -43h-259l10 41c159 64 268 211 307 370c47 189 -38 362 -219 362c-185 0 -355 -169 -403 -363c-37 -153 -1 -310 129 -370l-10 -40h-261l11 43h186v2c-102 77 -135 211 -96 367c52 213 254 407 455 407c200 0 303 -194 250 -406
c-38 -157 -138 -291 -273 -368l-1 -2h185z" />
    <glyph glyph-name="radical" unicode="&#x221a;" horiz-adv-x="550" 
d="M667 919h40l-507 -1010h-48l-23 394l7 7h-129l10 40h152l21 -372h3z" />
    <glyph glyph-name="approxequal" unicode="&#x2248;" horiz-adv-x="646" 
d="M560 359l21 -27c-38 -68 -101 -104 -166 -104c-31 0 -58 14 -86 38c-18 15 -35 30 -52 41c-16 11 -34 18 -54 18c-44 0 -96 -35 -128 -89l-21 28c32 56 97 104 165 104c32 0 64 -19 93 -44c15 -14 31 -27 47 -37c15 -10 33 -17 52 -17c46 0 93 27 129 89zM613 572l21 -27
c-38 -68 -102 -104 -166 -104c-31 0 -58 14 -86 38c-18 15 -36 30 -52 41s-34 18 -54 18c-45 0 -96 -35 -129 -89l-20 28c31 56 97 104 164 104c33 0 64 -19 93 -44c16 -14 32 -27 47 -37c16 -10 33 -17 52 -17c47 0 94 27 130 89z" />
    <glyph glyph-name="Delta" unicode="&#x2206;" horiz-adv-x="781" 
d="M36 43h591l-5 7l-106 643l-7 68h-1l-42 -68l-421 -643zM538 810l134 -810h-702l531 810h37z" />
    <glyph glyph-name="uni00A0" unicode="&#xa0;" horiz-adv-x="307" 
 />
    <glyph glyph-name="lozenge" unicode="&#x25ca;" horiz-adv-x="743" 
d="M317 59l352 346l-181 347l-352 -347zM505 820l214 -415l-419 -415l-215 415z" />
    <glyph glyph-name="Euro" unicode="&#x20ac;" horiz-adv-x="697" 
d="M735 717l-40 -34c-30 66 -85 94 -167 94c-144 0 -241 -124 -295 -257c-1 -2 -6 -8 -6 -10h317l-12 -45h-322c-1 -3 0 -9 -1 -11c-6 -18 -11 -36 -15 -54c-4 -15 -7 -30 -10 -45c-1 -2 -4 -8 -4 -10h323l-11 -45h-319c0 -2 1 -8 1 -10c-14 -135 21 -257 169 -257
c82 0 151 28 214 93l23 -33c-71 -71 -158 -103 -247 -103c-173 0 -226 135 -205 306l-1 4h-83l12 45h81v11c3 14 6 29 10 44c5 18 10 37 16 55c0 2 4 8 5 10h-83l11 45h88c1 2 0 7 1 9c68 165 186 301 353 301c92 0 162 -31 197 -103z" />
    <glyph glyph-name="apple" unicode="&#xf8ff;" horiz-adv-x="827" 
d="M25 407l283 -407h-308v810h306zM827 810v-810h-181l-282 407l280 403h183z" />
    <glyph glyph-name="indianrupeesign" unicode="&#x20b9;" horiz-adv-x="659" 
d="M228 810h492l-37 -38h-204v-1c45 -28 68 -78 67 -144h126l-35 -38h-97c-29 -126 -134 -202 -242 -222v-2c55 -19 86 -60 101 -131l51 -234h-49l-46 212c-18 87 -60 142 -197 144h-11l11 43h71c126 0 236 69 265 190h-349l37 38h317c-4 102 -80 145 -164 145h-144z" />
    <glyph glyph-name="careof" unicode="&#x2105;" horiz-adv-x="923" 
d="M394 457l23 -33c-51 -42 -101 -59 -155 -59c-126 0 -164 94 -131 224c32 133 125 231 244 231c57 0 96 -17 122 -52l-39 -33c-22 27 -53 41 -93 41c-99 -1 -167 -90 -191 -187c-23 -94 -4 -180 99 -180c42 0 80 14 121 48zM702 820h43l-486 -830h-43zM808 214
c24 99 3 183 -98 183c-102 0 -164 -84 -188 -183c-25 -99 -3 -183 98 -183s164 84 188 183zM852 214c-33 -133 -120 -228 -244 -228s-163 94 -130 228s119 227 243 227s164 -92 131 -227z" />
    <glyph glyph-name="numero" unicode="&#x2116;" horiz-adv-x="1319" 
d="M803 810l-200 -810h-43l-279 644l-33 91h-2l-182 -735h-44l200 810h43l273 -630l39 -106h2l182 736h44zM1135 38l-10 -38h-404l9 38h405zM1222 420c32 132 12 248 -135 248c-148 0 -224 -116 -256 -248c-33 -130 -13 -248 134 -248s225 117 257 248zM1264 420
c-42 -172 -148 -289 -309 -289c-163 0 -209 116 -166 289s146 290 309 290s209 -115 166 -290z" />
    <glyph glyph-name="Cacute" unicode="&#x106;" horiz-adv-x="718" 
d="M796 716l-43 -35c-36 60 -104 96 -207 96c-228 0 -366 -174 -416 -378c-50 -201 1 -366 231 -366c102 0 189 36 254 95l25 -34c-77 -65 -174 -104 -290 -104c-243 0 -328 160 -266 410s235 420 472 420c118 0 195 -39 240 -104zM688 1075l27 -36l-222 -165l-13 17z" />
    <glyph glyph-name="cacute" unicode="&#x107;" horiz-adv-x="553" 
d="M447 95l22 -32c-63 -49 -134 -73 -214 -73c-185 0 -240 132 -193 320c47 191 182 330 355 330c84 0 134 -23 171 -64l-38 -32c-29 35 -81 55 -143 54c-159 -1 -266 -139 -303 -288c-35 -144 -5 -279 161 -279c65 0 126 20 182 64zM547 900l28 -37l-227 -168l-13 17z" />
    <glyph glyph-name="Lacute" unicode="&#x139;" horiz-adv-x="597" 
d="M523 43l-10 -43h-493l200 810h44l-188 -762l-6 -5h453zM441 1075l27 -36l-222 -165l-13 17z" />
    <glyph glyph-name="lacute" unicode="&#x13a;" horiz-adv-x="220" 
d="M269 840l-207 -840h-42l207 840h42zM386 1080l27 -37l-226 -168l-13 17z" />
    <glyph glyph-name="Nacute" unicode="&#x143;" horiz-adv-x="787" 
d="M829 810l-200 -810h-42l-298 634l-40 104h-2l-183 -738h-44l200 810h42l298 -635l40 -103h2l182 738h45zM672 1075l26 -36l-221 -165l-14 17z" />
    <glyph glyph-name="nacute" unicode="&#x144;" 
d="M620 409l-101 -409h-43l96 387c29 119 14 211 -146 211c-118 0 -234 -73 -270 -220l-94 -378h-42l155 630h43l-29 -115h2c58 79 156 125 250 125c164 0 214 -91 179 -231zM573 899l28 -36l-227 -168l-13 17z" />
    <glyph glyph-name="Racute" unicode="&#x154;" horiz-adv-x="720" 
d="M687 582c33 132 -41 185 -151 185h-287l3 -6l-88 -357l-6 -6h276c145 0 230 89 253 184zM595 231l51 -231h-53l-44 212c-20 98 -74 143 -188 143h-213l3 -5l-87 -350h-44l200 810h326c138 0 226 -73 188 -228c-26 -102 -105 -190 -234 -216v-2c56 -22 83 -78 95 -133z
M652 1075l27 -36l-222 -165l-13 17z" />
    <glyph glyph-name="racute" unicode="&#x155;" horiz-adv-x="372" 
d="M440 634l-12 -49h-10c-104 1 -231 -79 -279 -275l-77 -310h-42l155 629h43l-39 -158h2c55 104 156 163 253 163h6zM441 900l27 -37l-226 -168l-13 17z" />
    <glyph glyph-name="Sacute" unicode="&#x15a;" horiz-adv-x="701" 
d="M632 204c-24 -101 -123 -214 -347 -214c-117 0 -216 40 -278 116l45 36c59 -71 141 -109 241 -109c168 0 269 74 292 168c18 74 -22 136 -135 171c-17 5 -120 38 -137 43c-135 43 -199 95 -173 201c25 102 133 204 343 204c107 0 190 -38 242 -105l-43 -35
c-43 59 -117 97 -209 97c-159 0 -263 -66 -286 -159c-21 -86 47 -124 165 -162c17 -5 108 -35 126 -40c140 -45 177 -122 154 -212zM621 1075l27 -36l-222 -164l-13 17z" />
    <glyph glyph-name="sacute" unicode="&#x15b;" horiz-adv-x="572" 
d="M487 159c-20 -82 -98 -170 -268 -170c-87 0 -164 29 -213 94l41 33c48 -58 105 -85 180 -85c113 0 197 48 216 126c16 64 -16 99 -97 125c-12 4 -90 31 -102 35c-102 34 -154 76 -133 161c20 80 103 162 261 162c84 0 148 -30 189 -86l-41 -33c-33 48 -84 77 -158 77
c-110 0 -190 -50 -207 -118c-16 -65 35 -96 125 -125c12 -4 79 -28 92 -33c109 -35 133 -92 115 -163zM508 899l27 -36l-226 -168l-14 17z" />
    <glyph glyph-name="Zacute" unicode="&#x179;" horiz-adv-x="732" 
d="M614 43l-11 -43h-613l9 37l662 664l73 64l1 2h-546l11 43h598l-10 -41l-655 -655l-78 -69v-2h559zM652 1075l27 -36l-222 -165l-13 17z" />
    <glyph glyph-name="zacute" unicode="&#x17a;" horiz-adv-x="610" 
d="M491 40l-10 -40h-491l9 35l512 502l61 50l1 2h-430l10 40h480l-8 -32l-515 -504l-60 -51l-1 -2h442zM545 899l27 -36l-226 -168l-13 17z" />
    <glyph glyph-name="Wacute" unicode="&#x1e82;" horiz-adv-x="973" 
d="M1030 810h49l-418 -810h-54l-14 634l4 90h-2l-41 -90l-327 -634h-54l-18 810h50l12 -674l-5 -86h1l37 86l349 674h36l15 -677l-5 -83h2l36 84zM752 1075l27 -36l-222 -164l-13 17z" />
    <glyph glyph-name="wacute" unicode="&#x1e83;" horiz-adv-x="820" 
d="M845 630h46l-339 -630h-46l-27 500l4 72h-2l-32 -72l-274 -500h-47l-27 630h46l21 -510l-3 -68h3l30 68l278 510h40l27 -510l-3 -68h2l30 68zM630 899l28 -36l-227 -168l-13 17z" />
    <glyph glyph-name="AEacute" unicode="&#x1fc;" horiz-adv-x="976" 
d="M619 766l-48 1l-67 -4l1 -2l-333 -494l-8 -6h332l-4 5l124 496zM848 43l-11 -43h-409l53 214l6 4h-351l1 -5l-140 -213h-51l540 810h551l-10 -43h-368l2 -5l-82 -331l-5 -5h329l-11 -42h-329l3 -5l-81 -330l-6 -6h369zM786 1075l27 -36l-221 -164l-14 17z" />
    <glyph glyph-name="aeacute" unicode="&#x1fd;" horiz-adv-x="1132" 
d="M553 311c40 160 3 287 -151 287c-163 0 -261 -139 -298 -287c-36 -149 -5 -280 158 -280c152 0 253 126 291 280zM589 336l463 1l-4 4c26 143 -12 257 -160 257c-147 0 -248 -116 -293 -257zM670 630l-32 -129h2c59 79 153 139 258 139c200 0 227 -165 186 -330l-3 -13v0
l-503 -1l4 -5c-29 -153 16 -260 170 -260c65 0 130 23 187 65l22 -32c-66 -49 -142 -74 -219 -74c-110 0 -170 48 -196 130h-2l-30 -120h-43l32 129h-2c-61 -90 -153 -139 -251 -139c-178 0 -235 132 -188 321c47 193 169 328 349 328c97 0 161 -49 181 -142h2l33 133h43z
M797 899l28 -36l-227 -168l-13 17z" />
    <glyph glyph-name="Oslashacute" unicode="&#x1fe;" horiz-adv-x="811" 
d="M689 718l5 3c-38 36 -92 56 -166 56c-220 0 -348 -178 -398 -377c-32 -131 -24 -249 50 -315l1 7zM739 400c30 120 28 236 -32 308l-2 -7l-506 -624l-6 -2c37 -27 87 -42 151 -42c219 0 346 169 395 367zM786 400c-62 -251 -226 -410 -453 -410c-70 0 -130 16 -172 45
l-2 -7l-70 -86l-19 13l71 87l6 4c-83 68 -103 192 -63 354c62 251 226 420 454 420c80 0 143 -20 188 -60l2 6l65 80l18 -14l-66 -82l-6 -2c71 -73 84 -196 47 -348zM679 1075l26 -36l-221 -164l-14 17z" />
    <glyph glyph-name="oslashacute" unicode="&#x1ff;" horiz-adv-x="650" 
d="M518 554l6 4c-27 25 -68 40 -121 40c-164 0 -260 -131 -297 -283c-23 -94 -20 -180 27 -234l6 9zM561 315c22 90 20 174 -22 227l-4 -7l-379 -464l-6 -6c27 -21 65 -33 113 -33c163 0 260 131 298 283zM604 315c-48 -192 -173 -325 -351 -325c-56 0 -100 12 -135 37
l-3 -7l-62 -75l-21 15l64 78l5 4c-57 56 -68 153 -38 273c48 193 171 325 350 325c60 0 106 -15 142 -43l2 6l63 76l21 -15l-64 -78l-6 -5c52 -56 61 -150 33 -266zM557 899l28 -36l-227 -168l-13 17z" />
    <glyph glyph-name="Aringacute" unicode="&#x1fa;" horiz-adv-x="757" 
d="M168 261h412l-5 6l-73 419l-5 71h-1l-41 -71l-281 -420zM588 877c9 37 -3 68 -45 68c-44 0 -70 -31 -80 -68c-9 -36 3 -68 46 -68s70 31 79 68zM533 786l140 -786h-50l-39 214l4 4h-450l1 -5l-143 -213h-50l527 786c-37 11 -48 45 -37 91c14 57 53 96 113 96
c61 0 80 -39 66 -96c-11 -46 -39 -80 -82 -91zM685 1202l27 -36l-222 -164l-13 17z" />
    <glyph glyph-name="aringacute" unicode="&#x1fb;" horiz-adv-x="640" 
d="M553 311c40 160 3 287 -151 287c-163 0 -261 -139 -298 -287c-36 -149 -5 -280 158 -280c152 0 253 126 291 280zM670 630l-156 -630h-43l32 129h-2c-61 -90 -153 -139 -251 -139c-178 0 -235 132 -188 321c47 193 169 328 349 328c97 0 161 -49 181 -142h2l33 133h43z
M518 791c10 37 -2 68 -45 68s-70 -31 -79 -68s2 -68 45 -68s70 31 79 68zM546 791c-14 -56 -54 -96 -114 -96s-79 39 -65 96s53 96 113 96s80 -39 66 -96zM613 1129l27 -36l-226 -168l-13 17z" />
    <glyph glyph-name="Ccaron" unicode="&#x10c;" horiz-adv-x="718" 
d="M796 716l-43 -35c-36 60 -104 96 -207 96c-228 0 -366 -174 -416 -378c-50 -201 1 -366 231 -366c102 0 189 36 254 95l25 -34c-77 -65 -174 -104 -290 -104c-243 0 -328 160 -266 410s235 420 472 420c118 0 195 -39 240 -104zM751 1057l14 -19l-201 -163l-2 1l-120 162
l23 19l112 -125l3 1z" />
    <glyph glyph-name="ccaron" unicode="&#x10d;" horiz-adv-x="553" 
d="M447 95l22 -32c-63 -49 -134 -73 -214 -73c-185 0 -240 132 -193 320c47 191 182 330 355 330c84 0 134 -23 171 -64l-38 -32c-29 35 -81 55 -143 54c-159 -1 -266 -139 -303 -288c-35 -144 -5 -279 161 -279c65 0 126 20 182 64zM612 878l14 -20l-201 -163l-2 1
l-121 162l24 20l112 -126l3 1z" />
    <glyph glyph-name="Ecaron" unicode="&#x11a;" horiz-adv-x="698" 
d="M570 43l-11 -43h-539l200 810h539l-10 -43h-500l3 -5l-81 -330l-6 -5h452l-10 -43h-453l4 -5l-82 -331l-6 -5h500zM704 1057l14 -19l-201 -163l-2 1l-120 162l23 19l112 -125l3 1z" />
    <glyph glyph-name="ecaron" unicode="&#x11b;" horiz-adv-x="649" 
d="M106 336l464 1l-4 4c26 143 -12 257 -160 257c-147 0 -248 -116 -293 -257zM602 310l-3 -13v0l-503 -1l4 -5c-29 -153 16 -260 170 -260c65 0 129 23 186 65l23 -32c-66 -49 -142 -74 -219 -74c-195 0 -243 140 -198 320c44 181 170 330 354 330c200 0 227 -165 186 -330
zM614 878l14 -20l-201 -163l-2 1l-120 162l23 20l112 -126l3 1z" />
    <glyph glyph-name="Ncaron" unicode="&#x147;" horiz-adv-x="787" 
d="M829 810l-200 -810h-42l-298 634l-40 104h-2l-183 -738h-44l200 810h42l298 -635l40 -103h2l182 738h45zM731 1057l14 -19l-201 -163l-2 1l-120 162l23 19l112 -125l3 1z" />
    <glyph glyph-name="ncaron" unicode="&#x148;" 
d="M620 409l-101 -409h-43l96 387c29 119 14 211 -146 211c-118 0 -234 -73 -270 -220l-94 -378h-42l155 630h43l-29 -115h2c58 79 156 125 250 125c164 0 214 -91 179 -231zM634 878l14 -20l-201 -163l-2 1l-120 162l23 20l112 -126l3 1z" />
    <glyph glyph-name="Rcaron" unicode="&#x158;" horiz-adv-x="720" 
d="M687 582c33 132 -41 185 -151 185h-287l3 -6l-88 -357l-6 -6h276c145 0 230 89 253 184zM595 231l51 -231h-53l-44 212c-20 98 -74 143 -188 143h-213l3 -5l-87 -350h-44l200 810h326c138 0 226 -73 188 -228c-26 -102 -105 -190 -234 -216v-2c56 -22 83 -78 95 -133z
M700 1058l15 -20l-202 -163l-2 1l-120 163l24 19l111 -126l3 1z" />
    <glyph glyph-name="rcaron" unicode="&#x159;" horiz-adv-x="372" 
d="M440 634l-12 -49h-10c-104 1 -231 -79 -279 -275l-77 -310h-42l155 629h43l-39 -158h2c55 104 156 163 253 163h6zM507 878l15 -20l-201 -163l-3 1l-120 162l24 20l112 -126l2 1z" />
    <glyph glyph-name="Tcaron" unicode="&#x164;" horiz-adv-x="658" 
d="M769 810l-10 -43h-291l2 -5l-188 -762h-44l188 762l4 5h-290l10 43h619zM663 1057l15 -19l-201 -163l-3 1l-120 162l24 19l112 -125l2 1z" />
    <glyph glyph-name="tcaron" unicode="&#x165;" horiz-adv-x="405" 
d="M314 72l22 -31c-53 -34 -103 -51 -156 -51c-89 0 -132 60 -102 181l102 414l4 5h-78l10 40h78l-2 5l29 115l48 23l-34 -138l-4 -5h196l-10 -40h-196l2 -5l-102 -410c-24 -98 6 -144 73 -144c41 0 81 14 120 41zM481 852c-3 -11 -8 -21 -14 -29l-75 -101l-25 15l45 62
l11 7c-29 2 -37 20 -30 46c7 29 27 47 55 47c29 0 40 -18 33 -47z" />
    <glyph glyph-name="Dcaron" unicode="&#x10e;" horiz-adv-x="768" 
d="M480 767h-231l3 -5l-176 -715l-6 -4h237c261 0 346 181 391 362c44 179 49 362 -218 362zM744 405c-49 -201 -151 -405 -438 -405h-286l200 810h282c279 0 296 -189 242 -405zM701 1057l14 -19l-201 -163l-2 1l-121 162l24 19l112 -125l3 1z" />
    <glyph glyph-name="dcaron" unicode="&#x10f;" horiz-adv-x="718" 
d="M553 311c40 160 3 287 -151 287c-163 0 -261 -139 -298 -287c-36 -148 -5 -280 158 -280c152 0 253 126 291 280zM721 839l-207 -838h-42l31 128h-2c-61 -90 -153 -139 -251 -139c-178 0 -235 132 -188 321c47 193 169 328 349 328c97 0 161 -49 181 -142h2l85 342h42z
M875 854c-3 -11 -8 -21 -15 -29l-75 -101l-25 15l45 62l11 7c-29 2 -36 20 -30 46c7 29 28 47 56 47c29 0 40 -18 33 -47z" />
    <glyph glyph-name="Gcommacedilla" unicode="&#x122;" horiz-adv-x="831" 
d="M380 -89c-3 -10 -8 -20 -14 -28l-70 -94l-23 13l42 59l11 7c-28 1 -35 19 -29 43c7 26 26 44 52 44c27 0 37 -17 31 -44zM778 428l-105 -428h-37l49 199h-2c-60 -104 -187 -209 -334 -209c-238 0 -329 153 -266 406c64 262 240 424 475 424c103 0 197 -29 250 -102
l-43 -35c-44 68 -132 94 -217 94c-219 0 -362 -153 -418 -381c-55 -220 14 -363 230 -363c168 0 320 143 368 347l6 5h-268l11 43h301z" />
    <glyph glyph-name="gcommacedilla" unicode="&#x123;" 
d="M563 349c33 136 -13 250 -162 250c-153 0 -253 -110 -287 -250c-36 -144 14 -246 165 -246c153 0 251 113 284 246zM627 630h42l-144 -584c-41 -168 -144 -261 -322 -261c-83 0 -151 23 -201 68l39 33c40 -38 106 -61 171 -61c145 0 236 81 271 222l36 145h-2
c-59 -77 -146 -130 -250 -130c-178 0 -238 117 -196 287c41 164 161 291 339 291c105 0 170 -58 184 -134h2zM484 735c-7 -27 -26 -45 -52 -45c-27 0 -37 18 -30 45c2 10 7 19 13 27l70 95l23 -14l-42 -58l-10 -7c27 -2 34 -19 28 -43z" />
    <glyph glyph-name="Kcommacedilla" unicode="&#x136;" horiz-adv-x="640" 
d="M311 -89c-2 -10 -7 -20 -13 -28l-70 -94l-24 13l43 59l10 7c-27 1 -34 19 -28 43c6 26 26 44 52 44c27 0 37 -17 30 -44zM264 810l-200 -810h-44l200 810h44zM237 409l333 -409h-65l-330 409l519 401h64l-521 -399v-2z" />
    <glyph glyph-name="kcommacedilla" unicode="&#x137;" horiz-adv-x="524" 
d="M257 -89c-2 -10 -7 -20 -13 -28l-70 -94l-24 13l43 59l10 7c-27 1 -34 19 -28 43c7 26 26 44 52 44c27 0 37 -17 30 -44zM270 840l-208 -840h-42l207 840h43zM211 322l244 -322h-61l-242 324l381 305h59l-381 -305v-2z" />
    <glyph glyph-name="Lcommacedilla" unicode="&#x13b;" horiz-adv-x="597" 
d="M298 -89c-3 -10 -7 -20 -13 -28l-71 -94l-23 13l43 59l10 7c-28 1 -34 19 -28 43c6 26 25 44 52 44c26 0 37 -17 30 -44zM523 43l-10 -43h-493l200 810h44l-188 -762l-6 -5h453z" />
    <glyph glyph-name="lcommacedilla" unicode="&#x13c;" horiz-adv-x="220" 
d="M62 -89c-3 -10 -7 -20 -13 -28l-71 -94l-23 13l42 59l11 7c-28 1 -35 19 -29 43c7 26 26 44 52 44c27 0 37 -17 31 -44zM269 840l-207 -840h-42l207 840h42z" />
    <glyph glyph-name="Ncommacedilla" unicode="&#x145;" horiz-adv-x="787" 
d="M346 -89c-3 -10 -7 -20 -13 -28l-71 -94l-23 13l43 59l10 7c-28 1 -34 19 -28 43c6 26 25 44 52 44c26 0 37 -17 30 -44zM829 810l-200 -810h-42l-298 634l-40 104h-2l-183 -738h-44l200 810h42l298 -635l40 -103h2l182 738h45z" />
    <glyph glyph-name="ncommacedilla" unicode="&#x146;" 
d="M302 -89c-3 -10 -7 -20 -13 -28l-71 -94l-23 13l43 59l10 7c-28 1 -34 19 -29 43c7 26 26 44 53 44c26 0 37 -17 30 -44zM620 409l-101 -409h-43l96 387c29 119 14 211 -146 211c-118 0 -234 -73 -270 -220l-94 -378h-42l155 630h43l-29 -115h2c58 79 156 125 250 125
c164 0 214 -91 179 -231z" />
    <glyph glyph-name="Rcommacedilla" unicode="&#x156;" horiz-adv-x="720" 
d="M352 -89c-3 -10 -7 -20 -13 -28l-71 -94l-23 13l42 59l11 7c-28 1 -34 19 -29 43c7 26 26 44 53 44c26 0 36 -17 30 -44zM687 582c33 132 -41 185 -151 185h-287l3 -6l-88 -357l-6 -6h276c145 0 230 89 253 184zM595 231l51 -231h-53l-44 212c-20 98 -74 143 -188 143
h-213l3 -5l-87 -350h-44l200 810h326c138 0 226 -73 188 -228c-26 -102 -105 -190 -234 -216v-2c56 -22 83 -78 95 -133z" />
    <glyph glyph-name="rcommacedilla" unicode="&#x157;" horiz-adv-x="372" 
d="M100 -89c-3 -10 -7 -20 -13 -28l-71 -94l-23 13l43 59l10 7c-28 1 -34 19 -28 43c6 26 25 44 52 44c26 0 37 -17 30 -44zM440 634l-12 -49h-10c-104 1 -231 -79 -279 -275l-77 -310h-42l155 629h43l-39 -158h2c55 104 156 163 253 163h6z" />
    <glyph glyph-name="Scommacedilla" unicode="&#x218;" horiz-adv-x="701" 
d="M307 -89c-2 -10 -7 -20 -13 -28l-70 -94l-24 13l43 59l10 7c-27 1 -34 19 -28 43c6 26 26 44 52 44c27 0 37 -17 30 -44zM632 204c-24 -101 -123 -214 -347 -214c-117 0 -216 40 -278 116l45 36c59 -71 141 -109 241 -109c168 0 269 74 292 168c18 74 -22 136 -135 171
c-17 5 -120 38 -137 43c-135 43 -199 95 -173 201c25 102 133 204 343 204c107 0 190 -38 242 -105l-43 -35c-43 59 -117 97 -209 97c-159 0 -263 -66 -286 -159c-21 -86 47 -124 165 -162c17 -5 108 -35 126 -40c140 -45 177 -122 154 -212z" />
    <glyph glyph-name="scommacedilla" unicode="&#x219;" horiz-adv-x="572" 
d="M242 -89c-3 -10 -8 -20 -14 -28l-70 -94l-23 13l42 59l10 7c-27 1 -34 19 -28 43c7 26 26 44 52 44c27 0 37 -17 31 -44zM487 159c-20 -82 -98 -170 -268 -170c-87 0 -164 29 -213 94l41 33c48 -58 105 -85 180 -85c113 0 197 48 216 126c16 64 -16 99 -97 125
c-12 4 -90 31 -102 35c-102 34 -154 76 -133 161c20 80 103 162 261 162c84 0 148 -30 189 -86l-41 -33c-33 48 -84 77 -158 77c-110 0 -190 -50 -207 -118c-16 -65 35 -96 125 -125c12 -4 79 -28 92 -33c109 -35 133 -92 115 -163z" />
    <glyph glyph-name="Tcommacedilla" unicode="&#x21a;" horiz-adv-x="658" 
d="M281 -89c-3 -10 -8 -20 -14 -28l-70 -94l-23 13l42 59l11 7c-28 1 -35 19 -29 43c7 26 26 44 52 44c27 0 37 -17 31 -44zM769 810l-10 -43h-291l2 -5l-188 -762h-44l188 762l4 5h-290l10 43h619z" />
    <glyph glyph-name="tcommacedilla" unicode="&#x21b;" horiz-adv-x="405" 
d="M182 -89c-3 -10 -8 -20 -14 -28l-70 -94l-23 13l42 59l11 7c-28 1 -35 19 -29 43c7 26 26 44 52 44c27 0 37 -17 31 -44zM314 72l22 -31c-53 -34 -103 -51 -156 -51c-89 0 -132 60 -102 181l102 414l4 5h-78l10 40h78l-2 5l29 115l48 23l-34 -138l-4 -5h196l-10 -40h-196
l2 -5l-102 -410c-24 -98 6 -144 73 -144c41 0 81 14 120 41z" />
    <glyph glyph-name="Scedilla" unicode="&#x15e;" horiz-adv-x="701" 
d="M632 204c-24 -97 -115 -205 -322 -213l4 -5c16 -22 23 -34 18 -53s-11 -26 -55 -60l-72 -59l-20 28l73 59c43 35 50 45 28 74l-11 15c-112 2 -207 42 -268 116l45 36c59 -71 141 -109 241 -109c168 0 269 74 292 168c18 74 -22 136 -135 171c-17 5 -120 38 -137 43
c-135 43 -199 95 -173 201c25 102 133 204 343 204c107 0 190 -38 242 -105l-43 -35c-43 59 -117 97 -209 97c-159 0 -263 -66 -286 -159c-21 -86 47 -124 165 -162l126 -40c140 -45 177 -122 154 -212z" />
    <glyph glyph-name="scedilla" unicode="&#x15f;" horiz-adv-x="572" 
d="M244 -10l3 -4c16 -22 22 -34 18 -53c-5 -19 -12 -26 -55 -60l-72 -59l-20 28l73 59c43 35 50 45 28 74l-11 14c-83 3 -155 32 -202 94l41 33c48 -58 105 -85 180 -85c113 0 197 48 216 126c16 64 -16 99 -97 125c-12 4 -90 31 -102 35c-102 34 -154 76 -133 161
c20 80 103 162 261 162c84 0 148 -30 189 -86l-41 -33c-33 48 -84 77 -158 77c-110 0 -190 -50 -207 -118c-16 -65 35 -96 125 -125c12 -4 79 -28 92 -33c109 -35 133 -92 115 -163c-19 -78 -90 -161 -243 -169z" />
    <glyph glyph-name="Tcedilla" unicode="&#x162;" horiz-adv-x="658" 
d="M769 810l-10 -43h-291l2 -5l-188 -762h-6l18 -25c21 -28 14 -55 -20 -83l-97 -78l-20 28l74 59c43 35 52 45 30 74l-18 25h-5l188 762l4 5h-290l10 43h619z" />
    <glyph glyph-name="tcedilla" unicode="&#x163;" horiz-adv-x="405" 
d="M164 -9l3 -5c17 -22 23 -34 18 -53c-4 -19 -11 -26 -54 -60l-72 -59l-20 28l73 59c43 35 49 45 28 74l-21 28c-46 24 -63 79 -41 168l102 414l4 5h-78l10 40h78l-2 5l29 115l48 23l-34 -138l-4 -5h196l-10 -40h-196l2 -5l-102 -410c-24 -98 6 -144 73 -144
c41 0 81 14 120 41l22 -31c-53 -34 -103 -51 -156 -51c-6 0 -11 0 -16 1z" />
    <glyph glyph-name="Lcaron" unicode="&#x13d;" horiz-adv-x="597" 
d="M523 43l-10 -43h-493l200 810h44l-188 -762l-6 -5h453zM483 773c-3 -11 -8 -21 -15 -29l-75 -101l-25 15l45 62l11 7c-29 2 -36 20 -30 46c7 29 28 48 56 48c29 0 40 -19 33 -48z" />
    <glyph glyph-name="lcaron" unicode="&#x13e;" horiz-adv-x="249" 
d="M269 840l-207 -840h-42l207 840h42zM402 798c-3 -11 -8 -21 -15 -30l-75 -100l-25 14l45 62l11 7c-29 2 -36 21 -30 47c7 28 28 47 56 47c29 0 40 -19 33 -47z" />
    <glyph glyph-name="napostrophe" unicode="&#x149;" horiz-adv-x="689" 
d="M636 409l-101 -409h-42l95 387c29 119 14 211 -146 211c-117 0 -234 -73 -270 -220l-93 -378h-43l156 630h42l-28 -115h2c58 79 156 125 249 125c164 0 214 -91 179 -231zM210 773c-3 -11 -8 -21 -14 -30l-76 -100l-25 14l46 62l11 7c-30 2 -37 21 -31 47
c7 28 28 47 56 47c29 0 40 -19 33 -47z" />
    <glyph glyph-name="Aogonek" unicode="&#x104;" horiz-adv-x="757" 
d="M168 261h412l-5 6l-73 419l-5 71h-1l-41 -71l-281 -420zM615 -183l15 -21c-5 -4 -10 -12 -17 -15c-20 -17 -45 -32 -73 -32c-49 -2 -80 39 -68 89c6 27 23 53 45 70l112 92h-6l-39 214l4 4h-450l1 -5l-143 -213h-50l544 810h40l143 -810h-6l-125 -104
c-16 -14 -26 -32 -30 -48c-8 -35 15 -60 46 -60c15 1 31 7 44 17c2 3 7 6 13 12z" />
    <glyph glyph-name="aogonek" unicode="&#x105;" horiz-adv-x="673" 
d="M553 311c40 160 3 287 -151 287c-163 0 -261 -139 -298 -287c-36 -149 -5 -280 158 -280c152 0 253 126 291 280zM670 630l-156 -630h-13l-125 -104c-15 -14 -26 -32 -30 -48c-8 -35 15 -60 46 -60c16 1 31 7 44 17c2 3 7 6 13 12l15 -21c-4 -4 -10 -12 -17 -15
c-20 -17 -45 -32 -73 -32c-49 -2 -79 39 -68 89c6 27 23 53 45 70l122 100h1l29 121h-2c-61 -90 -153 -139 -251 -139c-178 0 -235 132 -188 321c47 193 169 328 349 328c97 0 161 -49 181 -142h2l33 133h43z" />
    <glyph glyph-name="Eogonek" unicode="&#x118;" horiz-adv-x="698" 
d="M570 43l-11 -43h-13l-124 -104c-15 -14 -26 -32 -30 -48c-8 -35 15 -60 46 -60c16 1 31 7 44 17c3 3 7 6 13 12l15 -21c-4 -4 -10 -12 -17 -15c-20 -17 -45 -32 -73 -32c-49 -2 -79 39 -68 89c6 27 23 53 45 70l112 92h-489l200 810h539l-10 -43h-500l3 -5l-81 -330
l-6 -5h452l-10 -43h-453l4 -5l-82 -331l-6 -5h500z" />
    <glyph glyph-name="eogonek" unicode="&#x119;" horiz-adv-x="649" 
d="M106 336l464 1l-4 4c26 143 -12 257 -160 257c-147 0 -248 -116 -293 -257zM602 310l-3 -13v0l-503 -1l4 -5c-29 -153 16 -260 170 -260c65 0 129 23 186 65l23 -32l-203 -168c-15 -14 -26 -32 -30 -48c-8 -35 15 -60 46 -60c16 1 31 7 44 17c3 3 7 6 13 12l15 -21
c-4 -4 -10 -12 -17 -15c-20 -17 -45 -32 -73 -32c-49 -2 -79 39 -68 89c6 27 23 53 45 70l122 100c-37 -12 -75 -18 -113 -18c-195 0 -243 140 -198 320c44 181 170 330 354 330c200 0 227 -165 186 -330z" />
    <glyph glyph-name="Iogonek" unicode="&#x12e;" horiz-adv-x="233" 
d="M17 -183l15 -21c-5 -4 -10 -12 -18 -15c-20 -17 -45 -32 -73 -32c-49 -2 -79 39 -68 89c6 27 24 53 46 70l112 92h-6l200 810h44l-200 -810l-125 -104c-16 -14 -27 -32 -30 -48c-8 -35 14 -60 45 -60c16 1 32 7 45 17c2 3 7 6 13 12z" />
    <glyph glyph-name="iogonek" unicode="&#x12f;" horiz-adv-x="221" 
d="M10 -184l15 -21c-5 -3 -10 -11 -17 -14c-20 -17 -45 -32 -73 -32c-49 -2 -79 38 -68 88c6 28 24 53 45 71l113 92h-5l155 629h43l-156 -629l-125 -104c-16 -14 -26 -33 -30 -48c-8 -35 14 -61 46 -60c15 0 31 6 44 17c2 2 7 6 13 11zM276 801c-8 -31 -25 -46 -48 -46
c-24 0 -34 15 -26 46c7 30 25 45 48 45s33 -15 26 -45z" />
    <glyph glyph-name="Uogonek" unicode="&#x172;" horiz-adv-x="799" 
d="M845 810l-108 -441c-56 -225 -168 -351 -344 -375l-119 -98c-15 -13 -26 -32 -30 -48c-8 -35 15 -60 46 -60c16 1 31 7 44 17c3 3 7 6 13 12l15 -21c-4 -4 -10 -12 -17 -15c-20 -17 -45 -32 -73 -32c-49 -2 -79 39 -68 89c6 27 23 53 45 70l101 83c-7 -1 -15 -1 -22 -1
c-214 0 -284 127 -222 379l109 441h44l-110 -445c-49 -201 -6 -332 189 -332s303 130 353 332l110 445h44z" />
    <glyph glyph-name="uogonek" unicode="&#x173;" horiz-adv-x="665" 
d="M442 -183l15 -21c-5 -4 -11 -12 -18 -15c-20 -17 -45 -31 -73 -32c-49 -1 -79 39 -68 89c6 27 24 53 46 71l122 100l26 107h-2c-57 -76 -145 -126 -246 -126c-159 0 -210 87 -172 242l99 398h42l-97 -393c-27 -108 -17 -205 144 -205c115 0 230 73 266 220l93 378h43
l-156 -630h-13l-124 -104c-16 -13 -27 -32 -30 -47c-8 -36 14 -61 45 -61c16 1 32 7 44 18c3 2 8 5 14 11z" />
    <glyph glyph-name="Amacron" unicode="&#x100;" horiz-adv-x="757" 
d="M168 261h412l-5 6l-73 419l-5 71h-1l-41 -71l-281 -420zM530 810l143 -810h-50l-39 214l4 4h-450l1 -5l-143 -213h-50l544 810h40zM723 936l-9 -35h-365l9 35h365z" />
    <glyph glyph-name="amacron" unicode="&#x101;" 
d="M553 311c40 160 3 287 -151 287c-163 0 -261 -139 -298 -287c-36 -149 -5 -280 158 -280c152 0 253 126 291 280zM670 630l-156 -630h-43l32 129h-2c-61 -90 -153 -139 -251 -139c-178 0 -235 132 -188 321c47 193 169 328 349 328c97 0 161 -49 181 -142h2l33 133h43z
M631 767l-9 -36h-365l9 36h365z" />
    <glyph glyph-name="Emacron" unicode="&#x112;" horiz-adv-x="698" 
d="M570 43l-11 -43h-539l200 810h539l-10 -43h-500l3 -5l-81 -330l-6 -5h452l-10 -43h-453l4 -5l-82 -331l-6 -5h500zM711 936l-9 -35h-365l9 35h365z" />
    <glyph glyph-name="emacron" unicode="&#x113;" horiz-adv-x="649" 
d="M106 336l464 1l-4 4c26 143 -12 257 -160 257c-147 0 -248 -116 -293 -257zM602 310l-3 -13v0l-503 -1l4 -5c-29 -153 16 -260 170 -260c65 0 129 23 186 65l23 -32c-66 -49 -142 -74 -219 -74c-195 0 -243 140 -198 320c44 181 170 330 354 330c200 0 227 -165 186 -330
zM630 767l-9 -36h-365l9 36h365z" />
    <glyph glyph-name="Imacron" unicode="&#x12a;" horiz-adv-x="233" 
d="M269 810l-200 -810h-44l200 810h44zM459 936l-9 -35h-365l9 35h365z" />
    <glyph glyph-name="imacron" unicode="&#x12b;" horiz-adv-x="221" 
d="M218 629l-156 -629h-42l155 629h43zM413 767l-9 -36h-365l9 36h365z" />
    <glyph glyph-name="Omacron" unicode="&#x14c;" horiz-adv-x="811" 
d="M739 400c49 196 11 377 -211 377c-220 0 -348 -178 -398 -377c-49 -199 -4 -367 214 -367c219 0 346 169 395 367zM786 400c-62 -251 -226 -410 -453 -410c-229 0 -311 159 -249 410s226 420 454 420c230 0 310 -168 248 -420zM749 936l-9 -35h-365l9 35h365z" />
    <glyph glyph-name="omacron" unicode="&#x14d;" horiz-adv-x="650" 
d="M561 315c37 152 4 283 -158 283c-164 0 -260 -131 -297 -283c-37 -151 -5 -283 157 -283c163 0 260 131 298 283zM604 315c-48 -192 -173 -325 -351 -325c-180 0 -238 131 -190 325c48 193 171 325 350 325c180 0 239 -130 191 -325zM627 767l-9 -36h-365l9 36h365z" />
    <glyph glyph-name="Umacron" unicode="&#x16a;" horiz-adv-x="799" 
d="M801 810h44l-108 -441c-62 -251 -195 -379 -409 -379s-284 127 -222 379l109 441h44l-110 -445c-49 -201 -6 -332 189 -332s303 130 353 332zM744 936l-9 -35h-365l9 35h365z" />
    <glyph glyph-name="umacron" unicode="&#x16b;" horiz-adv-x="665" 
d="M662 630l-156 -630h-42l28 116h-2c-57 -76 -145 -126 -246 -126c-159 0 -210 87 -172 242l99 398h42l-97 -393c-27 -108 -17 -205 144 -205c115 0 230 73 266 220l93 378h43zM630 767l-9 -36h-365l9 36h365z" />
    <glyph glyph-name="Dcroat" unicode="&#x110;" horiz-adv-x="765" 
d="M478 767h-230l5 -5l-82 -331l-4 -5h196l-11 -42h-196l2 -5l-82 -331l-6 -5h234c260 0 345 180 390 362s46 362 -216 362zM20 0l94 379l5 5h-69l11 42h68l-3 5l94 379h278c292 0 293 -204 243 -405c-50 -203 -150 -405 -438 -405h-283z" />
    <glyph glyph-name="dcroat" unicode="&#x111;" horiz-adv-x="676" 
d="M553 311c40 160 3 287 -151 287c-163 0 -261 -139 -298 -287c-36 -149 -5 -280 158 -280c152 0 253 126 291 280zM778 753l-9 -36h-81l2 -5l-176 -711h-42l31 128h-2c-61 -90 -153 -139 -251 -139c-178 0 -235 132 -188 321c47 193 169 328 349 328
c97 0 161 -49 181 -142h2l53 215l4 5h-220l9 36h220l-1 5l20 81h42l-20 -81l-4 -5h81z" />
    <glyph glyph-name="kgreenlandic" unicode="&#x138;" horiz-adv-x="524" 
d="M218 630l-156 -630h-42l155 630h43zM211 322l244 -322h-61l-242 324l381 305h59l-381 -305v-2z" />
    <glyph glyph-name="Ccircumflex" unicode="&#x108;" horiz-adv-x="718" 
d="M796 716l-43 -35c-36 60 -104 96 -207 96c-228 0 -366 -174 -416 -378c-50 -201 1 -366 231 -366c102 0 189 36 254 95l25 -34c-77 -65 -174 -104 -290 -104c-243 0 -328 160 -266 410s235 420 472 420c118 0 195 -39 240 -104zM612 1056l120 -163l-24 -19l-111 126
l-3 -2l-171 -124l-15 20l201 163z" />
    <glyph glyph-name="ccircumflex" unicode="&#x109;" horiz-adv-x="553" 
d="M447 95l22 -32c-63 -49 -134 -73 -214 -73c-185 0 -240 132 -193 320c47 191 182 330 355 330c84 0 134 -23 171 -64l-38 -32c-29 35 -81 55 -143 54c-159 -1 -266 -139 -303 -288c-35 -144 -5 -279 161 -279c65 0 126 20 182 64zM471 875l120 -162l-24 -19l-112 125
l-2 -1l-171 -124l-15 20l201 163z" />
    <glyph glyph-name="Gcircumflex" unicode="&#x11c;" horiz-adv-x="831" 
d="M778 428l-105 -428h-37l49 202h-2c-64 -105 -187 -212 -334 -212c-238 0 -329 153 -266 406c64 262 240 424 475 424c103 0 197 -29 250 -102l-43 -35c-44 68 -132 94 -217 94c-219 0 -362 -153 -418 -381c-55 -220 14 -363 230 -363c168 0 320 143 368 347l6 5h-268
l11 43h301zM615 1056l120 -163l-23 -19l-112 126l-3 -2l-171 -124l-14 20l201 163z" />
    <glyph glyph-name="gcircumflex" unicode="&#x11d;" 
d="M563 349c33 136 -13 250 -162 250c-153 0 -253 -110 -287 -250c-36 -144 14 -246 165 -246c153 0 251 113 284 246zM627 630h42l-144 -584c-41 -168 -144 -261 -322 -261c-83 0 -151 23 -201 68l39 33c40 -38 106 -61 171 -61c145 0 236 81 271 222l36 145h-2
c-59 -77 -146 -130 -250 -130c-178 0 -238 117 -196 287c41 164 161 291 339 291c105 0 170 -58 184 -134h2zM480 875l121 -162l-24 -19l-112 125l-3 -1l-171 -124l-14 20l201 163z" />
    <glyph glyph-name="Hcircumflex" unicode="&#x124;" horiz-adv-x="787" 
d="M829 810l-200 -810h-45l94 379l6 5h-530l4 -5l-94 -379h-44l200 810h44l-93 -378l-6 -5h529l-3 5l93 378h45zM587 1056l120 -163l-23 -19l-112 126l-3 -2l-171 -124l-14 20l201 163z" />
    <glyph glyph-name="hcircumflex" unicode="&#x125;" 
d="M621 413l-102 -413h-43l99 401c27 107 11 197 -144 197c-104 0 -236 -60 -274 -215l-95 -383h-42l207 840h43l-81 -328h2c58 79 153 128 256 128c161 0 207 -91 174 -227zM541 1056l122 -163l-23 -19l-115 126l-2 -2l-171 -124l-15 20l201 163z" />
    <glyph glyph-name="Jcircumflex" unicode="&#x134;" horiz-adv-x="550" 
d="M552 810h45l-129 -521c-56 -228 -193 -299 -335 -299c-80 0 -144 40 -179 103l40 34c30 -56 85 -94 150 -94c114 0 231 59 279 252zM636 1056l120 -163l-23 -19l-112 126l-3 -2l-171 -124l-14 20l201 163z" />
    <glyph glyph-name="jcircumflex" unicode="&#x135;" horiz-adv-x="221" 
d="M175 630h43l-171 -692c-26 -105 -85 -153 -176 -153c-18 0 -39 4 -54 11l10 39c15 -6 36 -9 53 -9c62 0 106 36 126 119zM260 878l121 -162l-24 -20l-112 126l-3 -1l-171 -125l-14 20l201 163z" />
    <glyph glyph-name="Scircumflex" unicode="&#x15c;" horiz-adv-x="701" 
d="M632 204c-24 -101 -123 -214 -347 -214c-117 0 -216 40 -278 116l45 36c59 -71 141 -109 241 -109c168 0 269 74 292 168c18 74 -22 136 -135 171c-17 5 -120 38 -137 43c-135 43 -199 95 -173 201c25 102 133 204 343 204c107 0 190 -38 242 -105l-43 -35
c-43 59 -117 97 -209 97c-159 0 -263 -66 -286 -159c-21 -86 47 -124 165 -162c17 -5 108 -35 126 -40c140 -45 177 -122 154 -212zM543 1056l120 -163l-23 -19l-112 126l-3 -2l-171 -124l-14 20l201 163z" />
    <glyph glyph-name="scircumflex" unicode="&#x15d;" horiz-adv-x="572" 
d="M487 159c-20 -82 -98 -170 -268 -170c-87 0 -164 29 -213 94l41 33c48 -58 105 -85 180 -85c113 0 197 48 216 126c16 64 -16 99 -97 125c-12 4 -90 31 -102 35c-102 34 -154 76 -133 161c20 80 103 162 261 162c84 0 148 -30 189 -86l-41 -33c-33 48 -84 77 -158 77
c-110 0 -190 -50 -207 -118c-16 -65 35 -96 125 -125c12 -4 79 -28 92 -33c109 -35 133 -92 115 -163zM434 876l120 -162l-23 -20l-112 126l-3 -1l-171 -125l-14 20l201 163z" />
    <glyph glyph-name="Wcircumflex" unicode="&#x174;" horiz-adv-x="973" 
d="M1030 810h49l-418 -810h-54l-14 634l4 90h-2l-41 -90l-327 -634h-54l-18 810h50l12 -674l-5 -86h1l37 86l349 674h36l15 -677l-5 -83h2l36 84zM680 1056l120 -163l-24 -19l-112 126l-2 -2l-171 -124l-15 20l201 163z" />
    <glyph glyph-name="wcircumflex" unicode="&#x175;" horiz-adv-x="820" 
d="M845 630h46l-339 -630h-46l-27 500l4 72h-2l-32 -72l-274 -500h-47l-27 630h46l21 -510l-3 -68h3l30 68l278 510h40l27 -510l-3 -68h2l30 68zM556 875l120 -162l-23 -19l-112 125l-3 -1l-171 -124l-14 20l201 163z" />
    <glyph glyph-name="Ycircumflex" unicode="&#x176;" horiz-adv-x="698" 
d="M756 810h57l-426 -466l-84 -344h-45l84 344l-197 466h59l141 -344l29 -83h1l69 83zM541 1056l120 -163l-23 -19l-112 126l-3 -2l-171 -124l-14 20l201 163z" />
    <glyph glyph-name="ycircumflex" unicode="&#x177;" horiz-adv-x="584" 
d="M607 630h49l-443 -705c-61 -97 -128 -140 -198 -140c-35 0 -62 5 -85 17l10 40c23 -10 52 -16 77 -16c59 0 112 33 171 127c0 0 22 36 26 43l-113 634h49l85 -502l9 -86h2l50 86zM435 875l121 -162l-24 -19l-112 125l-3 -1l-171 -124l-14 20l201 163z" />
    <glyph glyph-name="Uring" unicode="&#x16e;" horiz-adv-x="799" 
d="M801 810h44l-108 -441c-62 -251 -195 -379 -409 -379s-284 127 -222 379l109 441h44l-110 -445c-49 -201 -6 -332 189 -332s303 130 353 332zM634 971c9 37 -3 68 -46 68s-70 -31 -79 -68s3 -68 46 -68s70 31 79 68zM661 971c-14 -56 -54 -96 -113 -96
c-61 0 -80 39 -66 96s53 96 113 96s80 -39 66 -96z" />
    <glyph glyph-name="uring" unicode="&#x16f;" horiz-adv-x="665" 
d="M662 630l-156 -630h-42l28 116h-2c-57 -76 -145 -126 -246 -126c-159 0 -210 87 -172 242l99 398h42l-97 -393c-27 -108 -17 -205 144 -205c115 0 230 73 266 220l93 378h43zM519 791c9 37 -3 68 -45 68c-44 0 -70 -31 -80 -68c-9 -37 3 -68 46 -68s70 31 79 68zM546 791
c-14 -56 -53 -96 -113 -96s-80 39 -66 96s53 96 113 96c61 0 80 -39 66 -96z" />
    <glyph glyph-name="Ohungarumlaut" unicode="&#x150;" horiz-adv-x="811" 
d="M739 400c49 196 11 377 -211 377c-220 0 -348 -178 -398 -377c-49 -199 -4 -367 214 -367c219 0 346 169 395 367zM786 400c-62 -251 -226 -410 -453 -410c-229 0 -311 159 -249 410s226 420 454 420c230 0 310 -168 248 -420zM603 1039l27 -38l-171 -128l-14 18z
M742 1039l27 -38l-171 -128l-14 18z" />
    <glyph glyph-name="ohungarumlaut" unicode="&#x151;" horiz-adv-x="650" 
d="M561 315c37 152 4 283 -158 283c-164 0 -260 -131 -297 -283c-37 -151 -5 -283 157 -283c163 0 260 131 298 283zM604 315c-48 -192 -173 -325 -351 -325c-180 0 -238 131 -190 325c48 193 171 325 350 325c180 0 239 -130 191 -325zM477 860l28 -37l-172 -128l-14 18z
M616 860l27 -37l-171 -128l-14 18z" />
    <glyph glyph-name="Uhungarumlaut" unicode="&#x170;" horiz-adv-x="799" 
d="M801 810h44l-108 -441c-62 -251 -195 -379 -409 -379s-284 127 -222 379l109 441h44l-110 -445c-49 -201 -6 -332 189 -332s303 130 353 332zM597 1039l27 -38l-171 -128l-14 18zM735 1039l28 -38l-172 -128l-13 18z" />
    <glyph glyph-name="uhungarumlaut" unicode="&#x171;" horiz-adv-x="665" 
d="M662 630l-156 -630h-42l28 116h-2c-57 -76 -145 -126 -246 -126c-159 0 -210 87 -172 242l99 398h42l-97 -393c-27 -108 -17 -205 144 -205c115 0 230 73 266 220l93 378h43zM469 860l28 -37l-172 -128l-13 18zM608 860l27 -37l-171 -128l-14 18z" />
    <glyph glyph-name="Abreve" unicode="&#x102;" horiz-adv-x="757" 
d="M168 261h412l-5 6l-73 419l-5 71h-1l-41 -71l-281 -420zM530 810l143 -810h-50l-39 214l4 4h-450l1 -5l-143 -213h-50l544 810h40zM667 983h43c-40 -64 -103 -108 -185 -108s-123 43 -131 108h44c11 -42 39 -69 97 -69s101 27 132 69z" />
    <glyph glyph-name="abreve" unicode="&#x103;" 
d="M553 311c40 160 3 287 -151 287c-163 0 -261 -139 -298 -287c-36 -149 -5 -280 158 -280c152 0 253 126 291 280zM670 630l-156 -630h-43l32 129h-2c-61 -90 -153 -139 -251 -139c-178 0 -235 132 -188 321c47 193 169 328 349 328c97 0 161 -49 181 -142h2l33 133h43z
M578 804h44c-41 -65 -104 -109 -185 -109c-82 0 -123 44 -132 109h45c10 -43 39 -70 97 -70s100 27 131 70z" />
    <glyph glyph-name="Ebreve" unicode="&#x114;" horiz-adv-x="698" 
d="M570 43l-11 -43h-539l200 810h539l-10 -43h-500l3 -5l-81 -330l-6 -5h452l-10 -43h-453l4 -5l-82 -331l-6 -5h500zM656 983h43c-41 -64 -104 -108 -185 -108c-82 0 -123 43 -131 108h44c10 -42 39 -69 97 -69s100 27 132 69z" />
    <glyph glyph-name="ebreve" unicode="&#x115;" horiz-adv-x="649" 
d="M106 336l464 1l-4 4c26 143 -12 257 -160 257c-147 0 -248 -116 -293 -257zM602 310l-3 -13v0l-503 -1l4 -5c-29 -153 16 -260 170 -260c65 0 129 23 186 65l23 -32c-66 -49 -142 -74 -219 -74c-195 0 -243 140 -198 320c44 181 170 330 354 330c200 0 227 -165 186 -330
zM571 804h43c-41 -65 -104 -109 -185 -109c-82 0 -123 44 -131 109h44c10 -43 39 -70 97 -70s100 27 132 70z" />
    <glyph glyph-name="Gbreve" unicode="&#x11e;" horiz-adv-x="831" 
d="M778 428l-105 -428h-37l49 199h-2c-60 -104 -187 -209 -334 -209c-238 0 -329 153 -266 406c64 262 240 424 475 424c103 0 197 -29 250 -102l-43 -35c-44 68 -132 94 -217 94c-219 0 -362 -153 -418 -381c-55 -220 14 -363 230 -363c168 0 320 143 368 347l6 5h-268
l11 43h301zM712 983h44c-41 -64 -104 -108 -185 -108c-82 0 -123 43 -132 108h45c10 -42 39 -69 97 -69s100 27 131 69z" />
    <glyph glyph-name="gbreve" unicode="&#x11f;" 
d="M563 349c33 136 -13 250 -162 250c-153 0 -253 -110 -287 -250c-36 -144 14 -246 165 -246c153 0 251 113 284 246zM627 630h42l-144 -584c-41 -168 -144 -261 -322 -261c-83 0 -151 23 -201 68l39 33c40 -38 106 -61 171 -61c145 0 236 81 271 222l36 145h-2
c-59 -77 -146 -130 -250 -130c-178 0 -238 117 -196 287c41 164 161 291 339 291c105 0 170 -58 184 -134h2zM575 804h43c-40 -65 -103 -109 -185 -109s-123 44 -131 109h44c11 -43 40 -70 97 -70c58 0 101 27 132 70z" />
    <glyph glyph-name="Ibreve" unicode="&#x12c;" horiz-adv-x="233" 
d="M269 810l-200 -810h-44l200 810h44zM404 983h43c-41 -64 -104 -108 -185 -108c-82 0 -123 43 -131 108h44c10 -42 39 -69 97 -69s100 27 132 69z" />
    <glyph glyph-name="ibreve" unicode="&#x12d;" horiz-adv-x="221" 
d="M218 629l-156 -629h-42l155 629h43zM354 804h43c-40 -65 -104 -109 -185 -109c-82 0 -123 44 -131 109h44c10 -43 39 -70 97 -70s100 27 132 70z" />
    <glyph glyph-name="Obreve" unicode="&#x14e;" horiz-adv-x="811" 
d="M739 400c49 196 11 377 -211 377c-220 0 -348 -178 -398 -377c-49 -199 -4 -367 214 -367c219 0 346 169 395 367zM786 400c-62 -251 -226 -410 -453 -410c-229 0 -311 159 -249 410s226 420 454 420c230 0 310 -168 248 -420zM695 983h43c-40 -64 -104 -108 -185 -108
c-82 0 -123 43 -131 108h44c10 -42 39 -69 97 -69s100 27 132 69z" />
    <glyph glyph-name="obreve" unicode="&#x14f;" horiz-adv-x="650" 
d="M561 315c37 152 4 283 -158 283c-164 0 -260 -131 -297 -283c-37 -151 -5 -283 157 -283c163 0 260 131 298 283zM604 315c-48 -192 -173 -325 -351 -325c-180 0 -238 131 -190 325c48 193 171 325 350 325c180 0 239 -130 191 -325zM569 804h43
c-40 -65 -103 -109 -185 -109s-123 44 -131 109h44c11 -43 40 -70 97 -70c58 0 101 27 132 70z" />
    <glyph glyph-name="Ubreve" unicode="&#x16c;" horiz-adv-x="799" 
d="M801 810h44l-108 -441c-62 -251 -195 -379 -409 -379s-284 127 -222 379l109 441h44l-110 -445c-49 -201 -6 -332 189 -332s303 130 353 332zM688 983h44c-41 -64 -104 -108 -185 -108c-82 0 -124 43 -132 108h44c11 -42 40 -69 98 -69s100 27 131 69z" />
    <glyph glyph-name="ubreve" unicode="&#x16d;" horiz-adv-x="665" 
d="M662 630l-156 -630h-42l28 116h-2c-57 -76 -145 -126 -246 -126c-159 0 -210 87 -172 242l99 398h42l-97 -393c-27 -108 -17 -205 144 -205c115 0 230 73 266 220l93 378h43zM576 804h43c-40 -65 -103 -109 -185 -109s-123 44 -131 109h44c11 -43 39 -70 97 -70
s101 27 132 70z" />
    <glyph glyph-name="Itilde" unicode="&#x128;" horiz-adv-x="233" 
d="M269 810l-200 -810h-44l200 810h44zM467 993l16 -25c-31 -57 -80 -93 -139 -93c-66 0 -97 75 -156 75c-38 0 -78 -21 -102 -70l-17 25c28 56 74 84 133 84c67 0 97 -74 155 -74c43 0 85 32 110 78z" />
    <glyph glyph-name="itilde" unicode="&#x129;" horiz-adv-x="221" 
d="M218 629l-156 -629h-42l155 629h43zM421 831l17 -25c-31 -57 -80 -93 -139 -93c-66 0 -98 75 -156 75c-38 0 -78 -21 -103 -70l-16 25c28 56 74 84 132 84c67 0 98 -74 156 -74c42 0 85 32 109 78z" />
    <glyph glyph-name="Utilde" unicode="&#x168;" horiz-adv-x="799" 
d="M801 810h44l-108 -441c-62 -251 -195 -379 -409 -379s-284 127 -222 379l109 441h44l-110 -445c-49 -201 -6 -332 189 -332s303 130 353 332zM773 996l18 -26c-32 -57 -84 -95 -146 -95c-70 0 -113 80 -175 80c-42 0 -82 -24 -108 -73l-18 25c29 57 78 87 140 87
c71 0 113 -79 174 -79c46 0 89 34 115 81z" />
    <glyph glyph-name="utilde" unicode="&#x169;" horiz-adv-x="665" 
d="M662 630l-156 -630h-42l28 116h-2c-57 -76 -145 -126 -246 -126c-159 0 -210 87 -172 242l99 398h42l-97 -393c-27 -108 -17 -205 144 -205c115 0 230 73 266 220l93 378h43zM662 838l18 -25c-32 -57 -84 -95 -146 -95c-70 0 -113 79 -174 79c-43 0 -83 -23 -108 -72
l-19 25c29 56 78 87 140 87c71 0 113 -80 174 -80c46 0 90 35 115 81z" />
    <glyph glyph-name="Wgrave" unicode="&#x1e80;" horiz-adv-x="973" 
d="M1030 810h49l-418 -810h-54l-14 634l4 90h-2l-41 -90l-327 -634h-54l-18 810h50l12 -674l-5 -86h1l37 86l349 674h36l15 -677l-5 -83h2l36 84zM614 1075l118 -183l-22 -17l-140 164z" />
    <glyph glyph-name="wgrave" unicode="&#x1e81;" horiz-adv-x="820" 
d="M845 630h46l-339 -630h-46l-27 500l4 72h-2l-32 -72l-274 -500h-47l-27 630h46l21 -510l-3 -68h3l30 68l278 510h40l27 -510l-3 -68h2l30 68zM492 895l118 -183l-22 -17l-140 165z" />
    <glyph glyph-name="Ygrave" unicode="&#x1ef2;" horiz-adv-x="698" 
d="M756 810h57l-426 -466l-84 -344h-45l84 344l-197 466h59l141 -344l29 -83h1l69 83zM461 1075l118 -183l-22 -17l-140 164z" />
    <glyph glyph-name="ygrave" unicode="&#x1ef3;" horiz-adv-x="584" 
d="M607 630h49l-443 -705c-61 -97 -128 -140 -198 -140c-35 0 -62 5 -85 17l10 40c23 -10 52 -16 77 -16c59 0 112 33 171 127c0 0 22 36 26 43l-113 634h49l85 -502l9 -86h2l50 86zM354 895l118 -183l-22 -17l-141 165z" />
    <glyph glyph-name="Wdieresis" unicode="&#x1e84;" horiz-adv-x="973" 
d="M1030 810h49l-418 -810h-54l-14 634l4 90h-2l-41 -90l-327 -634h-54l-18 810h50l12 -674l-5 -86h1l37 86l349 674h36l15 -677l-5 -83h2l36 84zM587 942c-7 -27 -24 -43 -48 -43c-25 0 -34 16 -28 43c7 27 24 43 49 43s34 -16 27 -43zM785 942c-6 -27 -24 -43 -48 -43
c-25 0 -34 16 -27 43c6 27 24 43 48 43c25 0 34 -16 27 -43z" />
    <glyph glyph-name="wdieresis" unicode="&#x1e85;" horiz-adv-x="820" 
d="M845 630h46l-339 -630h-46l-27 500l4 72h-2l-32 -72l-274 -500h-47l-27 630h46l21 -510l-3 -68h3l30 68l278 510h40l27 -510l-3 -68h2l30 68zM463 751c-7 -27 -24 -43 -49 -43c-24 0 -33 16 -27 43c7 27 24 43 49 43c24 0 34 -16 27 -43zM661 751c-6 -27 -24 -43 -48 -43
c-25 0 -34 16 -27 43c6 27 24 43 48 43c25 0 34 -16 27 -43z" />
    <glyph glyph-name="Hbar" unicode="&#x126;" horiz-adv-x="787" 
d="M165 427h529l-3 5l33 135l4 5h-525l1 -5l-33 -135zM819 610l-10 -38h-42l2 -5l-140 -567h-45l94 379l6 5h-530l4 -5l-94 -379h-44l140 567l4 5h-42l9 38h42l-1 5l48 195h44l-48 -195l-4 -5h526l-2 5l48 195h45l-48 -195l-5 -5h43z" />
    <glyph glyph-name="hbar" unicode="&#x127;" horiz-adv-x="674" 
d="M622 413l-102 -413h-42l98 401c27 107 12 197 -143 197c-105 0 -237 -60 -275 -215l-94 -383h-43l176 712l4 5h-78l8 36h79l-2 5l20 82h43l-20 -82l-4 -5h223l-9 -36h-223l2 -4l-50 -201h2c58 79 154 128 256 128c162 0 208 -91 174 -227z" />
    <glyph glyph-name="Tbar" unicode="&#x166;" horiz-adv-x="658" 
d="M769 810l-10 -43h-291l2 -5l-77 -311l-4 -5h179l-9 -40h-180l2 -4l-99 -402h-44l99 402l4 4h-178l10 40h178l-2 5l77 311l4 5h-290l10 43h619z" />
    <glyph glyph-name="tbar" unicode="&#x167;" horiz-adv-x="405" 
d="M314 72l22 -31c-53 -34 -103 -51 -156 -51c-89 0 -132 60 -102 181l57 231l4 5h-78l9 39h79l-2 5l33 134l4 5h-78l10 40h78l-2 5l29 115l48 23l-34 -138l-4 -5h196l-10 -40h-196l2 -5l-33 -134l-5 -5h197l-10 -39h-196l1 -6l-56 -226c-24 -98 6 -144 73 -144
c41 0 81 14 120 41z" />
    <glyph glyph-name="Eng" unicode="&#x14a;" horiz-adv-x="787" 
d="M635 25v-1l-33 -134c-16 -64 -72 -108 -123 -108s-80 42 -65 105l5 17l35 -1l-4 -14c-9 -38 4 -64 38 -64c35 0 63 30 71 66l27 109v0l-297 634l-40 104h-2l-183 -738h-44l200 810h42l298 -635l39 -105h2l183 740h45z" />
    <glyph glyph-name="eng" unicode="&#x14b;" 
d="M441 640c164 0 214 -91 179 -231l-106 -430l-22 -89c-16 -64 -72 -108 -123 -108s-80 42 -65 105l5 17l35 -1l-3 -14c-10 -38 4 -64 37 -64c35 0 63 30 71 66l23 92l100 404c29 119 14 211 -146 211c-118 0 -234 -73 -270 -220l-94 -378h-42l155 630h43l-29 -115h2
c58 79 156 125 250 125z" />
    <glyph glyph-name="IJ" unicode="&#x132;" horiz-adv-x="744" 
d="M269 810l-200 -810h-44l200 810h44zM746 810h45l-129 -521c-56 -228 -193 -299 -335 -299c-80 0 -144 40 -179 103l40 34c30 -56 85 -94 150 -94c115 0 231 59 279 252z" />
    <glyph glyph-name="ij" unicode="&#x133;" horiz-adv-x="421" 
d="M376 630h43l-171 -692c-26 -105 -85 -153 -176 -153c-18 0 -39 4 -54 11l10 41c14 -7 36 -11 53 -11c62 0 106 36 126 119zM477 801c-8 -31 -25 -45 -49 -45c-23 0 -33 14 -25 45c7 31 24 45 48 45c23 0 33 -14 26 -45zM218 629l-156 -629h-42l155 629h43zM250 846
c23 0 33 -15 26 -45c-8 -31 -25 -46 -48 -46c-24 0 -34 15 -26 46c7 30 25 45 48 45z" />
    <glyph glyph-name="Ldot" unicode="&#x13f;" horiz-adv-x="597" 
d="M379 432c-7 -30 -27 -48 -55 -48s-39 18 -31 48c7 29 26 48 54 48c29 0 39 -19 32 -48zM523 43l-10 -43h-493l200 810h44l-188 -762l-6 -5h453z" />
    <glyph glyph-name="ldot" unicode="&#x140;" horiz-adv-x="267" 
d="M269 840l-207 -840h-42l207 840h42zM304 432c-7 -30 -27 -48 -55 -48s-38 18 -31 48c8 29 27 48 55 48s39 -19 31 -48z" />
    <glyph glyph-name="Bdotaccent" unicode="&#x1e02;" horiz-adv-x="727" 
d="M619 219c27 111 -28 177 -162 177h-298l3 -4l-84 -344l-6 -5h299c138 0 220 61 248 176zM678 604c27 112 -32 163 -148 163h-280l4 -5l-79 -318l-6 -4h281c137 0 206 77 228 164zM667 218c-33 -132 -132 -218 -306 -218h-341l200 810h172h169c127 0 196 -79 165 -206
c-20 -79 -78 -150 -162 -178v-2c101 -30 126 -110 103 -206zM520 971c28 0 38 -19 31 -48s-27 -48 -55 -48s-38 19 -31 48s27 48 55 48z" />
    <glyph glyph-name="bdotaccent" unicode="&#x1e03;" 
d="M583 311c36 148 8 287 -155 287c-154 0 -254 -127 -294 -287c-38 -154 2 -280 153 -280c163 0 259 131 296 280zM626 311c-47 -189 -169 -321 -347 -321c-98 0 -166 49 -183 139h-2l-32 -129h-42l207 840h43l-85 -343h2c66 93 155 142 253 142c179 0 233 -135 186 -328z
M480 803c29 0 39 -19 32 -48c-8 -29 -28 -48 -55 -48c-28 0 -39 19 -31 48c7 29 26 48 54 48z" />
    <glyph glyph-name="Cdotaccent" unicode="&#x10a;" horiz-adv-x="718" 
d="M796 716l-43 -35c-36 60 -104 96 -207 96c-228 0 -366 -174 -416 -378c-50 -201 1 -366 231 -366c102 0 189 36 254 95l25 -34c-77 -65 -174 -104 -290 -104c-243 0 -328 160 -266 410s235 420 472 420c118 0 195 -39 240 -104zM591 971c28 0 39 -19 31 -48
c-7 -29 -27 -48 -55 -48s-38 19 -31 48s27 48 55 48z" />
    <glyph glyph-name="cdotaccent" unicode="&#x10b;" horiz-adv-x="553" 
d="M447 95l22 -32c-63 -49 -134 -73 -214 -73c-185 0 -240 132 -193 320c47 191 182 330 355 330c84 0 134 -23 171 -64l-38 -32c-29 35 -81 55 -143 54c-159 -1 -266 -139 -303 -288c-35 -144 -5 -279 161 -279c65 0 126 20 182 64zM453 803c28 0 38 -19 31 -48
s-27 -48 -55 -48s-38 19 -31 48s27 48 55 48z" />
    <glyph glyph-name="Ddotaccent" unicode="&#x1e0a;" horiz-adv-x="768" 
d="M480 767h-231l3 -5l-176 -715l-6 -4h237c261 0 346 181 391 362c44 179 49 362 -218 362zM744 405c-49 -201 -151 -405 -438 -405h-286l200 810h282c279 0 296 -189 242 -405zM520 971c29 0 39 -19 32 -48c-8 -29 -28 -48 -55 -48c-28 0 -39 19 -32 48c8 29 27 48 55 48z
" />
    <glyph glyph-name="ddotaccent" unicode="&#x1e0b;" 
d="M553 311c40 160 3 287 -151 287c-163 0 -261 -139 -298 -287c-36 -148 -5 -280 158 -280c152 0 253 126 291 280zM721 839l-207 -838h-42l31 128h-2c-61 -90 -153 -139 -251 -139c-178 0 -235 132 -188 321c47 193 169 328 349 328c97 0 161 -49 181 -142h2l85 342h42z
M450 803c28 0 38 -19 31 -48s-27 -48 -55 -48s-38 19 -31 48s27 48 55 48z" />
    <glyph glyph-name="Edotaccent" unicode="&#x116;" horiz-adv-x="698" 
d="M570 43l-11 -43h-539l200 810h539l-10 -43h-500l3 -5l-81 -330l-6 -5h452l-10 -43h-453l4 -5l-82 -331l-6 -5h500zM535 971c28 0 39 -19 31 -48c-7 -29 -27 -48 -55 -48s-38 19 -31 48c8 29 27 48 55 48z" />
    <glyph glyph-name="edotaccent" unicode="&#x117;" horiz-adv-x="649" 
d="M106 336l464 1l-4 4c26 143 -12 257 -160 257c-147 0 -248 -116 -293 -257zM602 310l-3 -13v0l-503 -1l4 -5c-29 -153 16 -260 170 -260c65 0 129 23 186 65l23 -32c-66 -49 -142 -74 -219 -74c-195 0 -243 140 -198 320c44 181 170 330 354 330c200 0 227 -165 186 -330
zM456 803c28 0 39 -19 31 -48c-7 -29 -27 -48 -55 -48s-38 19 -31 48s27 48 55 48z" />
    <glyph glyph-name="Fdotaccent" unicode="&#x1e1e;" horiz-adv-x="639" 
d="M739 810l-10 -43h-480l3 -5l-86 -351l-6 -5h432l-11 -44h-432l4 -4l-89 -358h-44l200 810h519zM533 971c29 0 39 -19 31 -48c-7 -29 -27 -48 -54 -48c-29 0 -39 19 -32 48c8 29 27 48 55 48z" />
    <glyph glyph-name="fdotaccent" unicode="&#x1e1f;" horiz-adv-x="360" 
d="M-139 -215c-30 0 -50 4 -70 11l10 41c19 -7 45 -11 64 -11c85 0 138 41 170 172l145 587l5 5h-79l10 39h78l-2 5l7 28c28 113 108 183 220 183c20 0 43 -4 58 -10l-9 -39c-17 5 -42 9 -57 9c-90 0 -148 -54 -170 -145l-6 -26l-4 -5h196l-10 -39h-196l2 -5l-146 -590
c-39 -157 -109 -210 -216 -210zM415 991c28 0 38 -19 31 -48s-27 -48 -55 -48s-38 19 -31 48s27 48 55 48z" />
    <glyph glyph-name="Gdotaccent" unicode="&#x120;" horiz-adv-x="831" 
d="M778 428l-105 -428h-37l49 199h-2c-60 -104 -187 -209 -334 -209c-238 0 -329 153 -266 406c64 262 240 424 475 424c103 0 197 -29 250 -102l-43 -35c-44 68 -132 94 -217 94c-219 0 -362 -153 -418 -381c-55 -220 14 -363 230 -363c168 0 320 143 368 347l6 5h-268
l11 43h301zM594 971c28 0 39 -19 31 -48c-7 -29 -27 -48 -55 -48s-38 19 -31 48s27 48 55 48z" />
    <glyph glyph-name="gdotaccent" unicode="&#x121;" 
d="M563 349c33 136 -13 250 -162 250c-153 0 -253 -110 -287 -250c-36 -144 14 -246 165 -246c153 0 251 113 284 246zM627 630h42l-144 -584c-41 -168 -144 -261 -322 -261c-83 0 -151 23 -201 68l39 33c40 -38 106 -61 171 -61c145 0 236 81 271 222l36 145h-2
c-59 -77 -146 -130 -250 -130c-178 0 -238 117 -196 287c41 164 161 291 339 291c105 0 170 -58 184 -134h2zM457 803c28 0 39 -19 31 -48c-7 -29 -27 -48 -55 -48s-38 19 -31 48s27 48 55 48z" />
    <glyph glyph-name="Idotaccent" unicode="&#x130;" horiz-adv-x="233" 
d="M269 810l-200 -810h-44l200 810h44zM287 971c28 0 39 -19 31 -48c-7 -29 -27 -48 -54 -48c-29 0 -39 19 -32 48c8 29 27 48 55 48z" />
    <glyph glyph-name="Mdotaccent" unicode="&#x1e40;" horiz-adv-x="915" 
d="M956 810l-199 -810h-45l175 708h-2l-90 -138l-408 -580h-3l-122 583l-21 136h-2l-175 -709h-44l200 810h40l132 -625l17 -97h2l65 98l440 624h40zM628 971c28 0 38 -19 31 -48s-27 -48 -55 -48s-38 19 -31 48s27 48 55 48z" />
    <glyph glyph-name="mdotaccent" unicode="&#x1e41;" horiz-adv-x="946" 
d="M888 384l-96 -384h-43l90 364c34 138 28 235 -94 234c-112 0 -195 -100 -222 -209l-95 -389h-43l93 380c33 131 20 219 -98 219c-102 0 -193 -95 -223 -217l-94 -382h-43l155 630h43l-28 -117h2c48 76 124 127 207 127c97 0 137 -64 141 -135h3c54 84 140 135 220 135
c122 0 168 -81 125 -256zM605 803c28 0 39 -19 31 -48c-7 -29 -27 -48 -55 -48s-38 19 -31 48s27 48 55 48z" />
    <glyph glyph-name="Pdotaccent" unicode="&#x1e56;" horiz-adv-x="714" 
d="M694 570c29 117 -16 197 -144 197h-301l4 -5l-95 -384l-6 -4h300c129 0 215 84 242 196zM741 570c-34 -134 -142 -240 -299 -240h-301l4 -5l-81 -325h-44l200 810h341c157 0 214 -99 180 -240zM520 971c28 0 38 -19 31 -48s-27 -48 -55 -48s-38 19 -31 48s27 48 55 48z
" />
    <glyph glyph-name="pdotaccent" unicode="&#x1e57;" 
d="M585 318c36 149 5 280 -158 280c-151 0 -253 -126 -291 -280c-40 -160 -2 -287 152 -287c163 0 260 140 297 287zM627 318c-47 -192 -169 -328 -348 -328c-98 0 -162 49 -182 143h-2l-85 -343h-42l207 840h43l-32 -130h2c61 90 153 140 252 140c178 0 234 -133 187 -322z
M478 803c29 0 39 -19 32 -48c-8 -29 -28 -48 -55 -48c-28 0 -39 19 -31 48c7 29 26 48 54 48z" />
    <glyph glyph-name="Sdotaccent" unicode="&#x1e60;" horiz-adv-x="701" 
d="M632 204c-24 -101 -123 -214 -347 -214c-117 0 -216 40 -278 116l45 36c59 -71 141 -109 241 -109c168 0 269 74 292 168c18 74 -22 136 -135 171c-17 5 -120 38 -137 43c-135 43 -199 95 -173 201c25 102 133 204 343 204c107 0 190 -38 242 -105l-43 -35
c-43 59 -117 97 -209 97c-159 0 -263 -66 -286 -159c-21 -86 47 -124 165 -162c17 -5 108 -35 126 -40c140 -45 177 -122 154 -212zM519 971c29 0 39 -19 32 -48c-8 -29 -28 -48 -55 -48c-28 0 -39 19 -32 48c8 29 27 48 55 48z" />
    <glyph glyph-name="sdotaccent" unicode="&#x1e61;" horiz-adv-x="572" 
d="M487 159c-20 -82 -98 -170 -268 -170c-87 0 -164 29 -213 94l41 33c48 -58 105 -85 180 -85c113 0 197 48 216 126c16 64 -16 99 -97 125c-12 4 -90 31 -102 35c-102 34 -154 76 -133 161c20 80 103 162 261 162c84 0 148 -30 189 -86l-41 -33c-33 48 -84 77 -158 77
c-110 0 -190 -50 -207 -118c-16 -65 35 -96 125 -125c12 -4 79 -28 92 -33c109 -35 133 -92 115 -163zM411 803c28 0 38 -19 31 -48s-27 -48 -55 -48s-39 19 -31 48c7 29 27 48 55 48z" />
    <glyph glyph-name="Tdotaccent" unicode="&#x1e6a;" horiz-adv-x="658" 
d="M769 810l-10 -43h-291l2 -5l-188 -762h-44l188 762l4 5h-290l10 43h619zM500 971c28 0 38 -19 31 -48s-27 -48 -55 -48s-39 19 -31 48c7 29 27 48 55 48z" />
    <glyph glyph-name="tdotaccent" unicode="&#x1e6b;" horiz-adv-x="405" 
d="M314 72l22 -31c-53 -34 -103 -51 -156 -51c-89 0 -132 60 -102 181l102 414l4 5h-78l10 40h78l-2 5l29 115l48 23l-34 -138l-4 -5h196l-10 -40h-196l2 -5l-102 -410c-24 -98 6 -144 73 -144c41 0 81 14 120 41zM288 926c28 0 39 -19 31 -48c-7 -29 -27 -48 -55 -48
s-38 19 -31 48s27 48 55 48z" />
    <glyph glyph-name="Zdotaccent" unicode="&#x17b;" horiz-adv-x="732" 
d="M614 43l-11 -43h-613l9 37l662 664l73 64l1 2h-546l11 43h598l-10 -41l-655 -655l-78 -69v-2h559zM529 971c29 0 39 -19 32 -48c-8 -29 -28 -48 -55 -48c-29 0 -39 19 -32 48c8 29 27 48 55 48z" />
    <glyph glyph-name="zdotaccent" unicode="&#x17c;" horiz-adv-x="610" 
d="M491 40l-10 -40h-491l9 35l512 502l61 50l1 2h-430l10 40h480l-8 -32l-515 -504l-60 -51l-1 -2h442zM434 803c28 0 38 -19 31 -48s-27 -48 -55 -48s-38 19 -31 48s27 48 55 48z" />
    <glyph glyph-name="tironianet" unicode="&#x204a;" horiz-adv-x="420" 
d="M452 630l-9 -34l-151 -276c-22 -40 -44 -102 -58 -160l-40 -161h-41l42 171c15 60 37 121 58 158l103 187l48 73l-1 1h-292l10 41h331z" />
    <glyph glyph-name="longs" unicode="&#x17f;" horiz-adv-x="341" 
d="M235 634l-158 -639c-39 -157 -109 -210 -216 -210c-30 0 -50 4 -70 11l10 41c19 -7 45 -11 64 -11c85 0 138 41 170 172l157 637l7 27c28 113 108 183 220 183c20 0 43 -4 58 -10l-9 -39c-17 5 -42 9 -57 9c-90 0 -148 -54 -170 -145z" />
    <glyph glyph-name="softhyphen" unicode="&#xad;" horiz-adv-x="351" 
d="M338 348l-11 -45h-292l11 45h292z" />
    </font>
</defs>
</svg>
