<?xml version="1.0" standalone="no"?>
<!DOCTYPE svg PUBLIC "-//W3C//DTD SVG 1.1//EN" "http://www.w3.org/Graphics/SVG/1.1/DTD/svg11.dtd" >
<svg>
<metadata>
Created by FontForge 20120731 at Mon Mar  6 21:49:22 2017
 By www-data
Sinkin Sans is a trademark of K-Type.
</metadata>
<defs>
<font id="SinkinSans-200XLight" horiz-adv-x="656" >
  <font-face 
    font-family="Sinkin Sans 200 X Light"
    font-weight="200"
    font-stretch="normal"
    units-per-em="1000"
    panose-1="0 0 0 0 0 0 0 0 0 0"
    ascent="810"
    descent="-190"
    x-height="629"
    cap-height="810"
    bbox="-100 -251.072 1242 1202"
    underline-thickness="50"
    underline-position="-50"
    stemv="43"
    unicode-range="U+0009-FB02"
  />
<missing-glyph horiz-adv-x="1000" 
 />
    <glyph glyph-name=".notdef" horiz-adv-x="1000" 
 />
    <glyph glyph-name="space" unicode=" " horiz-adv-x="310" 
 />
    <glyph glyph-name="exclam" unicode="!" horiz-adv-x="235" 
d="M118 95c31 0 47 -20 47 -52s-17 -53 -47 -53c-32 0 -48 20 -48 53c0 32 17 52 48 52zM88 810h60l-16 -643h-29z" />
    <glyph glyph-name="quotedbl" unicode="&#x22;" horiz-adv-x="284" 
d="M55 840h55l-15 -279h-25zM174 840h55l-16 -279h-24z" />
    <glyph glyph-name="numbersign" unicode="#" horiz-adv-x="663" 
d="M471 529l6 6h-223l1 -6l-62 -247l-5 -7h221l-2 7zM633 582v-47h-123l2 -6l-64 -247l-5 -7h113v-47h-125l2 -5l-58 -223h-41l57 222l5 6h-220l1 -6l-57 -222h-41l57 221l6 7h-112v47h123l-1 7l63 247l6 6h-114v47h124l-2 6l58 222h41l-58 -222l-4 -6h221l-2 7l58 221h41
l-57 -221l-5 -7h111z" />
    <glyph glyph-name="dollar" unicode="$" horiz-adv-x="696" 
d="M579 181c0 64 -48 120 -165 152c-4 1 -40 11 -54 15l3 -5v-304l-3 -5c153 5 219 68 219 147zM328 689l3 5c-144 -3 -220 -61 -220 -140c0 -75 69 -109 190 -143l30 -8l-3 6v280zM626 184c0 -89 -61 -186 -266 -192l3 -5v-97h-35v97l3 5c-108 3 -200 38 -276 105l38 35
c69 -61 144 -95 239 -98l-4 5v312l4 4c-11 3 -57 14 -60 16c-139 37 -209 85 -209 181c0 91 76 180 268 184l-3 6v97h35v-99l-3 -5c99 -4 171 -38 235 -94l-36 -34c-51 49 -114 81 -199 86l3 -4v-290l-2 -4c29 -8 61 -17 70 -20c146 -40 195 -110 195 -191z" />
    <glyph glyph-name="percent" unicode="%" horiz-adv-x="770" 
d="M297 590c0 95 -23 187 -112 187c-86 0 -112 -89 -112 -187c0 -95 28 -181 112 -181c83 0 112 82 112 181zM340 590c0 -134 -54 -224 -155 -224c-100 0 -155 90 -155 224c0 135 57 230 155 230c99 0 155 -95 155 -230zM507 820h41l-284 -830h-41zM696 213
c0 95 -23 187 -112 187c-86 0 -112 -90 -112 -187c0 -95 28 -181 112 -181c83 0 112 82 112 181zM740 213c0 -134 -55 -224 -156 -224c-100 0 -155 90 -155 224s58 230 155 230c99 0 156 -95 156 -230z" />
    <glyph glyph-name="ampersand" unicode="&#x26;" horiz-adv-x="692" 
d="M555 104l-6 2l-253 304v6c-17 -10 -55 -32 -73 -44c-20 -13 -39 -26 -56 -42c-34 -33 -64 -75 -64 -134c0 -120 115 -164 237 -164c82 0 151 14 215 72zM474 637c0 76 -60 139 -134 139c-75 0 -135 -60 -135 -139c0 -36 14 -67 34 -93c15 -20 60 -75 66 -81v-6
c18 9 38 20 54 29c79 45 115 84 115 151zM612 94l80 -94h-54l-54 65l-1 5c-65 -58 -147 -81 -244 -81c-173 0 -284 80 -284 207c0 98 77 174 218 247l-7 2c-6 6 -47 56 -56 68c-10 12 -18 25 -25 38c-15 26 -23 54 -23 89c0 99 79 178 176 178c99 0 179 -79 179 -178
c0 -79 -39 -124 -132 -179c-16 -10 -46 -26 -56 -31l6 -3c22 -26 215 -257 245 -294l2 -6c29 39 39 74 41 106h49c-4 -42 -23 -91 -64 -137z" />
    <glyph glyph-name="quoteright" unicode="&#x2019;" horiz-adv-x="180" 
d="M135 770c0 -10 -3 -22 -7 -32l-52 -124l-30 14l36 86l8 6c-31 -1 -45 22 -45 50c0 30 16 50 45 50c30 0 45 -20 45 -50z" />
    <glyph glyph-name="parenleft" unicode="(" horiz-adv-x="227" 
d="M183 907h34c-81 -177 -120 -351 -120 -536c0 -192 35 -382 120 -562h-34c-101 191 -143 360 -143 549c0 191 46 367 143 549z" />
    <glyph glyph-name="parenright" unicode=")" horiz-adv-x="227" 
d="M187 358c0 -189 -42 -358 -143 -549h-34c85 180 120 370 120 562c0 185 -38 359 -120 536h34c97 -182 143 -358 143 -549z" />
    <glyph glyph-name="asterisk" unicode="*" horiz-adv-x="568" 
d="M309 620l204 -37l-9 -41l-198 55l97 -182l-38 -18l-81 189l-81 -190l-38 18l97 182l-198 -54l-9 41l203 38l-167 121l26 33l156 -137l-10 207h42l-9 -208l155 137l26 -33z" />
    <glyph glyph-name="plus" unicode="+" horiz-adv-x="673" 
d="M583 428v-46h-228l4 -5v-239h-44v239l3 5h-228v46h228l-3 5v240h44v-240l-4 -5h228z" />
    <glyph glyph-name="comma" unicode="," horiz-adv-x="225" 
d="M155 43c0 -10 -3 -22 -7 -33l-56 -130l-31 14l38 91l8 6c-32 -1 -47 24 -47 52c0 33 17 53 48 53s47 -20 47 -53z" />
    <glyph glyph-name="hyphen" unicode="-" horiz-adv-x="355" 
d="M325 348v-45h-295v45h295z" />
    <glyph glyph-name="period" unicode="." horiz-adv-x="225" 
d="M108 95c31 0 47 -20 47 -52s-17 -53 -47 -53c-32 0 -48 20 -48 53c0 32 17 52 48 52z" />
    <glyph glyph-name="slash" unicode="/" horiz-adv-x="194" 
d="M220 860h44l-290 -910h-44z" />
    <glyph glyph-name="zero" unicode="0" horiz-adv-x="705" 
d="M603 400c0 186 -57 377 -250 377c-186 0 -251 -186 -251 -377s60 -367 250 -367c188 0 251 168 251 367zM650 400c0 -255 -105 -410 -298 -410c-191 0 -297 155 -297 410s113 420 297 420c188 0 298 -164 298 -420z" />
    <glyph glyph-name="one" unicode="1" horiz-adv-x="341" 
d="M241 810v-810h-45v680l4 77h-2l-46 -59l-98 -103l-34 31l178 184h43z" />
    <glyph glyph-name="two" unicode="2" horiz-adv-x="631" 
d="M576 610c0 -91 -46 -171 -190 -223l-128 -47c-107 -39 -158 -126 -157 -232c-2 -2 1 -57 1 -60l-5 -5h478v-43h-519l-1 115c-1 112 53 220 187 269l112 41c125 47 174 101 174 185c0 83 -54 167 -205 167c-83 0 -160 -35 -213 -95l-33 34c61 68 147 104 247 104
c185 0 252 -109 252 -210z" />
    <glyph glyph-name="three" unicode="3" horiz-adv-x="645" 
d="M590 214c0 -105 -75 -224 -280 -224c-109 0 -190 40 -255 104l34 36c53 -56 128 -97 221 -97c164 0 233 93 233 181c0 103 -74 174 -212 188c-24 3 -74 3 -102 4v41c28 1 79 2 98 4c146 16 199 94 199 171c0 80 -65 154 -215 154c-87 0 -161 -33 -214 -90l-34 37
c62 63 144 97 248 97c187 0 263 -100 263 -197c0 -75 -46 -159 -167 -192v-3c129 -34 183 -120 183 -214z" />
    <glyph glyph-name="four" unicode="4" horiz-adv-x="670" 
d="M480 655l4 86h-2l-42 -58l-302 -387l-45 -48v-2h390l-3 5v404zM630 246v-44l-108 1l3 -6v-197h-45v197l3 6l-443 -1v38l449 570h36v-559l-3 -5h108z" />
    <glyph glyph-name="five" unicode="5" horiz-adv-x="661" 
d="M606 255c0 -136 -84 -266 -289 -266c-116 0 -191 40 -262 126l32 34c59 -75 134 -117 230 -117c173 0 242 113 242 223c0 112 -73 225 -235 225c-85 0 -162 -27 -223 -85l-31 29l43 386h435v-43l-400 -1l4 -4l-29 -247l-13 -63l2 -1c58 48 130 72 213 72
c190 0 281 -127 281 -268z" />
    <glyph glyph-name="six" unicode="6" horiz-adv-x="698" 
d="M597 255c1 103 -73 225 -234 225c-152 0 -240 -120 -241 -226c-1 -101 78 -222 235 -222c155 0 239 113 240 223zM643 255c-1 -133 -90 -266 -288 -266c-197 0 -300 151 -300 399c0 205 89 432 311 432c100 0 177 -28 245 -102l-34 -36c-56 68 -128 95 -211 95
c-189 0 -265 -201 -264 -378c0 -14 0 -35 2 -50h2c49 124 154 174 258 174c187 0 280 -130 279 -268z" />
    <glyph glyph-name="seven" unicode="7" horiz-adv-x="612" 
d="M582 810v-38l-222 -310c-71 -99 -92 -197 -92 -339v-123h-45v129c0 153 22 247 98 353l154 216l57 67v2h-502v43h552z" />
    <glyph glyph-name="eight" unicode="8" horiz-adv-x="702" 
d="M600 220c0 111 -104 191 -250 191c-145 0 -247 -78 -247 -191c0 -90 87 -187 248 -187c160 0 249 99 249 187zM352 776c-153 0 -221 -81 -221 -164c0 -81 77 -166 219 -166c143 0 221 85 221 166c0 83 -66 164 -219 164zM647 218c0 -105 -95 -228 -296 -228
c-199 0 -296 123 -296 228c0 100 56 172 178 211v2c-103 39 -149 108 -149 187c0 100 74 202 267 202s268 -102 268 -202c0 -79 -48 -149 -151 -186v-2c122 -39 179 -114 179 -212z" />
    <glyph glyph-name="nine" unicode="9" horiz-adv-x="698" 
d="M576 557c0 116 -94 220 -234 220c-144 0 -241 -102 -241 -224c0 -118 91 -223 234 -223c138 0 241 107 241 227zM643 422c0 -206 -89 -433 -311 -433c-100 0 -177 29 -244 103l34 36c56 -69 127 -96 210 -96c190 0 265 202 265 378c0 14 -1 35 -2 51h-2
c-49 -124 -153 -174 -258 -174c-169 0 -280 113 -280 264c0 155 110 269 288 269c210 0 300 -167 300 -398z" />
    <glyph glyph-name="colon" unicode=":" horiz-adv-x="235" 
d="M118 95c31 0 47 -20 47 -53c0 -32 -17 -52 -47 -52c-32 0 -48 20 -48 52s17 53 48 53zM118 574c31 0 47 -20 47 -52s-17 -53 -47 -53c-32 0 -48 21 -48 53s17 52 48 52z" />
    <glyph glyph-name="semicolon" unicode=";" horiz-adv-x="235" 
d="M165 43c0 -10 -3 -22 -7 -33l-56 -130l-31 14l38 91l8 6c-32 -1 -47 24 -47 52c0 33 17 53 48 53s47 -20 47 -53zM118 575c31 0 47 -21 47 -53s-17 -52 -47 -52c-32 0 -48 20 -48 52s17 53 48 53z" />
    <glyph glyph-name="less" unicode="&#x3c;" horiz-adv-x="455" 
d="M55 405l278 291l32 -32l-197 -203l-59 -55v-2l59 -55l196 -201l-32 -32z" />
    <glyph glyph-name="equal" unicode="=" horiz-adv-x="675" 
d="M585 305v-44h-495v44h495zM585 549v-43h-495v43h495z" />
    <glyph glyph-name="greater" unicode="&#x3e;" horiz-adv-x="455" 
d="M122 696l278 -291l-277 -289l-33 32l196 201l60 55v2l-60 55l-196 203z" />
    <glyph glyph-name="question" unicode="?" horiz-adv-x="579" 
d="M233 95c31 0 47 -20 47 -52s-17 -53 -47 -53c-31 0 -48 20 -48 53c0 32 17 52 48 52zM524 621c0 -84 -48 -140 -120 -175l-34 -16c-92 -44 -114 -90 -114 -201v-61h-46v71c0 120 24 176 142 233l25 12c65 32 100 72 100 137c0 80 -81 156 -183 156
c-88 0 -153 -35 -204 -97l-35 35c60 68 137 105 239 105c150 0 230 -110 230 -199z" />
    <glyph glyph-name="at" unicode="@" horiz-adv-x="974" 
d="M595 451c0 63 -16 148 -106 148c-108 0 -178 -128 -178 -227c0 -88 30 -169 119 -169c116 0 165 152 165 248zM904 446c0 -135 -85 -281 -218 -281c-52 0 -95 35 -109 87h-2c-37 -54 -89 -88 -154 -88c-104 0 -156 91 -156 201c0 130 91 271 233 271
c63 0 108 -48 118 -106h2l25 96h43l-62 -252c-7 -28 -12 -58 -12 -88c0 -46 37 -84 78 -84c120 0 174 144 174 242c0 202 -165 367 -363 367c-213 0 -391 -181 -391 -397c0 -228 169 -406 394 -406c68 0 140 22 195 58l26 -26c-62 -40 -143 -66 -216 -66
c-254 0 -439 186 -439 442c0 235 200 429 429 429c219 0 405 -175 405 -399z" />
    <glyph glyph-name="A" unicode="A" horiz-adv-x="765" 
d="M174 261h416l-6 6l-178 419l-22 71h-2l-23 -71l-179 -420zM403 810l347 -810h-51l-92 214l2 4h-454l2 -5l-91 -213h-51l348 810h40z" />
    <glyph glyph-name="B" unicode="B" horiz-adv-x="734" 
d="M641 219c0 111 -73 177 -208 177h-302l5 -4v-344l-4 -5h302c139 0 207 61 207 176zM604 604c0 112 -73 163 -189 163h-283l4 -5v-318l-5 -4h284c138 0 189 77 189 164zM689 218c0 -132 -79 -218 -255 -218h-344v810h174h171c128 0 217 -79 217 -206
c0 -79 -41 -150 -118 -178v-2c109 -30 155 -110 155 -206z" />
    <glyph glyph-name="C" unicode="C" horiz-adv-x="725" 
d="M695 716l-34 -35c-51 60 -129 96 -233 96c-231 0 -326 -174 -326 -378c0 -201 92 -366 325 -366c103 0 181 36 233 95l33 -34c-61 -65 -149 -104 -267 -104c-245 0 -371 160 -371 410s132 420 372 420c120 0 207 -39 268 -104z" />
    <glyph glyph-name="D" unicode="D" horiz-adv-x="776" 
d="M364 767h-234l5 -5v-715l-5 -4h239c264 0 305 181 305 362c0 179 -41 362 -310 362zM721 405c0 -201 -52 -405 -342 -405h-289v810h285c282 0 346 -189 346 -405z" />
    <glyph glyph-name="E" unicode="E" horiz-adv-x="705" 
d="M635 43v-43h-545v810h545v-43h-505l5 -5v-330l-5 -5h457v-43h-457l5 -5v-331l-5 -5h505z" />
    <glyph glyph-name="F" unicode="F" horiz-adv-x="645" 
d="M615 810v-43h-485l5 -5v-351l-5 -5h437v-44h-437l5 -4v-358h-45v810h525z" />
    <glyph glyph-name="G" unicode="G" horiz-adv-x="839" 
d="M749 428v-428h-37v199h-2c-34 -104 -136 -209 -285 -209c-240 0 -370 153 -370 406c0 262 137 424 374 424c104 0 206 -29 278 -102l-35 -35c-61 68 -156 94 -242 94c-222 0 -328 -153 -328 -381c0 -220 105 -363 323 -363c170 0 288 143 285 347l5 5h-270v43h304z" />
    <glyph glyph-name="H" unicode="H" horiz-adv-x="795" 
d="M705 810v-810h-45v379l5 5h-535l5 -5v-379h-45v810h45v-378l-5 -5h535l-5 5v378h45z" />
    <glyph glyph-name="I" unicode="I" horiz-adv-x="235" 
d="M140 810v-810h-45v810h45z" />
    <glyph glyph-name="J" unicode="J" horiz-adv-x="556" 
d="M426 810h45v-521c0 -228 -121 -299 -264 -299c-81 0 -156 40 -207 103l33 34c44 -56 109 -94 174 -94c116 0 219 59 219 252v525z" />
    <glyph glyph-name="K" unicode="K" horiz-adv-x="646" 
d="M135 810v-810h-45v810h45zM208 409l438 -409h-66l-435 409l424 401h65l-426 -399v-2z" />
    <glyph glyph-name="L" unicode="L" horiz-adv-x="603" 
d="M588 43v-43h-498v810h45v-762l-5 -5h458z" />
    <glyph glyph-name="M" unicode="M" horiz-adv-x="924" 
d="M834 810v-810h-45v708h-2l-56 -138l-268 -580h-2l-269 583l-55 136h-2v-709h-45v810h41l289 -625l41 -97h2l41 98l289 624h41z" />
    <glyph glyph-name="N" unicode="N" horiz-adv-x="795" 
d="M705 810v-810h-42l-459 634l-67 104h-2v-738h-45v810h42l460 -635l66 -103h2v738h45z" />
    <glyph glyph-name="O" unicode="O" horiz-adv-x="819" 
d="M717 400c0 196 -84 377 -307 377c-222 0 -308 -178 -308 -377s87 -367 308 -367c220 0 307 169 307 367zM764 400c0 -251 -126 -410 -355 -410c-232 0 -354 159 -354 410s124 420 354 420c232 0 355 -168 355 -420z" />
    <glyph glyph-name="P" unicode="P" horiz-adv-x="721" 
d="M629 570c0 117 -66 197 -195 197h-304l5 -5v-384l-5 -4h303c131 0 196 84 196 196zM676 570c0 -134 -83 -240 -242 -240h-304l5 -5v-325h-45v810h345c158 0 241 -99 241 -240z" />
    <glyph glyph-name="Q" unicode="Q" horiz-adv-x="825" 
d="M717 406c0 194 -84 371 -307 371c-222 0 -308 -171 -308 -371c0 -196 87 -373 308 -373c86 0 160 28 211 81l7 1l-134 134l30 32l131 -132v8c47 70 62 161 62 249zM685 118l128 -127l-30 -31l-126 126c-67 -67 -144 -96 -248 -96c-231 0 -354 166 -354 416
s123 414 354 414c233 0 355 -162 355 -414c0 -114 -21 -204 -79 -288z" />
    <glyph glyph-name="R" unicode="R" horiz-adv-x="727" 
d="M619 582c0 132 -88 185 -199 185h-290l5 -6v-357l-5 -6h279c147 0 210 89 210 184zM613 231l109 -231h-53l-97 212c-45 98 -111 143 -226 143h-215l4 -5v-350h-45v810h330c139 0 246 -73 246 -228c0 -102 -59 -190 -182 -216v-2c63 -22 104 -78 129 -133z" />
    <glyph glyph-name="S" unicode="S" horiz-adv-x="708" 
d="M658 204c0 -101 -71 -214 -298 -214c-118 0 -227 40 -310 116l37 36c78 -71 170 -109 271 -109c169 0 253 74 253 168c0 74 -56 136 -179 171c-18 5 -131 38 -150 43c-146 43 -224 95 -224 201c0 102 84 204 295 204c109 0 202 -38 271 -105l-35 -35
c-58 59 -142 97 -235 97c-160 0 -249 -66 -249 -159c0 -86 79 -124 207 -162l137 -40c153 -45 209 -122 209 -212z" />
    <glyph glyph-name="T" unicode="T" horiz-adv-x="665" 
d="M645 810v-43h-293l3 -5v-762h-45v762l3 5h-293v43h625z" />
    <glyph glyph-name="U" unicode="U" horiz-adv-x="807" 
d="M677 810h45v-441c0 -251 -102 -379 -318 -379s-319 127 -319 379v441h45v-445c0 -201 76 -332 274 -332c197 0 273 130 273 332v445z" />
    <glyph glyph-name="V" unicode="V" horiz-adv-x="746" 
d="M680 810h51l-334 -810h-48l-334 810h52l277 -676l29 -87h2l28 88z" />
    <glyph glyph-name="W" unicode="W" horiz-adv-x="983" 
d="M908 810h50l-221 -810h-54l-172 634l-19 90h-1l-20 -90l-171 -634h-55l-220 810h50l180 -674l16 -86h2l16 86l184 674h37l184 -677l15 -83h2l16 84z" />
    <glyph glyph-name="X" unicode="X" horiz-adv-x="666" 
d="M362 407l284 -407h-58l-209 304l-45 71h-2l-44 -71l-210 -304h-58l285 407l-282 403h58l208 -298l44 -71h2l44 71l207 298h58z" />
    <glyph glyph-name="Y" unicode="Y" horiz-adv-x="705" 
d="M632 810h58l-314 -466v-344h-46v344l-315 466h59l228 -344l51 -83v0l49 83z" />
    <glyph glyph-name="Z" unicode="Z" horiz-adv-x="739" 
d="M679 43v-43h-619v35l501 666l59 64v2h-550v43h605v-37l-498 -659l-62 -69v-2h564z" />
    <glyph glyph-name="bracketleft" unicode="[" horiz-adv-x="259" 
d="M249 -153v-37h-189v1097h189v-38h-148v-1022h148z" />
    <glyph glyph-name="backslash" unicode="\" horiz-adv-x="275" 
d="M14 860l291 -910h-45l-290 910h44z" />
    <glyph glyph-name="bracketright" unicode="]" horiz-adv-x="259" 
d="M199 907v-1097h-189v38h148v1021h-148v38h189z" />
    <glyph glyph-name="asciicircum" unicode="^" horiz-adv-x="611" 
d="M320 810l216 -395h-48l-151 279l-31 64h-2l-30 -64l-151 -279h-48l216 395h29z" />
    <glyph glyph-name="underscore" unicode="_" horiz-adv-x="658" 
d="M668 -118v-41h-678v41h678z" />
    <glyph glyph-name="quoteleft" unicode="&#x2018;" horiz-adv-x="180" 
d="M45 668c0 10 3 21 7 31l53 124l30 -13l-37 -87l-7 -6c30 2 44 -22 44 -49c0 -31 -15 -50 -45 -50c-29 0 -45 19 -45 50z" />
    <glyph glyph-name="a" unicode="a" horiz-adv-x="646" 
d="M518 320l5 5c-20 3 -62 5 -83 5c-28 0 -62 0 -97 -2c-37 -2 -74 -5 -109 -13c-71 -18 -136 -55 -136 -143c0 -118 125 -142 191 -142c73 0 229 31 229 143v147zM561 418v-418h-43v81h-2c-42 -59 -133 -92 -228 -92c-125 0 -233 51 -233 183c0 191 223 196 377 196
c28 0 69 -3 91 -7l-5 5v49c0 141 -91 183 -197 183c-63 0 -139 -16 -197 -59l-30 30c70 52 145 70 227 70c129 0 240 -53 240 -221z" />
    <glyph glyph-name="b" unicode="b" horiz-adv-x="679" 
d="M581 311c0 148 -63 287 -228 287c-156 0 -225 -127 -225 -287c0 -154 71 -280 225 -280c164 0 228 131 228 280zM624 311c0 -189 -90 -321 -269 -321c-100 0 -180 49 -220 139h-2v-129h-43v840h43v-343h2c44 93 121 142 220 142c180 0 269 -135 269 -328z" />
    <glyph glyph-name="c" unicode="c" horiz-adv-x="558" 
d="M498 95l30 -32c-51 -49 -117 -73 -198 -73c-186 0 -275 132 -275 320c0 191 102 330 276 330c85 0 142 -23 189 -64l-30 -32c-38 35 -95 55 -158 54c-161 -1 -234 -139 -234 -288c0 -144 64 -279 231 -279c67 0 124 20 169 64z" />
    <glyph glyph-name="d" unicode="d" horiz-adv-x="679" 
d="M551 311c0 160 -68 287 -224 287c-165 0 -229 -139 -229 -287c0 -149 65 -280 229 -280c154 0 224 126 224 280zM589 839v-839h-43v129h-2c-40 -90 -120 -139 -219 -139c-180 0 -270 132 -270 321c0 193 89 328 270 328c99 0 175 -49 219 -142h2v342h43z" />
    <glyph glyph-name="e" unicode="e" 
d="M94 336l467 1l-5 4c-8 143 -76 257 -225 257s-221 -116 -232 -257zM601 310v-13v0l-508 -1l5 -5c9 -153 81 -260 236 -260c66 0 126 23 173 65l31 -32c-55 -49 -125 -74 -203 -74c-196 0 -280 140 -280 320c0 181 90 330 275 330c203 0 271 -165 271 -330z" />
    <glyph glyph-name="f" unicode="f" horiz-adv-x="364" 
d="M344 629v-39h-198l3 -5v-585h-43v585l3 5h-79v39h79l-3 5v28c0 113 63 183 177 183c20 0 44 -4 61 -10v-39c-19 5 -44 9 -59 9c-92 0 -136 -54 -136 -145v-26l-3 -5h198z" />
    <glyph glyph-name="g" unicode="g" horiz-adv-x="679" 
d="M551 349c0 136 -75 250 -225 250c-154 0 -228 -110 -228 -250c0 -144 76 -246 228 -246c155 0 225 113 225 246zM546 630h43v-584c0 -168 -81 -261 -261 -261c-83 0 -157 23 -220 68l32 33c50 -38 122 -61 188 -61c147 0 218 81 218 222v145h-2
c-40 -77 -114 -130 -219 -130c-180 0 -270 117 -270 287c0 164 90 291 269 291c106 0 186 -58 220 -134h2v124z" />
    <glyph glyph-name="h" unicode="h" horiz-adv-x="679" 
d="M594 413v-413h-43v401c0 107 -38 197 -195 197c-105 0 -223 -60 -223 -215v-383h-43v840h43v-326h2c41 82 126 126 227 126c163 0 232 -91 232 -227z" />
    <glyph glyph-name="i" unicode="i" horiz-adv-x="223" 
d="M133 629v-629h-43v629h43zM111 846c24 0 38 -15 38 -45c0 -31 -14 -46 -37 -46c-24 0 -38 15 -38 46c0 30 14 45 37 45z" />
    <glyph glyph-name="j" unicode="j" horiz-adv-x="223" 
d="M90 630h43v-692c0 -105 -48 -153 -140 -153c-18 0 -40 4 -57 11v41c16 -7 39 -11 56 -11c63 0 98 36 98 119v685zM149 801c0 -31 -14 -45 -38 -45c-23 0 -37 14 -37 45s14 45 37 45c24 0 38 -14 38 -45z" />
    <glyph glyph-name="k" unicode="k" horiz-adv-x="529" 
d="M133 840v-840h-43v840h43zM203 322l326 -322h-61l-325 324l309 305h59l-309 -305z" />
    <glyph glyph-name="l" unicode="l" horiz-adv-x="223" 
d="M133 840v-840h-43v840h43z" />
    <glyph glyph-name="m" unicode="m" horiz-adv-x="956" 
d="M871 384l-1 -384h-43v364c0 138 -30 235 -153 234c-113 0 -173 -100 -172 -209v-389h-43v380c0 131 -35 219 -154 219c-103 0 -171 -95 -171 -217v-382h-44v630h44v-117h2c29 76 94 127 178 127c98 0 154 -64 176 -135h2c35 84 109 135 190 135c122 0 189 -81 189 -256z
" />
    <glyph glyph-name="n" unicode="n" horiz-adv-x="679" 
d="M594 409v-409h-43v387c0 119 -38 211 -200 211c-119 0 -218 -73 -218 -220v-378h-43v630h43v-115h2c39 79 126 125 221 125c165 0 238 -91 238 -231z" />
    <glyph glyph-name="o" unicode="o" 
d="M558 315c0 152 -66 283 -230 283c-165 0 -230 -131 -230 -283c0 -151 66 -283 230 -283c165 0 230 131 230 283zM601 315c0 -192 -93 -325 -273 -325c-182 0 -273 131 -273 325c0 193 92 325 272 325c182 0 274 -130 274 -325z" />
    <glyph glyph-name="p" unicode="p" horiz-adv-x="679" 
d="M581 318c0 149 -64 280 -228 280c-154 0 -225 -126 -225 -280c0 -160 69 -287 225 -287c165 0 228 140 228 287zM624 318c0 -192 -89 -328 -269 -328c-99 0 -176 49 -220 143h-2v-343h-43v840h43v-130h2c40 90 120 140 220 140c179 0 269 -133 269 -322z" />
    <glyph glyph-name="q" unicode="q" horiz-adv-x="679" 
d="M551 317c0 154 -71 282 -224 282c-165 0 -229 -133 -229 -282c0 -147 63 -286 228 -286c156 0 225 127 225 286zM589 630v-840h-43v342h-2c-44 -93 -121 -142 -219 -142c-181 0 -270 135 -270 327c0 190 90 323 269 323c100 0 180 -50 220 -141h2v131h43z" />
    <glyph glyph-name="r" unicode="r" horiz-adv-x="376" 
d="M356 634v-49h-10c-105 1 -213 -79 -213 -275v-310h-43v629h43v-158h2c30 104 117 163 216 163h5z" />
    <glyph glyph-name="s" unicode="s" horiz-adv-x="577" 
d="M522 159c0 -82 -56 -170 -228 -170c-88 0 -173 29 -239 94l34 33c62 -58 127 -85 202 -85c115 0 187 48 187 126c0 64 -40 99 -129 125c-13 4 -98 31 -112 35c-111 34 -174 76 -174 161c0 80 64 162 224 162c85 0 157 -30 211 -86l-32 -33c-46 48 -104 77 -179 77
c-112 0 -180 -50 -180 -118c0 -65 59 -96 157 -125c14 -4 87 -28 102 -33c119 -35 156 -92 156 -163z" />
    <glyph glyph-name="t" unicode="t" horiz-adv-x="409" 
d="M369 72l30 -31c-45 -34 -91 -51 -145 -51c-89 0 -148 60 -148 181v414l3 5h-79v40h79l-3 5v115l43 23v-138l-3 -5h198v-40h-198l3 -5v-410c0 -98 41 -144 110 -144c41 0 78 14 110 41z" />
    <glyph glyph-name="u" unicode="u" horiz-adv-x="671" 
d="M581 630v-630h-43v116h-2c-38 -76 -115 -126 -217 -126c-161 0 -234 87 -234 242v398h43v-393c0 -108 34 -205 196 -205c116 0 214 73 214 220v378h43z" />
    <glyph glyph-name="v" unicode="v" horiz-adv-x="593" 
d="M533 630h50l-266 -630h-42l-265 630h50l209 -504l26 -76h3l24 76z" />
    <glyph glyph-name="w" unicode="w" horiz-adv-x="828" 
d="M767 630h46l-185 -630h-47l-151 500l-15 72h-1l-15 -72l-152 -500h-48l-184 630h47l148 -510l14 -68h2l14 68l154 510h40l155 -510l13 -68h3l13 68z" />
    <glyph glyph-name="x" unicode="x" horiz-adv-x="536" 
d="M294 316l222 -316h-54l-165 237l-28 49h-2l-29 -49l-165 -237h-53l222 317l-219 313h53l161 -232l30 -50h2l30 50l162 232h53z" />
    <glyph glyph-name="y" unicode="y" horiz-adv-x="590" 
d="M526 630h49l-271 -705c-37 -97 -95 -140 -165 -140c-36 0 -65 5 -90 17v40c26 -10 56 -16 82 -16c59 0 104 33 140 127c0 0 14 36 16 43l-272 634h49l212 -502l31 -86h2l28 86z" />
    <glyph glyph-name="z" unicode="z" horiz-adv-x="616" 
d="M556 40v-40h-496v35l393 502l49 50v2h-435v40h486v-32l-395 -504l-48 -51v-2h446z" />
    <glyph glyph-name="braceleft" unicode="{" horiz-adv-x="308" 
d="M298 -160v-36s-49 0 -70 3c-88 11 -115 63 -115 152v253c0 54 -10 103 -73 116v61c54 14 73 52 73 109v273c0 83 29 130 115 140c18 3 70 3 70 3v-36c-115 0 -145 -28 -145 -94v-278c0 -74 -12 -116 -75 -147l1 -1c67 -31 74 -68 74 -148v-265c0 -66 25 -105 145 -105z
" />
    <glyph glyph-name="bar" unicode="|" horiz-adv-x="271" 
d="M156 860v-910h-41v910h41z" />
    <glyph glyph-name="braceright" unicode="}" horiz-adv-x="308" 
d="M268 389v-61c-63 -13 -73 -62 -73 -116v-253c0 -89 -27 -141 -115 -152c-21 -3 -70 -3 -70 -3v36c120 0 145 39 145 105v265c0 80 7 117 75 148l-1 2c-62 31 -74 73 -74 146v278c0 66 -30 94 -145 94v36s52 0 70 -3c86 -10 115 -57 115 -140v-273c0 -57 18 -95 73 -109z
" />
    <glyph glyph-name="asciitilde" unicode="~" horiz-adv-x="555" 
d="M498 387l27 -28c-21 -67 -76 -103 -141 -103c-32 0 -62 14 -97 38c-22 15 -43 30 -62 41s-39 18 -60 18c-45 0 -88 -35 -107 -89l-28 28c18 56 72 104 140 104c33 0 70 -19 105 -44c19 -14 39 -27 57 -37s38 -17 57 -17c47 0 87 27 109 89z" />
    <glyph glyph-name="exclamdown" unicode="&#xa1;" horiz-adv-x="235" 
d="M132 642l16 -642h-60l15 642h29zM165 767c0 -32 -16 -53 -47 -53c-32 0 -48 21 -48 53s17 53 48 53s47 -21 47 -53z" />
    <glyph glyph-name="cent" unicode="&#xa2;" horiz-adv-x="558" 
d="M362 682l5 5c-11 2 -24 2 -35 2c-160 -1 -234 -140 -234 -289c0 -118 38 -230 162 -270l-2 6zM498 185l30 -31c-51 -49 -117 -74 -198 -74c-15 0 -37 0 -51 3l3 -5l-16 -89h-36l19 96l4 3c-136 36 -198 156 -198 312c0 191 102 330 276 330c12 0 30 0 43 -2l-3 6l17 86
h35l-18 -92l-4 -4c54 -13 88 -32 119 -58l-30 -32c-23 21 -55 39 -97 49l3 -6l-104 -548l-5 -6c11 -2 26 -3 38 -3c66 0 128 22 173 65z" />
    <glyph glyph-name="sterling" unicode="&#xa3;" horiz-adv-x="663" 
d="M357 820c91 0 177 -37 234 -99l-32 -33c-52 57 -123 89 -204 89c-105 0 -189 -52 -189 -169c0 -54 14 -122 27 -177l-2 -6h234v-42h-223l4 -4c10 -44 18 -92 18 -130c0 -106 -40 -169 -100 -204v-2h465v-43h-534v39c79 44 123 101 124 208c1 37 -7 85 -18 131l2 5h-91v42
h82l-5 5c-15 52 -29 128 -29 176c0 135 92 214 237 214z" />
    <glyph glyph-name="fraction" unicode="&#x2044;" horiz-adv-x="225" 
d="M234 820h41l-284 -830h-41z" />
    <glyph glyph-name="yen" unicode="&#xa5;" horiz-adv-x="725" 
d="M642 810h58l-265 -392l-19 -23h208v-43h-241l3 -5v-93l-3 -5h241v-44h-241l3 -5v-200h-46v200l3 5h-240v44h241l-2 5l1 93l2 5h-242v43h207l-20 23l-265 392h59l231 -348l48 -79v0l46 80z" />
    <glyph glyph-name="florin" unicode="&#x192;" horiz-adv-x="353" 
d="M323 627v-39h-193l3 -5v-564c0 -154 -38 -234 -160 -234c-25 0 -49 5 -73 14v40c20 -7 45 -13 66 -13c78 0 107 38 118 108c5 25 6 55 7 88c0 30 -1 59 -1 84v477l4 5h-79v39h79l-4 6v43c0 104 54 168 162 169c23 0 49 -4 71 -13v-40c-23 9 -49 12 -69 13
c-88 0 -121 -53 -121 -133v-40l-3 -5h193z" />
    <glyph glyph-name="section" unicode="&#xa7;" horiz-adv-x="581" 
d="M494 271c0 71 -56 112 -112 148c-24 15 -162 96 -188 120c-61 -49 -106 -102 -106 -162c0 -61 48 -107 109 -146c24 -16 168 -100 194 -122c58 50 103 102 103 162zM539 280c0 -74 -43 -130 -120 -192c51 -56 67 -86 67 -136c0 -103 -81 -153 -182 -153
c-74 0 -156 30 -213 80l30 31c50 -45 119 -69 183 -69c75 0 134 31 134 112c0 29 -14 58 -32 79c-27 34 -65 61 -105 86c-39 24 -82 48 -122 73c-87 55 -135 107 -135 182c0 73 47 128 127 190c-37 36 -57 72 -57 115c0 86 79 141 189 141c73 0 148 -35 204 -86l-30 -31
c-46 44 -108 77 -174 77c-79 0 -141 -35 -141 -103c0 -35 18 -64 52 -95c14 -13 32 -26 53 -40c20 -13 40 -25 63 -39c26 -15 68 -40 92 -55c78 -51 117 -98 117 -167z" />
    <glyph glyph-name="currency" unicode="&#xa4;" horiz-adv-x="585" 
d="M462 403c0 47 -16 87 -49 121c-32 33 -73 50 -120 50s-88 -17 -121 -51c-32 -34 -48 -74 -48 -120s16 -86 48 -119c33 -33 74 -50 121 -50s88 16 121 49s48 74 48 120zM499 640l31 -30l-74 -75c36 -50 47 -94 47 -132c0 -42 -12 -88 -47 -133l72 -74l-29 -30l-76 73
c-46 -35 -89 -44 -130 -44c-43 0 -88 12 -133 45l-74 -73l-30 30l73 75c-34 46 -46 91 -46 131c0 39 11 82 47 130l-75 77l30 30l75 -74c47 36 91 47 133 47c41 0 84 -11 131 -47z" />
    <glyph glyph-name="quotesingle" unicode="'" horiz-adv-x="165" 
d="M55 840h55l-15 -279h-25z" />
    <glyph glyph-name="quotedblleft" unicode="&#x201c;" horiz-adv-x="309" 
d="M45 668c0 10 3 21 7 31l53 124l30 -13l-37 -87l-7 -6c30 2 44 -22 44 -49c0 -31 -15 -50 -45 -50c-29 0 -45 19 -45 50zM174 668c0 10 3 21 7 31l52 124l30 -13l-36 -87l-8 -6c31 2 45 -22 45 -49c0 -31 -16 -50 -45 -50c-30 0 -45 19 -45 50z" />
    <glyph glyph-name="guillemotleft" unicode="&#xab;" horiz-adv-x="477" 
d="M225 446l31 -32l-96 -110l-51 -47v-4l51 -47l96 -110l-31 -32l-170 191zM391 446l31 -32l-95 -110l-51 -47v-4l51 -47l95 -110l-31 -32l-169 191z" />
    <glyph glyph-name="guilsinglleft" unicode="&#x2039;" horiz-adv-x="311" 
d="M225 446l31 -32l-96 -110l-51 -47v-4l51 -47l96 -110l-31 -32l-170 191z" />
    <glyph glyph-name="guilsinglright" unicode="&#x203a;" horiz-adv-x="311" 
d="M86 446l170 -191l-170 -191l-31 32l96 110l51 47v4l-51 47l-96 110z" />
    <glyph glyph-name="fi" unicode="&#xfb01;" horiz-adv-x="577" 
d="M283 845c20 0 44 -4 61 -10v-39c-19 5 -44 9 -59 9c-92 0 -136 -54 -136 -145v-26l-3 -5h341v-629h-43v590h-298l3 -5v-585h-43v585l3 5h-79v39h79l-3 5v28c0 113 63 183 177 183zM503 801c0 -31 -14 -46 -37 -46c-24 0 -38 15 -38 46c0 30 14 45 37 45
c24 0 38 -15 38 -45z" />
    <glyph glyph-name="fl" unicode="&#xfb02;" horiz-adv-x="577" 
d="M277 839h210v-839h-43v800h-159c-92 0 -136 -49 -136 -140v-26l-3 -5h198v-39h-198l3 -5v-585h-43v585l3 5h-79v39h79l-3 5v28c0 110 60 177 171 177z" />
    <glyph glyph-name="endash" unicode="&#x2013;" horiz-adv-x="563" 
d="M533 348v-45h-503v45h503z" />
    <glyph glyph-name="dagger" unicode="&#x2020;" horiz-adv-x="586" 
d="M526 571v-45l-214 7l8 -713h-47l8 713l-221 -7v45l221 -8l-7 247h45l-7 -247z" />
    <glyph glyph-name="daggerdbl" unicode="&#x2021;" horiz-adv-x="577" 
d="M520 571v-45l-214 7v-437l213 8v-45l-214 8l8 -246h-46l8 246l-215 -8v45l214 -8v437l-213 -7v45l214 -8l-8 246h46l-8 -246z" />
    <glyph glyph-name="periodcentered" unicode="&#xb7;" horiz-adv-x="225" 
d="M108 457c31 0 47 -21 47 -53s-17 -52 -47 -52c-32 0 -48 20 -48 52s17 53 48 53z" />
    <glyph glyph-name="paragraph" unicode="&#xb6;" horiz-adv-x="520" 
d="M450 810v-40h-63l5 -5v-946h-40v946l5 5h-71l5 -5v-946h-41v498l6 6h-21c-132 0 -235 108 -235 243c0 134 107 244 238 244h212z" />
    <glyph glyph-name="bullet" unicode="&#x2022;" horiz-adv-x="308" 
d="M218 405c0 -61 -49 -110 -109 -110s-109 49 -109 110c0 60 49 109 109 109s109 -49 109 -109z" />
    <glyph glyph-name="quotesinglbase" unicode="&#x201a;" horiz-adv-x="180" 
d="M135 45c0 -10 -3 -21 -7 -31l-52 -124l-30 13l36 87l8 6c-31 -1 -45 22 -45 49c0 31 16 50 45 50c30 0 45 -19 45 -50z" />
    <glyph glyph-name="quotedblbase" unicode="&#x201e;" horiz-adv-x="309" 
d="M264 45c0 -10 -3 -21 -7 -31l-53 -124l-30 13l37 87l7 6c-30 -1 -44 22 -44 49c0 31 15 50 45 50c29 0 45 -19 45 -50zM135 45c0 -10 -3 -21 -7 -31l-52 -124l-30 13l36 87l8 6c-31 -1 -45 22 -45 49c0 31 16 50 45 50c30 0 45 -19 45 -50z" />
    <glyph glyph-name="quotedblright" unicode="&#x201d;" horiz-adv-x="309" 
d="M264 770c0 -10 -3 -22 -7 -32l-53 -124l-30 14l37 86l7 6c-30 -1 -44 22 -44 50c0 30 15 50 45 50c29 0 45 -20 45 -50zM135 770c0 -10 -3 -22 -7 -32l-52 -124l-30 14l36 86l8 6c-31 -1 -45 22 -45 50c0 30 16 50 45 50c30 0 45 -20 45 -50z" />
    <glyph glyph-name="guillemotright" unicode="&#xbb;" horiz-adv-x="477" 
d="M86 446l170 -191l-170 -191l-31 32l96 110l51 47v4l-51 47l-96 110zM253 446l169 -191l-169 -191l-31 32l95 110l51 47v4l-51 47l-95 110z" />
    <glyph glyph-name="ellipsis" unicode="&#x2026;" horiz-adv-x="661" 
d="M150 40c0 -30 -16 -50 -45 -50s-45 20 -45 50s16 50 45 50c30 0 45 -19 45 -50zM371 40c0 -30 -16 -50 -46 -50c-29 0 -45 20 -45 50s16 50 45 50c30 0 46 -19 46 -50zM591 40c0 -30 -16 -50 -45 -50c-30 0 -45 20 -45 50s15 50 45 50c29 0 45 -19 45 -50z" />
    <glyph glyph-name="perthousand" unicode="&#x2030;" horiz-adv-x="1129" 
d="M297 590c0 95 -23 187 -112 187c-86 0 -112 -89 -112 -187c0 -95 28 -181 112 -181c83 0 112 82 112 181zM340 590c0 -134 -54 -224 -155 -224c-100 0 -155 90 -155 224c0 135 57 230 155 230c99 0 155 -95 155 -230zM507 820h41l-284 -830h-41zM696 213
c0 95 -23 187 -112 187c-86 0 -112 -90 -112 -187c0 -95 28 -181 112 -181c83 0 112 82 112 181zM740 213c0 -134 -55 -224 -156 -224c-100 0 -155 90 -155 224s58 230 155 230c99 0 156 -95 156 -230zM1056 213c0 95 -24 187 -112 187c-87 0 -112 -90 -112 -187
c0 -95 27 -181 111 -181s113 82 113 181zM1099 213c0 -134 -54 -224 -156 -224c-100 0 -155 90 -155 224s58 230 155 230c100 0 156 -95 156 -230z" />
    <glyph glyph-name="questiondown" unicode="&#xbf;" horiz-adv-x="579" 
d="M489 130l35 -35c-60 -68 -136 -105 -239 -105c-150 0 -230 110 -230 199c0 84 49 140 120 175l34 16c93 44 115 90 115 201v61h45v-71c0 -120 -24 -176 -142 -233l-24 -12c-65 -32 -100 -72 -100 -137c0 -80 81 -156 183 -156c88 0 154 36 203 97zM347 820
c31 0 47 -20 47 -53c0 -32 -16 -52 -47 -52c-32 0 -48 20 -48 52s17 53 48 53z" />
    <glyph glyph-name="grave" unicode="`" horiz-adv-x="659" 
d="M259 895l164 -183l-17 -17l-183 165z" />
    <glyph glyph-name="acute" unicode="&#xb4;" horiz-adv-x="659" 
d="M422 899l38 -36l-187 -168l-18 17z" />
    <glyph glyph-name="circumflex" unicode="&#x2c6;" horiz-adv-x="592" 
d="M297 875l162 -162l-19 -19l-144 125l-3 -1l-142 -124l-19 20l162 163z" />
    <glyph glyph-name="tilde" unicode="&#x2dc;" horiz-adv-x="663" 
d="M532 838l25 -25c-19 -57 -62 -95 -124 -95c-71 0 -134 79 -197 79c-42 0 -77 -23 -91 -72l-24 25c15 56 57 87 119 87c72 0 134 -80 196 -80c46 0 82 35 96 81z" />
    <glyph glyph-name="macron" unicode="&#xaf;" horiz-adv-x="680" 
d="M528 767v-36h-369v36h369z" />
    <glyph glyph-name="breve" unicode="&#x2d8;" horiz-adv-x="670" 
d="M453 804h44c-25 -65 -78 -109 -160 -109c-83 0 -135 44 -160 109h45c21 -43 57 -70 115 -70c59 0 95 27 116 70z" />
    <glyph glyph-name="dotaccent" unicode="&#x2d9;" horiz-adv-x="632" 
d="M319 803c29 0 44 -19 44 -48s-16 -48 -44 -48s-43 19 -43 48s15 48 43 48z" />
    <glyph glyph-name="dieresis" unicode="&#xa8;" horiz-adv-x="646" 
d="M253 751c0 -27 -14 -43 -38 -43c-25 0 -39 16 -39 43s14 43 39 43s38 -16 38 -43zM453 751c0 -27 -14 -43 -38 -43c-25 0 -38 16 -38 43s13 43 38 43s38 -16 38 -43z" />
    <glyph glyph-name="ring" unicode="&#x2da;" horiz-adv-x="646" 
d="M382 791c0 37 -20 68 -63 68c-44 0 -63 -31 -63 -68s19 -68 63 -68c43 0 63 31 63 68zM409 791c0 -56 -30 -96 -90 -96c-61 0 -91 39 -91 96s30 96 90 96c61 0 91 -39 91 -96z" />
    <glyph glyph-name="cedilla" unicode="&#xb8;" horiz-adv-x="665" 
d="M315 -3l32 5l16 -16c22 -22 31 -34 31 -53s-5 -26 -40 -60l-58 -59l-28 28l60 59c34 35 38 45 10 74z" />
    <glyph glyph-name="hungarumlaut" unicode="&#x2dd;" horiz-adv-x="705" 
d="M356 860l37 -37l-141 -128l-18 18zM496 860l37 -37l-141 -128l-18 18z" />
    <glyph glyph-name="ogonek" unicode="&#x2db;" horiz-adv-x="698" 
d="M629 -183l20 -21c-3 -4 -7 -12 -13 -15c-16 -17 -38 -32 -66 -32c-49 -2 -90 39 -91 89c-1 27 11 53 28 70l97 99l35 -4l-103 -107c-13 -13 -19 -32 -19 -48c1 -35 30 -60 61 -60c16 1 30 7 40 17c2 3 6 6 11 12z" />
    <glyph glyph-name="caron" unicode="&#x2c7;" horiz-adv-x="592" 
d="M439 877l20 -20l-163 -163l-2 1l-162 162l19 20l144 -126l3 1z" />
    <glyph glyph-name="emdash" unicode="&#x2014;" horiz-adv-x="815" 
d="M785 348v-45h-755v45h755z" />
    <glyph glyph-name="AE" unicode="&#xc6;" horiz-adv-x="986" 
d="M916 43v-43h-414v214l6 4h-355l3 -5l-90 -213h-51l344 810h557v-43h-371l3 -5v-331l-5 -5h332v-42h-332l5 -5v-330l-5 -6h373zM502 763l3 4h-117l2 -5l-213 -495l-6 -6h335l-5 5z" />
    <glyph glyph-name="ordfeminine" unicode="&#xaa;" horiz-adv-x="422" 
d="M333 606l2 2c-24 2 -40 3 -52 3c-18 0 -40 0 -62 -1c-24 -2 -48 -4 -70 -10c-43 -11 -84 -35 -84 -89c0 -72 75 -88 118 -88c51 0 145 22 145 88v77zM367 671v-276h-37v48h-2c-32 -35 -84 -56 -143 -56c-81 0 -155 33 -155 124c0 130 153 132 250 132c11 0 34 -1 55 -3
l-5 7v24v10c0 78 -62 103 -124 103c-41 0 -89 -9 -127 -40l-25 26c47 38 95 50 152 50c84 0 161 -35 161 -149z" />
    <glyph glyph-name="Lslash" unicode="&#x141;" horiz-adv-x="603" 
d="M588 43v-43h-498v341l4 7l-79 -33v46l79 34l-4 5v410h45v-394l-3 -5l220 92v-46l-220 -93l3 -4v-311l-5 -6h458z" />
    <glyph glyph-name="Oslash" unicode="&#xd8;" horiz-adv-x="819" 
d="M587 718l4 3c-47 36 -106 56 -181 56c-222 0 -308 -178 -308 -377c0 -131 37 -249 128 -315v7zM717 400c0 120 -31 236 -110 308v-7l-355 -624l-6 -2c45 -27 99 -42 164 -42c220 0 307 169 307 367zM764 400c0 -251 -126 -410 -355 -410c-71 0 -136 16 -185 45v-7
l-50 -86l-22 13l49 87l6 4c-101 68 -152 192 -152 354c0 251 124 420 354 420c81 0 149 -20 205 -60v6l46 80l22 -14l-47 -82l-5 -2c90 -73 134 -196 134 -348z" />
    <glyph glyph-name="OE" unicode="&#x152;" horiz-adv-x="1067" 
d="M583 400c0 186 -60 377 -238 377c-176 0 -240 -185 -240 -377c0 -190 66 -367 240 -367c176 0 238 177 238 367zM997 43v-42h-421v135h-2c-57 -103 -133 -146 -229 -146c-186 0 -290 154 -290 410s106 420 290 420c89 0 170 -40 229 -152h2v141h421v-42h-380l6 -5v-331
l-6 -5h340v-42h-340l6 -5v-331l-6 -5h380z" />
    <glyph glyph-name="ordmasculine" unicode="&#xba;" horiz-adv-x="448" 
d="M356 604c0 97 -41 180 -144 180c-104 0 -145 -83 -145 -180s42 -181 145 -181s144 83 144 181zM393 604c0 -128 -62 -217 -182 -217s-181 88 -181 217c0 127 61 216 181 216c121 0 182 -88 182 -216z" />
    <glyph glyph-name="ae" unicode="&#xe6;" horiz-adv-x="1118" 
d="M556 336l467 1l-5 4c-8 143 -76 257 -225 257s-221 -116 -232 -257zM1063 310v-13v0l-508 -1l5 -5c9 -153 81 -260 236 -260c66 0 126 23 173 65l31 -32c-55 -49 -125 -74 -203 -74c-125 0 -204 56 -245 143c-4 -18 -9 -30 -16 -41c-49 -77 -148 -103 -248 -103
c-125 0 -233 51 -233 183c0 191 223 196 377 196c28 0 68 -3 90 -7l-4 6v48c0 141 -91 183 -197 183c-63 0 -139 -16 -197 -59l-30 30c70 52 145 70 227 70c107 0 196 -39 230 -153l1 1c42 92 121 153 240 153c203 0 271 -165 271 -330zM518 319l4 6c-19 3 -61 5 -82 5
c-28 0 -62 0 -97 -2c-37 -2 -74 -5 -109 -13c-71 -18 -136 -55 -136 -143c0 -118 125 -142 191 -142c73 0 229 31 229 143v146z" />
    <glyph glyph-name="dotlessi" unicode="&#x131;" horiz-adv-x="223" 
d="M133 629v-629h-43v629h43z" />
    <glyph glyph-name="lslash" unicode="&#x142;" horiz-adv-x="234" 
d="M96 840h44v-401l-3 -6l83 35v-44l-83 -35l3 -4v-385h-44v367l3 7l-84 -36v43l85 36l-4 3v420z" />
    <glyph glyph-name="oslash" unicode="&#xf8;" 
d="M455 554l5 4c-34 25 -79 40 -132 40c-165 0 -230 -131 -230 -283c0 -94 25 -180 86 -234l4 9zM558 315c0 90 -23 174 -78 227l-3 -7l-267 -464l-5 -6c32 -21 74 -33 123 -33c165 0 230 131 230 283zM601 315c0 -192 -93 -325 -273 -325c-57 0 -104 12 -145 37l-2 -7
l-43 -75l-25 15l45 78l3 4c-71 56 -106 153 -106 273c0 193 92 325 272 325c62 0 112 -15 155 -43l1 6l44 76l25 -15l-45 -78l-5 -5c66 -56 99 -150 99 -266z" />
    <glyph glyph-name="oe" unicode="&#x153;" horiz-adv-x="1159" 
d="M597 336l467 1l-5 4c-8 143 -76 257 -225 257s-221 -116 -232 -257zM557 315c0 152 -65 283 -229 283c-165 0 -230 -131 -230 -283c0 -151 66 -283 230 -283c165 0 229 131 229 283zM1104 310v-13v0l-508 -1l5 -5c9 -153 81 -260 236 -260c66 0 126 23 173 65l31 -32
c-55 -49 -125 -74 -203 -74c-141 0 -224 72 -259 179h-2c-43 -123 -132 -179 -249 -179c-181 0 -273 131 -273 325c0 193 92 325 272 325c122 0 208 -58 252 -183h2c38 108 121 183 252 183c203 0 271 -165 271 -330z" />
    <glyph glyph-name="germandbls" unicode="&#xdf;" horiz-adv-x="632" 
d="M577 229c0 -142 -96 -240 -221 -240c-49 0 -88 6 -123 19v43c38 -15 72 -21 114 -21c109 0 187 77 187 198c0 111 -69 203 -203 203h-94v40h73c101 -1 163 63 163 163c0 112 -88 171 -185 171c-109 0 -155 -52 -155 -167v-637h-43v654c0 136 74 190 198 190
c123 0 229 -81 229 -208c0 -92 -47 -151 -104 -176v-3c99 -26 164 -112 164 -229z" />
    <glyph glyph-name="onesuperior" unicode="&#xb9;" horiz-adv-x="241" 
d="M166 810v-454h-40l1 363l4 41h-2l-25 -34l-47 -49l-27 27l102 106h34z" />
    <glyph glyph-name="logicalnot" unicode="&#xac;" horiz-adv-x="534" 
d="M504 344v-294h-43v244l5 6h-436v44h474z" />
    <glyph glyph-name="mu" unicode="&#xb5;" horiz-adv-x="666" 
d="M574 630v-630h-43v109h-4c-40 -73 -120 -119 -209 -119c-78 0 -153 42 -191 119h-3v-319h-43v840h43v-385c0 -146 103 -209 194 -209c105 0 213 64 213 212v382h43z" />
    <glyph glyph-name="trademark" unicode="&#x2122;" horiz-adv-x="793" 
d="M355 810v-26h-151l2 -4v-375h-27v375l2 4h-151v26h325zM763 810v-405h-27v344h-2l-33 -83l-126 -267h-1l-126 268l-33 82h-2v-344h-27v405h25l138 -295l25 -55h1l24 55l139 295h25z" />
    <glyph glyph-name="Eth" unicode="&#xd0;" horiz-adv-x="773" 
d="M361 767h-231l5 -5v-331l-3 -5h198v-42h-199l4 -5v-331l-5 -5h236c263 0 304 180 304 362s-43 362 -309 362zM90 0v379l4 5h-69v42h69l-4 5v379h281c295 0 347 -204 347 -405c0 -203 -51 -405 -342 -405h-286z" />
    <glyph glyph-name="onehalf" unicode="&#xbd;" horiz-adv-x="690" 
d="M405 820h41l-283 -830h-42zM166 810v-454h-40l1 363l4 41h-2l-25 -34l-47 -49l-27 27l102 106h34zM635 336c0 -54 -27 -93 -100 -123l-65 -26c-50 -21 -73 -63 -71 -133l1 -13l-2 -2h237v-40h-275v65c0 79 28 133 93 159l60 25c59 25 83 49 83 88c0 40 -24 79 -95 79
c-41 0 -74 -16 -105 -55l-28 31c39 44 82 63 133 63c96 0 134 -60 134 -118z" />
    <glyph glyph-name="plusminus" unicode="&#xb1;" horiz-adv-x="675" 
d="M585 137v-44h-495v44h495zM583 498v-46h-228l4 -5v-239h-44v239l3 5h-228v46h228l-3 5v240h44v-240l-4 -5h228z" />
    <glyph glyph-name="Thorn" unicode="&#xde;" horiz-adv-x="721" 
d="M434 601h-304l5 -5v-384l-5 -4h303c131 0 196 84 196 196c0 117 -66 197 -195 197zM676 404c0 -134 -83 -240 -242 -240h-304l5 -5v-159h-45v810h45v-161l-5 -5h305c158 0 241 -99 241 -240z" />
    <glyph glyph-name="onequarter" unicode="&#xbc;" horiz-adv-x="675" 
d="M531 150l-3 6l-1 183l2 49h-2l-53 -70l-97 -117l-48 -50v-2zM620 113h-56l3 -5v-115h-40v115l3 5h-253v30l252 305h38l1 -292l-3 -5h55v-38zM166 810v-454h-39v363l4 41h-2l-25 -34l-47 -49l-27 27l102 106h34zM405 820h41l-283 -830h-42z" />
    <glyph glyph-name="divide" unicode="&#xf7;" horiz-adv-x="675" 
d="M386 183c0 -32 -17 -53 -48 -53s-47 20 -47 53c0 32 16 52 47 52s48 -20 48 -52zM585 427v-44h-495v44h495zM338 680c31 0 48 -21 48 -53s-17 -52 -48 -52s-47 20 -47 52s16 53 47 53z" />
    <glyph glyph-name="brokenbar" unicode="&#xa6;" horiz-adv-x="271" 
d="M156 360v-410h-41v410h41zM156 860v-410h-41v410h41z" />
    <glyph glyph-name="degree" unicode="&#xb0;" horiz-adv-x="402" 
d="M309 646c0 75 -35 137 -121 137c-85 0 -120 -61 -120 -137c0 -75 36 -137 121 -137s120 62 120 137zM347 646c0 -102 -54 -174 -159 -174s-158 72 -158 174s53 174 158 174c106 0 159 -71 159 -174z" />
    <glyph glyph-name="thorn" unicode="&#xfe;" horiz-adv-x="679" 
d="M581 315c0 148 -64 283 -228 283c-154 0 -225 -129 -225 -283c0 -160 69 -284 225 -284c165 0 228 137 228 284zM624 315c0 -192 -88 -325 -269 -325c-102 0 -175 49 -220 143h-2v-343h-43v1051h43v-344h2c41 91 118 142 220 142c179 0 269 -135 269 -324z" />
    <glyph glyph-name="threequarters" unicode="&#xbe;" horiz-adv-x="810" 
d="M666 150l-3 6l-1 183l2 49h-2l-53 -70l-97 -117l-48 -50v-2zM755 113h-56l3 -5v-115h-40v115l3 5h-253v30l252 305h38l1 -292l-3 -5h55v-38zM540 820h41l-283 -830h-42zM357 488c0 -60 -45 -132 -156 -132c-60 0 -106 20 -146 63l28 30c32 -36 66 -56 117 -56
c82 0 118 50 118 92c0 48 -38 86 -105 93c-12 2 -41 2 -58 3v36c17 1 46 2 56 3c69 9 98 49 98 85c0 42 -30 77 -108 77c-48 0 -83 -17 -114 -52l-28 30c40 42 85 60 143 60c106 0 146 -61 146 -118c0 -44 -34 -86 -87 -101v-1c55 -12 96 -58 96 -112z" />
    <glyph glyph-name="twosuperior" unicode="&#xb2;" horiz-adv-x="385" 
d="M330 697c0 -54 -27 -93 -101 -123l-64 -26c-50 -20 -74 -63 -71 -133v-13l-1 -2h236v-39h-274v64c0 79 28 133 93 160l59 24c60 25 83 49 83 88c0 40 -24 79 -94 79c-41 0 -74 -16 -105 -55l-29 31c39 45 82 63 134 63c96 0 134 -59 134 -118z" />
    <glyph glyph-name="registered" unicode="&#xae;" horiz-adv-x="935" 
d="M605 502c0 75 -52 100 -114 100h-170l6 -5v-189l-6 -4h164c73 0 120 38 120 98zM609 303l66 -140h-43l-58 124c-25 54 -62 80 -129 80h-124l6 -4v-200h-38v476h216c76 0 140 -53 140 -137c0 -50 -27 -101 -102 -125c33 -20 51 -42 66 -74zM837 401
c0 207 -167 382 -369 382c-203 0 -370 -175 -370 -382s166 -383 370 -383c203 0 369 176 369 383zM875 401c0 -229 -183 -416 -407 -416c-225 0 -408 187 -408 416c0 228 182 414 408 414c225 0 407 -186 407 -414z" />
    <glyph glyph-name="minus" unicode="&#x2212;" horiz-adv-x="675" 
d="M585 427v-44h-495v44h495z" />
    <glyph glyph-name="eth" unicode="&#xf0;" horiz-adv-x="629" 
d="M533 292c0 140 -64 262 -219 262s-218 -121 -218 -262c0 -139 65 -262 219 -262s218 122 218 262zM574 292c0 -178 -88 -302 -260 -302s-259 123 -259 302s87 302 259 302c38 0 70 -7 112 -26l1 1l-104 167v7l-89 -55l-19 29l90 56l-7 3l-43 70h49l30 -48v-7l75 45
l18 -31l-74 -45l5 -2l171 -276c32 -50 45 -113 45 -190z" />
    <glyph glyph-name="multiply" unicode="&#xd7;" horiz-adv-x="573" 
d="M320 401l178 -176l-32 -32l-175 178l-2 6l-182 -184l-32 32l185 183l-6 1l-179 178l31 31l177 -178l1 -7l182 185l31 -32l-184 -183z" />
    <glyph glyph-name="threesuperior" unicode="&#xb3;" horiz-adv-x="412" 
d="M357 488c0 -60 -45 -132 -156 -132c-60 0 -106 20 -146 63l28 30c32 -36 66 -56 117 -56c82 0 118 50 118 92c0 48 -38 86 -105 93c-12 2 -41 2 -58 3v36c17 1 46 2 56 3c69 9 98 49 98 85c0 42 -30 77 -108 77c-48 0 -83 -17 -114 -52l-28 30c40 42 85 60 143 60
c106 0 146 -61 146 -118c0 -44 -34 -86 -87 -101v-1c55 -12 96 -58 96 -112z" />
    <glyph glyph-name="copyright" unicode="&#xa9;" horiz-adv-x="935" 
d="M614 218l28 -29c-50 -43 -105 -63 -175 -63c-165 0 -242 112 -242 270c0 161 89 278 243 278c74 0 124 -19 167 -54l-28 -29c-35 28 -85 46 -139 46c-139 -1 -204 -115 -204 -241c0 -121 58 -232 203 -232c57 0 107 18 147 54zM837 401c0 207 -167 382 -369 382
c-203 0 -370 -175 -370 -382s166 -383 370 -383c203 0 369 176 369 383zM875 401c0 -229 -183 -416 -407 -416c-225 0 -408 187 -408 416c0 228 182 414 408 414c225 0 407 -186 407 -414z" />
    <glyph glyph-name="Aacute" unicode="&#xc1;" horiz-adv-x="765" 
d="M174 261h416l-6 6l-178 419l-22 71h-2l-23 -71l-179 -420zM403 810l347 -810h-51l-92 214l2 4h-454l2 -5l-91 -213h-51l348 810h40zM460 1076l36 -36l-183 -165l-18 17z" />
    <glyph glyph-name="Acircumflex" unicode="&#xc2;" horiz-adv-x="765" 
d="M174 261h416l-6 6l-178 419l-22 71h-2l-23 -71l-179 -420zM403 810l347 -810h-51l-92 214l2 4h-454l2 -5l-91 -213h-51l348 810h40zM384 1055l162 -163l-19 -19l-144 126l-3 -2l-141 -124l-20 20l163 163z" />
    <glyph glyph-name="Adieresis" unicode="&#xc4;" horiz-adv-x="765" 
d="M174 261h416l-6 6l-178 419l-22 71h-2l-23 -71l-179 -420zM403 810l347 -810h-51l-92 214l2 4h-454l2 -5l-91 -213h-51l348 810h40zM321 943c0 -27 -13 -43 -38 -43s-38 16 -38 43s13 43 38 43s38 -16 38 -43zM522 943c0 -27 -14 -43 -38 -43c-25 0 -38 16 -38 43
s13 43 38 43s38 -16 38 -43z" />
    <glyph glyph-name="Agrave" unicode="&#xc0;" horiz-adv-x="765" 
d="M174 261h416l-6 6l-178 419l-22 71h-2l-23 -71l-179 -420zM403 810l347 -810h-51l-92 214l2 4h-454l2 -5l-91 -213h-51l348 810h40zM311 1075l164 -183l-18 -17l-183 164z" />
    <glyph glyph-name="Aring" unicode="&#xc5;" horiz-adv-x="765" 
d="M174 261h416l-6 6l-178 419l-22 71h-2l-23 -71l-179 -420zM403 810l347 -810h-51l-92 214l2 4h-454l2 -5l-91 -213h-51l347 810h41zM445 971c0 37 -19 68 -63 68c-43 0 -63 -31 -63 -68c0 -36 20 -68 63 -68c44 0 63 31 63 68zM473 971c0 -56 -30 -96 -91 -96
s-90 39 -90 96s30 96 90 96c61 0 91 -39 91 -96z" />
    <glyph glyph-name="Atilde" unicode="&#xc3;" horiz-adv-x="765" 
d="M174 261h416l-6 6l-178 419l-22 71h-2l-23 -71l-179 -420zM403 810l347 -810h-51l-92 214l2 4h-454l2 -5l-91 -213h-51l348 810h40zM577 996l25 -26c-19 -57 -62 -95 -124 -95c-71 0 -135 80 -197 80c-42 0 -77 -24 -91 -73l-24 25c15 57 57 87 119 87
c72 0 134 -79 196 -79c46 0 82 34 96 81z" />
    <glyph glyph-name="Ccedilla" unicode="&#xc7;" horiz-adv-x="725" 
d="M695 716l-34 -35c-51 60 -129 96 -233 96c-231 0 -326 -174 -326 -378c0 -201 92 -366 325 -366c103 0 181 36 233 95l33 -34c-58 -62 -140 -100 -248 -103c-2 0 -5 0 -7 -1l15 -15c25 -26 33 -51 3 -81l-80 -80l-28 28l60 59c34 35 38 45 10 74l-16 16
c-230 10 -347 168 -347 409c0 250 132 420 372 420c120 0 207 -39 268 -104z" />
    <glyph glyph-name="Eacute" unicode="&#xc9;" horiz-adv-x="705" 
d="M635 43v-43h-545v810h545v-43h-505l5 -5v-330l-5 -5h457v-43h-457l5 -5v-331l-5 -5h505zM469 1075l36 -36l-182 -165l-18 17z" />
    <glyph glyph-name="Ecircumflex" unicode="&#xca;" horiz-adv-x="705" 
d="M635 43v-43h-545v810h545v-43h-505l5 -5v-330l-5 -5h457v-43h-457l5 -5v-331l-5 -5h505zM366 1055l162 -163l-19 -19l-144 126l-3 -2l-141 -124l-20 20l163 163z" />
    <glyph glyph-name="Edieresis" unicode="&#xcb;" horiz-adv-x="705" 
d="M635 43v-43h-545v810h545v-43h-505l5 -5v-330l-5 -5h457v-43h-457l5 -5v-331l-5 -5h505zM309 942c0 -27 -14 -43 -39 -43s-38 16 -38 43s14 43 38 43c25 0 39 -16 39 -43zM509 942c0 -27 -14 -43 -38 -43c-25 0 -38 16 -38 43s13 43 38 43s38 -16 38 -43z" />
    <glyph glyph-name="Egrave" unicode="&#xc8;" horiz-adv-x="705" 
d="M635 43v-43h-545v810h545v-43h-505l5 -5v-330l-5 -5h457v-43h-457l5 -5v-331l-5 -5h505zM295 1075l164 -183l-17 -17l-183 164z" />
    <glyph glyph-name="Iacute" unicode="&#xcd;" horiz-adv-x="235" 
d="M140 810v-810h-45v810h45zM190 1076l36 -36l-183 -165l-18 17z" />
    <glyph glyph-name="Icircumflex" unicode="&#xce;" horiz-adv-x="235" 
d="M140 810v-810h-45v810h45zM120 1055l162 -163l-19 -19l-144 126l-3 -2l-141 -124l-20 20l163 163z" />
    <glyph glyph-name="Idieresis" unicode="&#xcf;" horiz-adv-x="235" 
d="M140 810v-810h-45v810h45zM56 943c0 -27 -14 -43 -39 -43s-38 16 -38 43s14 43 38 43c25 0 39 -16 39 -43zM256 943c0 -27 -14 -43 -38 -43c-25 0 -38 16 -38 43s13 43 38 43s38 -16 38 -43z" />
    <glyph glyph-name="Igrave" unicode="&#xcc;" horiz-adv-x="235" 
d="M140 810v-810h-45v810h45zM42 1075l165 -183l-18 -17l-183 164z" />
    <glyph glyph-name="Ntilde" unicode="&#xd1;" horiz-adv-x="795" 
d="M705 810v-810h-42l-459 634l-67 104h-2v-738h-45v810h42l460 -635l66 -103h2v738h45zM598 996l25 -26c-18 -57 -61 -95 -124 -95c-71 0 -134 80 -196 80c-43 0 -78 -24 -91 -73l-25 25c15 57 57 87 120 87c71 0 134 -79 195 -79c47 0 82 34 96 81z" />
    <glyph glyph-name="Oacute" unicode="&#xd3;" horiz-adv-x="819" 
d="M717 400c0 196 -84 377 -307 377c-222 0 -308 -178 -308 -377s87 -367 308 -367c220 0 307 169 307 367zM764 400c0 -251 -126 -410 -355 -410c-232 0 -354 159 -354 410s124 420 354 420c232 0 355 -168 355 -420zM485 1076l36 -36l-182 -165l-18 17z" />
    <glyph glyph-name="Ocircumflex" unicode="&#xd4;" horiz-adv-x="819" 
d="M717 400c0 196 -84 377 -307 377c-222 0 -308 -178 -308 -377s87 -367 308 -367c220 0 307 169 307 367zM764 400c0 -251 -126 -410 -355 -410c-232 0 -354 159 -354 410s124 420 354 420c232 0 355 -168 355 -420zM413 1055l162 -163l-19 -19l-144 126l-3 -2l-141 -124
l-20 20l163 163z" />
    <glyph glyph-name="Odieresis" unicode="&#xd6;" horiz-adv-x="819" 
d="M717 400c0 196 -84 377 -307 377c-222 0 -308 -178 -308 -377s87 -367 308 -367c220 0 307 169 307 367zM764 400c0 -251 -126 -410 -355 -410c-232 0 -354 159 -354 410s124 420 354 420c232 0 355 -168 355 -420zM350 943c0 -27 -14 -43 -39 -43s-38 16 -38 43
s14 43 38 43c25 0 39 -16 39 -43zM550 943c0 -27 -14 -43 -38 -43c-25 0 -38 16 -38 43s13 43 38 43s38 -16 38 -43z" />
    <glyph glyph-name="Ograve" unicode="&#xd2;" horiz-adv-x="819" 
d="M717 400c0 196 -84 377 -307 377c-222 0 -308 -178 -308 -377s87 -367 308 -367c220 0 307 169 307 367zM764 400c0 -251 -126 -410 -355 -410c-232 0 -354 159 -354 410s124 420 354 420c232 0 355 -168 355 -420zM333 1075l165 -183l-18 -17l-183 164z" />
    <glyph glyph-name="Otilde" unicode="&#xd5;" horiz-adv-x="819" 
d="M717 400c0 196 -84 377 -307 377c-222 0 -308 -178 -308 -377s87 -367 308 -367c220 0 307 169 307 367zM764 400c0 -251 -126 -410 -355 -410c-232 0 -354 159 -354 410s124 420 354 420c232 0 355 -168 355 -420zM599 996l25 -26c-18 -57 -61 -95 -124 -95
c-71 0 -134 80 -196 80c-43 0 -78 -24 -91 -73l-25 25c15 57 57 87 120 87c71 0 134 -79 195 -79c47 0 82 34 96 81z" />
    <glyph glyph-name="Scaron" unicode="&#x160;" horiz-adv-x="708" 
d="M658 204c0 -101 -71 -214 -298 -214c-118 0 -227 40 -310 116l37 36c78 -71 170 -109 271 -109c169 0 253 74 253 168c0 74 -56 136 -179 171c-18 5 -131 38 -150 43c-146 43 -224 95 -224 201c0 102 84 204 295 204c109 0 202 -38 271 -105l-35 -35
c-58 59 -142 97 -235 97c-160 0 -249 -66 -249 -159c0 -86 79 -124 207 -162l137 -40c153 -45 209 -122 209 -212zM497 1058l20 -20l-163 -163l-2 1l-162 163l19 19l144 -126l2 1z" />
    <glyph glyph-name="Uacute" unicode="&#xda;" horiz-adv-x="807" 
d="M677 810h45v-441c0 -251 -102 -379 -318 -379s-319 127 -319 379v441h45v-445c0 -201 76 -332 274 -332c197 0 273 130 273 332v445zM477 1076l36 -36l-182 -165l-18 17z" />
    <glyph glyph-name="Ucircumflex" unicode="&#xdb;" horiz-adv-x="807" 
d="M677 810h45v-441c0 -251 -102 -379 -318 -379s-319 127 -319 379v441h45v-445c0 -201 76 -332 274 -332c197 0 273 130 273 332v445zM407 1055l162 -163l-19 -19l-145 126l-2 -2l-142 -124l-19 20l162 163z" />
    <glyph glyph-name="Udieresis" unicode="&#xdc;" horiz-adv-x="807" 
d="M677 810h45v-441c0 -251 -102 -379 -318 -379s-319 127 -319 379v441h45v-445c0 -201 76 -332 274 -332c197 0 273 130 273 332v445zM339 943c0 -27 -14 -43 -39 -43s-38 16 -38 43s14 43 38 43c25 0 39 -16 39 -43zM539 943c0 -27 -14 -43 -38 -43c-25 0 -38 16 -38 43
s13 43 38 43s38 -16 38 -43z" />
    <glyph glyph-name="Ugrave" unicode="&#xd9;" horiz-adv-x="807" 
d="M677 810h45v-441c0 -251 -102 -379 -318 -379s-319 127 -319 379v441h45v-445c0 -201 76 -332 274 -332c197 0 273 130 273 332v445zM324 1075l165 -183l-18 -17l-183 164z" />
    <glyph glyph-name="Yacute" unicode="&#xdd;" horiz-adv-x="705" 
d="M632 810h58l-314 -466v-344h-46v344l-315 466h59l223 -335l55 -90h1l55 90zM425 1076l36 -36l-183 -165l-18 17z" />
    <glyph glyph-name="Ydieresis" unicode="&#x178;" horiz-adv-x="705" 
d="M632 810h58l-314 -466v-344h-46v344l-315 466h59l228 -344l51 -83v0l49 83zM289 943c0 -27 -14 -43 -39 -43s-38 16 -38 43s14 43 38 43c25 0 39 -16 39 -43zM489 943c0 -27 -14 -43 -38 -43c-25 0 -38 16 -38 43s13 43 38 43s38 -16 38 -43z" />
    <glyph glyph-name="Zcaron" unicode="&#x17d;" horiz-adv-x="737" 
d="M677 43v-43h-617v39l501 661l60 65v2h-551v43h602v-39l-497 -655l-63 -71v-2h565zM513 1058l19 -20l-162 -163l-3 1l-162 163l19 19l144 -126l3 1z" />
    <glyph glyph-name="aacute" unicode="&#xe1;" horiz-adv-x="646" 
d="M518 320l5 5c-20 3 -62 5 -83 5c-28 0 -62 0 -97 -2c-37 -2 -74 -5 -109 -13c-71 -18 -136 -55 -136 -143c0 -118 125 -142 191 -142c73 0 229 31 229 143v147zM561 418v-418h-43v81h-2c-42 -59 -133 -92 -228 -92c-125 0 -233 51 -233 183c0 191 223 196 377 196
c28 0 69 -3 91 -7l-5 5v49c0 141 -91 183 -197 183c-63 0 -139 -16 -197 -59l-30 30c70 52 145 70 227 70c129 0 240 -52 240 -221zM410 895l37 -35l-183 -165l-18 17z" />
    <glyph glyph-name="acircumflex" unicode="&#xe2;" horiz-adv-x="646" 
d="M518 320l5 5c-20 3 -62 5 -83 5c-28 0 -62 0 -97 -2c-37 -2 -74 -5 -109 -13c-71 -18 -136 -55 -136 -143c0 -118 125 -142 191 -142c73 0 229 31 229 143v147zM561 418v-418h-43v81h-2c-42 -59 -133 -92 -228 -92c-125 0 -233 51 -233 183c0 191 223 196 377 196
c28 0 69 -3 91 -7l-5 5v49c0 141 -91 183 -197 183c-63 0 -139 -16 -197 -59l-30 30c70 52 145 70 227 70c129 0 240 -53 240 -221zM317 875l162 -162l-19 -19l-144 125l-2 -1l-142 -124l-20 20l163 163z" />
    <glyph glyph-name="adieresis" unicode="&#xe4;" horiz-adv-x="646" 
d="M518 320l5 5c-20 3 -62 5 -83 5c-28 0 -62 0 -97 -2c-37 -2 -74 -5 -109 -13c-71 -18 -136 -55 -136 -143c0 -118 125 -142 191 -142c73 0 229 31 229 143v147zM561 418v-418h-43v81h-2c-42 -59 -133 -92 -228 -92c-125 0 -233 51 -233 183c0 191 223 196 377 196
c28 0 69 -3 91 -7l-5 5v49c0 141 -91 183 -197 183c-63 0 -139 -16 -197 -59l-30 30c70 52 145 70 227 70c129 0 240 -52 240 -221zM253 751c0 -27 -14 -43 -38 -43c-25 0 -39 16 -39 43s14 43 39 43s38 -16 38 -43zM453 751c0 -27 -14 -43 -38 -43c-25 0 -38 16 -38 43
s13 43 38 43s38 -16 38 -43z" />
    <glyph glyph-name="agrave" unicode="&#xe0;" horiz-adv-x="646" 
d="M518 320l5 5c-20 3 -62 5 -83 5c-28 0 -62 0 -97 -2c-37 -2 -74 -5 -109 -13c-71 -18 -136 -55 -136 -143c0 -118 125 -142 191 -142c73 0 229 31 229 143v147zM561 418v-418h-43v81h-2c-42 -59 -133 -92 -228 -92c-125 0 -233 51 -233 183c0 191 223 196 377 196
c28 0 69 -3 91 -7l-5 5v49c0 141 -91 183 -197 183c-63 0 -139 -16 -197 -59l-30 30c70 52 145 70 227 70c129 0 240 -53 240 -221zM254 895l164 -183l-17 -17l-183 165z" />
    <glyph glyph-name="aring" unicode="&#xe5;" horiz-adv-x="646" 
d="M518 320l5 5c-20 3 -62 5 -83 5c-28 0 -62 0 -97 -2c-37 -2 -74 -5 -109 -13c-71 -18 -136 -55 -136 -143c0 -118 125 -142 191 -142c73 0 229 31 229 143v147zM561 418v-418h-43v81h-2c-42 -59 -133 -92 -228 -92c-125 0 -233 51 -233 183c0 191 223 196 377 196
c28 0 69 -3 91 -7l-5 5v49c0 141 -91 183 -197 183c-63 0 -139 -16 -197 -59l-30 30c70 52 145 70 227 70c129 0 240 -52 240 -221zM382 791c0 37 -20 68 -63 68c-44 0 -63 -31 -63 -68s19 -68 63 -68c43 0 63 31 63 68zM409 791c0 -56 -30 -96 -90 -96c-61 0 -91 39 -91 96
s30 96 90 96c61 0 91 -39 91 -96z" />
    <glyph glyph-name="atilde" unicode="&#xe3;" horiz-adv-x="646" 
d="M518 320l5 5c-20 3 -62 5 -83 5c-28 0 -62 0 -97 -2c-37 -2 -74 -5 -109 -13c-71 -18 -136 -55 -136 -143c0 -118 125 -142 191 -142c73 0 229 31 229 143v147zM561 418v-418h-43v81h-2c-42 -59 -133 -92 -228 -92c-125 0 -233 51 -233 183c0 191 223 196 377 196
c28 0 69 -3 91 -7l-5 5v49c0 141 -91 183 -197 183c-63 0 -139 -16 -197 -59l-30 30c70 52 145 70 227 70c129 0 240 -52 240 -221zM512 838l25 -25c-19 -57 -62 -95 -124 -95c-71 0 -134 79 -197 79c-42 0 -77 -23 -91 -72l-24 25c15 56 57 87 119 87c72 0 134 -80 196 -80
c46 0 82 35 96 81z" />
    <glyph glyph-name="ccedilla" unicode="&#xe7;" horiz-adv-x="558" 
d="M498 95l30 -32c-48 -46 -109 -70 -184 -73h-5l15 -15c25 -26 33 -51 3 -81l-80 -80l-28 28l60 59c34 35 38 45 10 74l-16 16c-168 12 -248 140 -248 319c0 191 102 330 276 330c85 0 142 -23 189 -64l-30 -32c-38 35 -95 55 -158 54c-161 -1 -234 -139 -234 -288
c0 -144 64 -279 231 -279c67 0 124 20 169 64z" />
    <glyph glyph-name="eacute" unicode="&#xe9;" 
d="M94 336l467 1l-5 4c-8 143 -76 257 -225 257s-221 -116 -232 -257zM601 310v-13v0l-508 -1l5 -5c9 -153 81 -260 236 -260c66 0 126 23 173 65l31 -32c-55 -49 -125 -74 -203 -74c-196 0 -280 140 -280 320c0 181 90 330 275 330c123 0 196 -60 235 -144
c25 -55 36 -120 36 -184v-2zM418 895l37 -35l-183 -165l-18 17z" />
    <glyph glyph-name="ecircumflex" unicode="&#xea;" 
d="M94 336l467 1l-5 4c-8 143 -76 257 -225 257s-221 -116 -232 -257zM601 310v-13v0l-508 -1l5 -5c9 -153 81 -260 236 -260c66 0 126 23 173 65l31 -32c-55 -49 -125 -74 -203 -74c-196 0 -280 140 -280 320c0 181 90 330 275 330c203 0 271 -165 271 -330zM334 875
l162 -162l-19 -19l-144 125l-2 -1l-142 -124l-20 20l163 163z" />
    <glyph glyph-name="edieresis" unicode="&#xeb;" 
d="M94 336l467 1l-5 4c-8 143 -76 257 -225 257s-221 -116 -232 -257zM601 310v-13v0l-508 -1l5 -5c9 -153 81 -260 236 -260c66 0 126 23 173 65l31 -32c-55 -49 -125 -74 -203 -74c-196 0 -280 140 -280 320c0 181 90 330 275 330c203 0 271 -165 271 -330zM268 751
c0 -27 -13 -43 -38 -43s-38 16 -38 43s13 43 38 43s38 -16 38 -43zM469 751c0 -27 -14 -43 -39 -43c-24 0 -38 16 -38 43s14 43 38 43c25 0 39 -16 39 -43z" />
    <glyph glyph-name="egrave" unicode="&#xe8;" 
d="M94 336l467 1l-5 4c-8 143 -76 257 -225 257s-221 -116 -232 -257zM601 310v-13v0l-508 -1l5 -5c9 -153 81 -260 236 -260c66 0 126 23 173 65l31 -32c-55 -49 -125 -74 -203 -74c-196 0 -280 140 -280 320c0 181 90 330 275 330c203 0 271 -165 271 -330zM256 895
l165 -183l-18 -17l-183 165z" />
    <glyph glyph-name="iacute" unicode="&#xed;" horiz-adv-x="223" 
d="M133 629v-629h-43v629h43zM190 895l36 -35l-183 -165l-18 17z" />
    <glyph glyph-name="icircumflex" unicode="&#xee;" horiz-adv-x="223" 
d="M133 629v-629h-43v629h43zM115 875l162 -162l-19 -19l-144 125l-3 -1l-142 -124l-19 20l162 163z" />
    <glyph glyph-name="idieresis" unicode="&#xef;" horiz-adv-x="223" 
d="M133 629v-629h-43v629h43zM51 751c0 -27 -13 -43 -38 -43s-38 16 -38 43s13 43 38 43s38 -16 38 -43zM252 751c0 -27 -14 -43 -39 -43c-24 0 -38 16 -38 43s14 43 38 43c25 0 39 -16 39 -43z" />
    <glyph glyph-name="igrave" unicode="&#xec;" horiz-adv-x="223" 
d="M133 629v-629h-43v629h43zM37 895l164 -183l-17 -17l-183 165z" />
    <glyph glyph-name="ntilde" unicode="&#xf1;" horiz-adv-x="679" 
d="M594 409v-409h-43v387c0 119 -38 211 -200 211c-119 0 -218 -73 -218 -220v-378h-43v630h43v-115h2c39 79 126 125 221 125c165 0 238 -91 238 -231zM542 838l25 -25c-19 -57 -62 -95 -124 -95c-71 0 -134 79 -197 79c-42 0 -77 -23 -91 -72l-24 25c15 56 57 87 119 87
c72 0 134 -80 196 -80c46 0 82 35 96 81z" />
    <glyph glyph-name="oacute" unicode="&#xf3;" 
d="M558 315c0 152 -66 283 -230 283c-165 0 -230 -131 -230 -283c0 -151 66 -283 230 -283c165 0 230 131 230 283zM601 315c0 -192 -93 -325 -273 -325c-182 0 -273 131 -273 325c0 193 92 325 272 325c182 0 274 -130 274 -325zM413 895l37 -35l-183 -165l-18 17z" />
    <glyph glyph-name="ocircumflex" unicode="&#xf4;" 
d="M558 315c0 152 -66 283 -230 283c-165 0 -230 -131 -230 -283c0 -151 66 -283 230 -283c165 0 230 131 230 283zM601 315c0 -192 -93 -325 -273 -325c-182 0 -273 131 -273 325c0 193 92 325 272 325c182 0 274 -130 274 -325zM328 875l162 -162l-19 -19l-144 125l-2 -1
l-142 -124l-20 20l163 163z" />
    <glyph glyph-name="odieresis" unicode="&#xf6;" 
d="M558 315c0 152 -66 283 -230 283c-165 0 -230 -131 -230 -283c0 -151 66 -283 230 -283c165 0 230 131 230 283zM601 315c0 -192 -93 -325 -273 -325c-182 0 -273 131 -273 325c0 193 92 325 272 325c182 0 274 -130 274 -325zM265 751c0 -27 -13 -43 -38 -43
s-38 16 -38 43s13 43 38 43s38 -16 38 -43zM466 751c0 -27 -14 -43 -39 -43c-24 0 -38 16 -38 43s14 43 38 43c25 0 39 -16 39 -43z" />
    <glyph glyph-name="ograve" unicode="&#xf2;" 
d="M558 315c0 152 -66 283 -230 283c-165 0 -230 -131 -230 -283c0 -151 66 -283 230 -283c165 0 230 131 230 283zM601 315c0 -192 -93 -325 -273 -325c-182 0 -273 131 -273 325c0 193 92 325 272 325c182 0 274 -130 274 -325zM247 895l165 -183l-18 -17l-183 165z" />
    <glyph glyph-name="otilde" unicode="&#xf5;" 
d="M558 315c0 152 -66 283 -230 283c-165 0 -230 -131 -230 -283c0 -151 66 -283 230 -283c165 0 230 131 230 283zM601 315c0 -192 -93 -325 -273 -325c-182 0 -273 131 -273 325c0 193 92 325 272 325c182 0 274 -130 274 -325zM521 838l25 -25c-18 -57 -61 -95 -124 -95
c-71 0 -134 79 -196 79c-43 0 -78 -23 -91 -72l-25 25c15 56 57 87 120 87c71 0 134 -80 195 -80c47 0 82 35 96 81z" />
    <glyph glyph-name="scaron" unicode="&#x161;" horiz-adv-x="577" 
d="M522 159c0 -82 -56 -170 -228 -170c-88 0 -173 29 -239 94l34 33c62 -58 127 -85 202 -85c115 0 187 48 187 126c0 60 -42 101 -129 126c-13 4 -98 30 -112 34c-111 34 -174 76 -174 161c0 80 64 162 224 162c85 0 157 -30 211 -86l-32 -33c-46 48 -104 77 -179 77
c-114 0 -180 -50 -180 -118c0 -65 60 -96 158 -125c13 -4 85 -27 100 -31c117 -34 157 -96 157 -165zM431 877l19 -20l-162 -163l-3 1l-162 162l19 20l144 -126l3 1z" />
    <glyph glyph-name="uacute" unicode="&#xfa;" horiz-adv-x="671" 
d="M581 630v-630h-43v116h-2c-38 -76 -115 -126 -217 -126c-161 0 -234 87 -234 242v398h43v-393c0 -108 34 -205 196 -205c116 0 214 73 214 220v378h43zM415 895l36 -35l-183 -165l-18 17z" />
    <glyph glyph-name="ucircumflex" unicode="&#xfb;" horiz-adv-x="671" 
d="M581 630v-630h-43v116h-2c-38 -76 -115 -126 -217 -126c-161 0 -234 87 -234 242v398h43v-393c0 -108 34 -205 196 -205c116 0 214 73 214 220v378h43zM334 875l162 -162l-19 -19l-144 125l-2 -1l-142 -124l-20 20l163 163z" />
    <glyph glyph-name="udieresis" unicode="&#xfc;" horiz-adv-x="671" 
d="M581 630v-630h-43v116h-2c-38 -76 -115 -126 -217 -126c-161 0 -234 87 -234 242v398h43v-393c0 -108 34 -205 196 -205c116 0 214 73 214 220v378h43zM265 751c0 -27 -13 -43 -38 -43s-38 16 -38 43s13 43 38 43s38 -16 38 -43zM466 751c0 -27 -14 -43 -39 -43
c-24 0 -38 16 -38 43s14 43 38 43c25 0 39 -16 39 -43z" />
    <glyph glyph-name="ugrave" unicode="&#xf9;" horiz-adv-x="671" 
d="M581 630v-630h-43v116h-2c-38 -76 -115 -126 -217 -126c-161 0 -234 87 -234 242v398h43v-393c0 -108 34 -205 196 -205c116 0 214 73 214 220v378h43zM254 895l165 -183l-18 -17l-183 165z" />
    <glyph glyph-name="yacute" unicode="&#xfd;" horiz-adv-x="590" 
d="M526 630h49l-271 -705c-37 -97 -95 -140 -165 -140c-36 0 -65 5 -90 17v40c26 -10 56 -16 82 -16c59 0 104 33 140 127c0 0 14 36 16 43l-272 634h49l212 -502l31 -86h2l28 86zM371 896l36 -36l-183 -165l-18 17z" />
    <glyph glyph-name="ydieresis" unicode="&#xff;" horiz-adv-x="590" 
d="M526 630h49l-271 -705c-37 -97 -95 -140 -165 -140c-36 0 -65 5 -90 17v40c26 -10 56 -16 82 -16c59 0 104 33 140 127c0 0 14 36 16 43l-272 634h49l212 -502l31 -86h2l28 86zM233 751c0 -27 -14 -43 -38 -43c-25 0 -39 16 -39 43s14 43 39 43s38 -16 38 -43zM433 751
c0 -27 -14 -43 -38 -43c-25 0 -38 16 -38 43s13 43 38 43s38 -16 38 -43z" />
    <glyph glyph-name="zcaron" unicode="&#x17e;" horiz-adv-x="616" 
d="M556 40v-40h-496v31l387 502l53 54v2h-433v40h486v-30l-388 -502l-53 -55v-2h444zM452 877l19 -20l-162 -163l-3 1l-162 162l19 20l144 -126l3 1z" />
    <glyph glyph-name="onethird" unicode="&#x2153;" horiz-adv-x="721" 
d="M410 820h41l-283 -830h-42zM166 810v-454h-40l1 363l4 41h-2l-25 -34l-47 -49l-27 27l102 106h34zM666 122c0 -60 -46 -132 -157 -132c-60 0 -105 20 -145 63l28 30c31 -36 66 -56 117 -56c82 0 118 50 118 92c0 48 -38 86 -105 93c-12 1 -41 2 -58 2v37c17 1 46 1 55 3
c70 9 99 49 99 85c0 41 -30 77 -109 77c-48 0 -82 -17 -113 -52l-28 30c39 42 85 60 142 60c107 0 147 -61 147 -118c0 -44 -35 -86 -87 -101v-2c55 -11 96 -57 96 -111z" />
    <glyph glyph-name="twothirds" unicode="&#x2154;" horiz-adv-x="865" 
d="M330 697c0 -54 -27 -93 -101 -123l-64 -26c-50 -20 -74 -63 -71 -133v-13l-1 -2h236v-39h-274v64c0 79 28 133 93 160l59 24c60 25 83 49 83 88c0 40 -24 79 -94 79c-41 0 -74 -16 -105 -55l-29 31c39 45 82 63 134 63c96 0 134 -59 134 -118zM545 820h41l-283 -830h-42z
M810 122c0 -60 -45 -132 -156 -132c-60 0 -106 20 -146 63l28 30c32 -36 66 -56 117 -56c82 0 118 50 118 92c0 48 -38 86 -105 93c-11 1 -41 2 -58 2v37c17 1 47 1 56 3c69 9 98 49 98 85c0 41 -30 77 -108 77c-48 0 -83 -17 -114 -52l-28 30c40 42 86 60 143 60
c106 0 146 -61 146 -118c0 -44 -34 -86 -87 -101v-2c55 -11 96 -57 96 -111z" />
    <glyph glyph-name="HT" unicode="&#x9;" horiz-adv-x="1000" 
 />
    <glyph glyph-name="LF" unicode="&#xa;" horiz-adv-x="1000" 
 />
    <glyph glyph-name="CR" unicode="&#xd;" horiz-adv-x="1000" 
 />
    <glyph glyph-name="DLE" horiz-adv-x="1000" 
 />
    <glyph glyph-name="DC1" horiz-adv-x="1000" 
 />
    <glyph glyph-name="DC2" horiz-adv-x="1000" 
 />
    <glyph glyph-name="DC3" horiz-adv-x="1000" 
 />
    <glyph glyph-name="DC4" horiz-adv-x="1000" 
 />
    <glyph glyph-name="RS" horiz-adv-x="1000" 
 />
    <glyph glyph-name="US" horiz-adv-x="1000" 
 />
    <glyph glyph-name="DEL" horiz-adv-x="1000" 
 />
    <glyph glyph-name="notequal" unicode="&#x2260;" horiz-adv-x="675" 
d="M585 302v-44h-304l2 -4l-69 -134h-42l68 134l6 4h-156v44h180l-3 5l101 196l6 5h-284v44h307l-2 5l68 132h42l-69 -132l-6 -5h155v-44h-178l3 -5l-100 -196l-6 -5h281z" />
    <glyph glyph-name="infinity" unicode="&#x221e;" horiz-adv-x="837" 
d="M222 560c-76 0 -120 -76 -120 -152c0 -75 46 -152 121 -152c78 0 143 97 174 153c-56 85 -109 151 -175 151zM736 408c0 77 -46 152 -122 152c-59 0 -98 -43 -132 -94c-9 -14 -22 -33 -37 -57c6 -9 21 -34 32 -50c30 -44 78 -103 138 -103c77 0 121 76 121 152zM777 409
c0 -112 -61 -194 -156 -194c-73 0 -126 52 -200 162c-70 -107 -129 -162 -202 -162c-98 0 -159 80 -159 194c0 111 63 192 158 192c74 0 125 -51 200 -163c72 116 123 163 201 163c97 0 158 -78 158 -192z" />
    <glyph glyph-name="lessequal" unicode="&#x2264;" horiz-adv-x="449" 
d="M358 106v-42h-303v42h303zM58 457l268 291l32 -31l-187 -199l-60 -56l34 -29l44 -45l168 -179l-31 -32z" />
    <glyph glyph-name="greaterequal" unicode="&#x2265;" horiz-adv-x="449" 
d="M394 106v-42h-304v42h304zM122 748l269 -291l-268 -280l-32 32l187 197l59 56l-33 29l-44 46l-169 180z" />
    <glyph glyph-name="partialdiff" unicode="&#x2202;" horiz-adv-x="606" 
d="M499 281c0 138 -59 252 -200 252c-148 0 -201 -125 -201 -252c0 -125 54 -252 202 -252c147 0 199 127 199 252zM551 362c0 -238 -76 -370 -252 -370c-162 0 -244 119 -244 289s82 289 244 289c105 0 168 -54 203 -132h2c-2 235 -68 365 -204 365
c-57 0 -117 -20 -165 -60l-30 32c57 47 121 70 195 70c198 0 251 -195 251 -483z" />
    <glyph glyph-name="summation" unicode="&#x2211;" horiz-adv-x="691" 
d="M635 -167l1 -43h-581v40l379 488v7l-379 445v39h568v-42l-519 1l69 -69l321 -378l-326 -419l-62 -68z" />
    <glyph glyph-name="product" unicode="&#x220f;" horiz-adv-x="725" 
d="M670 809v-42h-98l3 -5v-973h-44v973l3 5h-343l3 -5v-973h-45v973l3 5h-97v42h615z" />
    <glyph glyph-name="pi" unicode="&#x3c0;" horiz-adv-x="627" 
d="M607 629v-42h-88l3 -5v-582h-43v582l4 5h-339l4 -5v-582h-43v582l3 5h-88v42h587z" />
    <glyph glyph-name="integral" unicode="&#x222b;" horiz-adv-x="412" 
d="M396 920l-10 -28c-15 7 -32 10 -47 10c-72 0 -103 -39 -110 -106c-1 -8 -3 -56 -3 -159v-558c0 -80 -1 -126 -4 -144c-8 -74 -47 -127 -153 -127c-18 0 -36 4 -54 7l8 29c13 -4 31 -7 43 -7c74 0 111 40 119 109c2 12 3 54 3 106v628c0 44 0 64 1 93
c5 109 46 160 146 160c22 0 42 -5 61 -13z" />
    <glyph glyph-name="Omega" unicode="&#x2126;" horiz-adv-x="838" 
d="M776 43v-43h-261v41c144 64 218 211 218 370c0 189 -130 362 -312 362c-188 0 -316 -169 -316 -363c0 -153 76 -310 221 -370v-40h-263v43h188v2c-122 77 -189 211 -189 367c0 213 155 407 358 407c202 0 355 -194 355 -406c0 -157 -68 -291 -185 -368v-2h186z" />
    <glyph glyph-name="radical" unicode="&#x221a;" horiz-adv-x="555" 
d="M514 919h41l-260 -1010h-49l-121 394l6 7h-131v40h153l115 -372h3z" />
    <glyph glyph-name="approxequal" unicode="&#x2248;" horiz-adv-x="653" 
d="M547 359l27 -27c-21 -68 -76 -104 -141 -104c-32 0 -62 14 -97 38c-22 15 -43 30 -62 41s-39 18 -60 18c-45 0 -88 -35 -107 -89l-28 28c18 56 72 104 140 104c33 0 70 -19 105 -44c19 -14 39 -27 57 -37s38 -17 57 -17c47 0 87 27 109 89zM547 572l27 -27
c-21 -68 -76 -104 -141 -104c-32 0 -62 14 -97 38c-22 15 -43 30 -62 41s-39 18 -60 18c-45 0 -88 -35 -107 -89l-28 28c18 56 72 104 140 104c33 0 70 -19 105 -44c19 -14 39 -27 57 -37s38 -17 57 -17c47 0 87 27 109 89z" />
    <glyph glyph-name="Delta" unicode="&#x2206;" horiz-adv-x="789" 
d="M96 43h596l-7 7l-267 643l-24 68h-1l-25 -68l-265 -643zM412 810l337 -810h-709l334 810h38z" />
    <glyph glyph-name="uni00A0" unicode="&#xa0;" horiz-adv-x="310" 
 />
    <glyph glyph-name="lozenge" unicode="&#x25ca;" horiz-adv-x="750" 
d="M375 59l269 346l-269 347l-269 -347zM375 820l320 -415l-320 -415l-320 415z" />
    <glyph glyph-name="Euro" unicode="&#x20ac;" horiz-adv-x="704" 
d="M634 717l-32 -34c-47 66 -109 94 -192 94c-146 0 -212 -124 -235 -257c0 -2 -3 -8 -3 -10h320v-45h-326c0 -3 2 -9 2 -11c-1 -18 -2 -36 -2 -54c0 -15 0 -30 1 -45c0 -2 -2 -8 -2 -10h327v-45h-322c0 -2 3 -8 4 -10c19 -135 85 -257 235 -257c82 0 145 28 192 93l31 -33
c-53 -71 -133 -103 -224 -103c-174 0 -261 135 -283 306l-2 4h-83v45h82c0 3 -2 8 -2 11c-1 14 -1 29 -1 44c0 18 1 37 2 55c0 2 2 8 3 10h-84v45h89c0 2 -2 7 -1 9c27 165 112 301 281 301c92 0 171 -31 225 -103z" />
    <glyph glyph-name="apple" unicode="&#xf8ff;" horiz-adv-x="827" 
d="M25 407l283 -407h-308v810h306zM827 810v-810h-181l-282 407l280 403h183z" />
    <glyph glyph-name="indianrupeesign" unicode="&#x20b9;" horiz-adv-x="665" 
d="M98 810h497l-28 -38h-205v-1c52 -28 88 -78 103 -144h127l-25 -38h-98c2 -126 -86 -202 -189 -222v-2c61 -19 102 -60 135 -131l110 -234h-50l-99 212c-40 87 -96 142 -235 144h-11v43h71c128 0 222 69 221 190h-352l28 38h320c-29 102 -117 145 -202 145h-146z" />
    <glyph glyph-name="careof" unicode="&#x2105;" horiz-adv-x="932" 
d="M354 457l32 -33c-42 -42 -88 -59 -142 -59c-128 0 -189 94 -189 224c0 133 70 231 190 231c57 0 100 -17 135 -52l-31 -33c-29 27 -64 41 -104 41c-99 -1 -146 -90 -146 -187c0 -94 41 -180 145 -180c42 0 77 14 110 48zM574 820h44l-284 -830h-43zM833 214
c0 99 -43 183 -145 183s-144 -84 -144 -183s43 -183 144 -183c102 0 145 84 145 183zM877 214c0 -133 -64 -228 -189 -228s-188 94 -188 228s63 227 188 227c126 0 189 -92 189 -227z" />
    <glyph glyph-name="numero" unicode="&#x2116;" horiz-adv-x="1332" 
d="M679 810v-810h-43l-443 644l-56 91h-2v-735h-45v810h44l433 -630l65 -106h2v736h45zM1207 38v-38h-409v38h409zM1200 420c0 132 -50 248 -198 248c-150 0 -198 -116 -198 -248c0 -130 50 -248 198 -248c149 0 198 117 198 248zM1242 420c0 -172 -77 -289 -240 -289
c-164 0 -240 116 -240 289s76 290 240 290c165 0 240 -115 240 -290z" />
    <glyph glyph-name="Cacute" unicode="&#x106;" horiz-adv-x="725" 
d="M695 716l-34 -35c-51 60 -129 96 -233 96c-231 0 -326 -174 -326 -378c0 -201 92 -366 325 -366c103 0 181 36 233 95l33 -34c-61 -65 -149 -104 -267 -104c-245 0 -371 160 -371 410s132 420 372 420c120 0 207 -39 268 -104zM497 1075l36 -36l-183 -165l-18 17z" />
    <glyph glyph-name="cacute" unicode="&#x107;" horiz-adv-x="558" 
d="M498 95l30 -32c-51 -49 -117 -73 -198 -73c-186 0 -275 132 -275 320c0 191 102 330 276 330c85 0 142 -23 189 -64l-30 -32c-38 35 -95 55 -158 54c-161 -1 -234 -139 -234 -288c0 -144 64 -279 231 -279c67 0 124 20 169 64zM398 900l38 -37l-187 -168l-18 17z" />
    <glyph glyph-name="Lacute" unicode="&#x139;" horiz-adv-x="603" 
d="M588 43v-43h-498v810h45v-762l-5 -5h458zM248 1075l36 -36l-183 -165l-18 17z" />
    <glyph glyph-name="lacute" unicode="&#x13a;" horiz-adv-x="223" 
d="M133 840v-840h-43v840h43zM190 1080l37 -37l-186 -168l-18 17z" />
    <glyph glyph-name="Nacute" unicode="&#x143;" horiz-adv-x="795" 
d="M705 810v-810h-42l-459 634l-67 104h-2v-738h-45v810h42l460 -635l66 -103h2v738h45zM480 1075l36 -36l-182 -165l-18 17z" />
    <glyph glyph-name="nacute" unicode="&#x144;" horiz-adv-x="679" 
d="M594 409v-409h-43v387c0 119 -38 211 -200 211c-119 0 -218 -73 -218 -220v-378h-43v630h43v-115h2c39 79 126 125 221 125c165 0 238 -91 238 -231zM424 899l38 -36l-187 -168l-18 17z" />
    <glyph glyph-name="Racute" unicode="&#x154;" horiz-adv-x="727" 
d="M619 582c0 132 -88 185 -199 185h-290l5 -6v-357l-5 -6h279c147 0 210 89 210 184zM613 231l109 -231h-53l-97 212c-45 98 -111 143 -226 143h-215l4 -5v-350h-45v810h330c139 0 246 -73 246 -228c0 -102 -59 -190 -182 -216v-2c63 -22 104 -78 129 -133zM461 1075
l36 -36l-183 -165l-18 17z" />
    <glyph glyph-name="racute" unicode="&#x155;" horiz-adv-x="376" 
d="M356 634v-49h-10c-105 1 -213 -79 -213 -275v-310h-43v629h43v-158h2c30 104 117 163 216 163h5zM291 900l37 -37l-187 -168l-18 17z" />
    <glyph glyph-name="Sacute" unicode="&#x15a;" horiz-adv-x="708" 
d="M658 204c0 -101 -71 -214 -298 -214c-118 0 -227 40 -310 116l37 36c78 -71 170 -109 271 -109c169 0 253 74 253 168c0 74 -56 136 -179 171c-18 5 -131 38 -150 43c-146 43 -224 95 -224 201c0 102 84 204 295 204c109 0 202 -38 271 -105l-35 -35
c-58 59 -142 97 -235 97c-160 0 -249 -66 -249 -159c0 -86 79 -124 207 -162c18 -5 118 -35 137 -40c153 -45 209 -122 209 -212zM429 1075l36 -36l-182 -164l-18 17z" />
    <glyph glyph-name="sacute" unicode="&#x15b;" horiz-adv-x="577" 
d="M522 159c0 -82 -56 -170 -228 -170c-88 0 -173 29 -239 94l34 33c62 -58 127 -85 202 -85c115 0 187 48 187 126c0 64 -40 99 -129 125c-13 4 -98 31 -112 35c-111 34 -174 76 -174 161c0 80 64 162 224 162c85 0 157 -30 211 -86l-32 -33c-46 48 -104 77 -179 77
c-112 0 -180 -50 -180 -118c0 -65 59 -96 157 -125c14 -4 87 -28 102 -33c119 -35 156 -92 156 -163zM358 899l38 -36l-187 -168l-18 17z" />
    <glyph glyph-name="Zacute" unicode="&#x179;" horiz-adv-x="739" 
d="M679 43v-43h-619v37l503 664l58 64v2h-551v43h604v-41l-498 -655l-61 -69v-2h564zM461 1075l36 -36l-183 -165l-18 17z" />
    <glyph glyph-name="zacute" unicode="&#x17a;" horiz-adv-x="616" 
d="M556 40v-40h-496v35l393 502l49 50v2h-435v40h486v-32l-395 -504l-48 -51v-2h446zM396 899l37 -36l-187 -168l-18 17z" />
    <glyph glyph-name="Wacute" unicode="&#x1e82;" horiz-adv-x="983" 
d="M908 810h50l-221 -810h-54l-172 634l-19 90h-1l-20 -90l-171 -634h-55l-220 810h50l180 -674l16 -86h2l16 86l184 674h37l184 -677l15 -83h2l16 84zM562 1075l36 -36l-183 -164l-18 17z" />
    <glyph glyph-name="wacute" unicode="&#x1e83;" horiz-adv-x="828" 
d="M767 630h46l-185 -630h-47l-151 500l-15 72h-1l-15 -72l-152 -500h-48l-184 630h47l148 -510l14 -68h2l14 68l154 510h40l155 -510l13 -68h3l13 68zM482 899l38 -36l-187 -168l-18 17z" />
    <glyph glyph-name="AEacute" unicode="&#x1fc;" horiz-adv-x="986" 
d="M505 766l-50 1l-66 -4l1 -2l-213 -494l-6 -6h335l-5 5l1 496zM916 43v-43h-414v214l6 4h-355l3 -5l-90 -213h-51l344 810h557v-43h-371l3 -5v-331l-5 -5h332v-42h-332l5 -5v-330l-5 -6h373zM596 1075l36 -36l-182 -164l-18 17z" />
    <glyph glyph-name="aeacute" unicode="&#x1fd;" horiz-adv-x="1118" 
d="M556 336l467 1l-5 4c-8 143 -76 257 -225 257s-221 -116 -232 -257zM1063 310v-13v0l-508 -1l5 -5c9 -153 81 -260 236 -260c66 0 126 23 173 65l31 -32c-55 -49 -125 -74 -203 -74c-125 0 -204 56 -245 143c-4 -18 -9 -30 -16 -41c-49 -77 -148 -103 -248 -103
c-125 0 -233 51 -233 183c0 191 223 196 377 196c28 0 68 -3 90 -7l-4 6v48c0 141 -91 183 -197 183c-63 0 -139 -16 -197 -59l-30 30c70 52 145 70 227 70c107 0 196 -39 230 -153l1 1c42 92 121 153 240 153c203 0 271 -165 271 -330zM518 319l4 6c-19 3 -61 5 -82 5
c-28 0 -62 0 -97 -2c-37 -2 -74 -5 -109 -13c-71 -18 -136 -54 -136 -143c0 -118 125 -142 191 -142c73 0 229 31 229 143v146zM637 899l37 -36l-187 -168l-18 17z" />
    <glyph glyph-name="Oslashacute" unicode="&#x1fe;" horiz-adv-x="819" 
d="M587 718l4 3c-47 36 -106 56 -181 56c-222 0 -308 -178 -308 -377c0 -131 37 -249 128 -315v7zM717 400c0 120 -31 236 -110 308v-7l-355 -624l-6 -2c45 -27 99 -42 164 -42c220 0 307 169 307 367zM764 400c0 -251 -126 -410 -355 -410c-71 0 -136 16 -185 45v-7
l-50 -86l-22 13l49 87l6 4c-101 68 -152 192 -152 354c0 251 124 420 354 420c81 0 149 -20 205 -60v6l46 80l22 -14l-47 -82l-5 -2c90 -73 134 -196 134 -348zM487 1075l36 -36l-182 -164l-18 17z" />
    <glyph glyph-name="oslashacute" unicode="&#x1ff;" 
d="M455 554l5 4c-34 25 -79 40 -132 40c-165 0 -230 -131 -230 -283c0 -94 25 -180 86 -234l4 9zM558 315c0 90 -23 174 -78 227l-3 -7l-267 -464l-5 -6c32 -21 74 -33 123 -33c165 0 230 131 230 283zM601 315c0 -192 -93 -325 -273 -325c-57 0 -104 12 -145 37l-2 -7
l-43 -75l-25 15l45 78l3 4c-71 56 -106 153 -106 273c0 193 92 325 272 325c62 0 112 -15 155 -43l1 6l44 76l25 -15l-45 -78l-5 -5c66 -56 99 -150 99 -266zM408 899l38 -36l-187 -168l-18 17z" />
    <glyph glyph-name="Aringacute" unicode="&#x1fa;" horiz-adv-x="765" 
d="M174 261h416l-6 6l-178 419l-22 71h-2l-23 -71l-179 -420zM445 877c0 37 -19 68 -63 68c-43 0 -63 -31 -63 -68c0 -36 20 -68 63 -68c44 0 63 31 63 68zM413 786l337 -786h-51l-92 214l2 4h-454l2 -5l-91 -213h-51l337 786c-40 11 -60 45 -60 91c0 57 30 96 90 96
c61 0 91 -39 91 -96c0 -46 -20 -80 -60 -91zM462 1202l36 -36l-182 -164l-18 17z" />
    <glyph glyph-name="aringacute" unicode="&#x1fb;" horiz-adv-x="646" 
d="M518 320l5 5c-20 3 -62 5 -83 5c-28 0 -62 0 -97 -2c-37 -2 -74 -5 -109 -13c-71 -18 -136 -55 -136 -143c0 -118 125 -142 191 -142c73 0 229 31 229 143v147zM561 418v-418h-43v81h-2c-42 -59 -133 -92 -228 -92c-125 0 -233 51 -233 183c0 191 223 196 377 196
c28 0 69 -3 91 -7l-5 5v49c0 141 -91 183 -197 183c-63 0 -139 -16 -197 -59l-30 30c70 52 145 70 227 70c129 0 240 -52 240 -221zM382 791c0 37 -20 68 -63 68c-44 0 -63 -31 -63 -68s19 -68 63 -68c43 0 63 31 63 68zM409 791c0 -56 -30 -96 -90 -96c-61 0 -91 39 -91 96
s30 96 90 96c61 0 91 -39 91 -96zM392 1129l38 -36l-187 -168l-18 17z" />
    <glyph glyph-name="Ccaron" unicode="&#x10c;" horiz-adv-x="725" 
d="M695 716l-34 -35c-51 60 -129 96 -233 96c-231 0 -326 -174 -326 -378c0 -201 92 -366 325 -366c103 0 181 36 233 95l33 -34c-61 -65 -149 -104 -267 -104c-245 0 -371 160 -371 410s132 420 372 420c120 0 207 -39 268 -104zM565 1057l20 -19l-163 -163l-3 1l-161 162
l19 19l144 -125l2 1z" />
    <glyph glyph-name="ccaron" unicode="&#x10d;" horiz-adv-x="558" 
d="M498 95l30 -32c-51 -49 -117 -73 -198 -73c-186 0 -275 132 -275 320c0 191 102 330 276 330c85 0 142 -23 189 -64l-30 -32c-38 35 -95 55 -158 54c-161 -1 -234 -139 -234 -288c0 -144 64 -279 231 -279c67 0 124 20 169 64zM469 878l19 -20l-162 -163l-3 1l-162 162
l19 20l145 -126l2 1z" />
    <glyph glyph-name="Ecaron" unicode="&#x11a;" horiz-adv-x="705" 
d="M635 43v-43h-545v810h545v-43h-505l5 -5v-330l-5 -5h457v-43h-457l5 -5v-331l-5 -5h505zM517 1057l20 -19l-162 -163l-3 1l-162 162l19 19l144 -125l3 1z" />
    <glyph glyph-name="ecaron" unicode="&#x11b;" 
d="M94 336l467 1l-5 4c-8 143 -76 257 -225 257s-221 -116 -232 -257zM601 310v-13v0l-508 -1l5 -5c9 -153 81 -260 236 -260c66 0 126 23 173 65l31 -32c-55 -49 -125 -74 -203 -74c-196 0 -280 140 -280 320c0 181 90 330 275 330c203 0 271 -165 271 -330zM471 878
l20 -20l-163 -163l-2 1l-162 162l19 20l144 -126l3 1z" />
    <glyph glyph-name="Ncaron" unicode="&#x147;" horiz-adv-x="795" 
d="M705 810v-810h-42l-459 634l-67 104h-2v-738h-45v810h42l460 -635l66 -103h2v738h45zM544 1057l20 -19l-162 -163l-3 1l-162 162l19 19l144 -125l3 1z" />
    <glyph glyph-name="ncaron" unicode="&#x148;" horiz-adv-x="679" 
d="M594 409v-409h-43v387c0 119 -38 211 -200 211c-119 0 -218 -73 -218 -220v-378h-43v630h43v-115h2c39 79 126 125 221 125c165 0 238 -91 238 -231zM491 878l20 -20l-163 -163l-2 1l-162 162l19 20l144 -126l3 1z" />
    <glyph glyph-name="Rcaron" unicode="&#x158;" horiz-adv-x="727" 
d="M619 582c0 132 -88 185 -199 185h-290l5 -6v-357l-5 -6h279c147 0 210 89 210 184zM613 231l109 -231h-53l-97 212c-45 98 -111 143 -226 143h-215l4 -5v-350h-45v810h330c139 0 246 -73 246 -228c0 -102 -59 -190 -182 -216v-2c63 -22 104 -78 129 -133zM513 1058
l20 -20l-162 -163l-3 1l-162 163l19 19l144 -126l3 1z" />
    <glyph glyph-name="rcaron" unicode="&#x159;" horiz-adv-x="376" 
d="M356 634v-49h-10c-105 1 -213 -79 -213 -275v-310h-43v629h43v-158h2c30 104 117 163 216 163h5zM364 878l19 -20l-162 -163l-3 1l-162 162l19 20l144 -126l3 1z" />
    <glyph glyph-name="Tcaron" unicode="&#x164;" horiz-adv-x="665" 
d="M645 810v-43h-293l3 -5v-762h-45v762l3 5h-293v43h625zM476 1057l20 -19l-162 -163l-3 1l-162 162l19 19l144 -125l3 1z" />
    <glyph glyph-name="tcaron" unicode="&#x165;" horiz-adv-x="409" 
d="M369 72l30 -31c-45 -34 -91 -51 -145 -51c-89 0 -148 60 -148 181v414l3 5h-79v40h79l-3 5v115l43 23v-138l-3 -5h198v-40h-198l3 -5v-410c0 -98 41 -144 110 -144c41 0 78 14 110 41zM343 852c0 -11 -2 -21 -7 -29l-51 -101l-28 15l30 62l9 7c-30 2 -42 20 -42 46
c0 29 16 47 45 47s44 -18 44 -47z" />
    <glyph glyph-name="Dcaron" unicode="&#x10e;" horiz-adv-x="776" 
d="M364 767h-234l5 -5v-715l-5 -4h239c264 0 305 181 305 362c0 179 -41 362 -310 362zM721 405c0 -201 -52 -405 -342 -405h-289v810h285c282 0 346 -189 346 -405zM514 1057l20 -19l-163 -163l-3 1l-161 162l19 19l144 -125l2 1z" />
    <glyph glyph-name="dcaron" unicode="&#x10f;" horiz-adv-x="725" 
d="M551 311c0 160 -68 287 -224 287c-165 0 -229 -139 -229 -287s65 -280 229 -280c154 0 224 126 224 280zM589 839v-838h-43v128h-2c-40 -90 -120 -139 -219 -139c-180 0 -270 132 -270 321c0 193 89 328 270 328c99 0 175 -49 219 -142h2v342h43zM740 854
c0 -11 -2 -21 -7 -29l-51 -101l-28 15l30 62l9 7c-30 2 -42 20 -42 46c0 29 16 47 45 47s44 -18 44 -47z" />
    <glyph glyph-name="Gcommacedilla" unicode="&#x122;" horiz-adv-x="839" 
d="M476 -89c0 -10 -3 -20 -7 -28l-47 -94l-27 13l28 59l9 7c-28 1 -40 19 -40 43c0 26 16 44 42 44c27 0 42 -17 42 -44zM749 428v-428h-37v199h-2c-34 -104 -136 -209 -285 -209c-240 0 -370 153 -370 406c0 262 137 424 374 424c104 0 206 -29 278 -102l-35 -35
c-61 68 -156 94 -242 94c-222 0 -328 -153 -328 -381c0 -220 105 -363 323 -363c170 0 288 143 285 347l5 5h-270v43h304z" />
    <glyph glyph-name="gcommacedilla" unicode="&#x123;" horiz-adv-x="679" 
d="M551 349c0 136 -75 250 -225 250c-154 0 -228 -110 -228 -250c0 -144 76 -246 228 -246c155 0 225 113 225 246zM546 630h43v-584c0 -168 -81 -261 -261 -261c-83 0 -157 23 -220 68l32 33c50 -38 122 -61 188 -61c147 0 218 81 218 222v145h-2
c-40 -77 -114 -130 -219 -130c-180 0 -270 117 -270 287c0 164 90 291 269 291c106 0 186 -58 220 -134h2v124zM376 735c0 -27 -15 -45 -42 -45s-42 18 -42 45c0 10 3 19 7 27l47 95l27 -14l-28 -58l-9 -7c28 -2 40 -19 40 -43z" />
    <glyph glyph-name="Kcommacedilla" unicode="&#x136;" horiz-adv-x="646" 
d="M407 -89c0 -10 -3 -20 -7 -28l-47 -94l-27 13l28 59l9 7c-28 1 -40 19 -40 43c0 26 16 44 42 44c27 0 42 -17 42 -44zM135 810v-810h-45v810h45zM208 409l438 -409h-66l-435 409l424 401h65l-426 -399v-2z" />
    <glyph glyph-name="kcommacedilla" unicode="&#x137;" horiz-adv-x="529" 
d="M352 -89c0 -10 -2 -20 -6 -28l-48 -94l-27 13l29 59l8 7c-28 1 -39 19 -39 43c0 26 15 44 42 44s41 -17 41 -44zM133 840v-840h-43v840h43zM203 322l326 -322h-61l-325 324l309 305h59l-309 -305z" />
    <glyph glyph-name="Lcommacedilla" unicode="&#x13b;" horiz-adv-x="603" 
d="M393 -89c0 -10 -2 -20 -6 -28l-48 -94l-27 13l29 59l8 7c-28 1 -39 19 -39 43c0 26 15 44 42 44s41 -17 41 -44zM588 43v-43h-498v810h45v-762l-5 -5h458z" />
    <glyph glyph-name="lcommacedilla" unicode="&#x13c;" horiz-adv-x="223" 
d="M155 -89c0 -10 -3 -20 -7 -28l-47 -94l-27 13l28 59l9 7c-28 1 -40 19 -40 43c0 26 16 44 42 44c27 0 42 -17 42 -44zM133 840v-840h-43v840h43z" />
    <glyph glyph-name="Ncommacedilla" unicode="&#x145;" horiz-adv-x="795" 
d="M442 -89c0 -10 -3 -20 -7 -28l-47 -94l-27 13l28 59l9 7c-28 1 -40 19 -40 43c0 26 16 44 42 44c27 0 42 -17 42 -44zM705 810v-810h-42l-459 634l-67 104h-2v-738h-45v810h42l460 -635l66 -103h2v738h45z" />
    <glyph glyph-name="ncommacedilla" unicode="&#x146;" horiz-adv-x="679" 
d="M397 -89c0 -10 -2 -20 -6 -28l-48 -94l-27 13l29 59l8 7c-28 1 -39 19 -39 43c0 26 15 44 42 44s41 -17 41 -44zM594 409v-409h-43v387c0 119 -38 211 -200 211c-119 0 -218 -73 -218 -220v-378h-43v630h43v-115h2c39 79 126 125 221 125c165 0 238 -91 238 -231z" />
    <glyph glyph-name="Rcommacedilla" unicode="&#x156;" horiz-adv-x="727" 
d="M448 -89c0 -10 -3 -20 -7 -28l-47 -94l-27 13l28 59l9 7c-28 1 -40 19 -40 43c0 26 16 44 42 44c27 0 42 -17 42 -44zM619 582c0 132 -88 185 -199 185h-290l5 -6v-357l-5 -6h279c147 0 210 89 210 184zM613 231l109 -231h-53l-97 212c-45 98 -111 143 -226 143h-215
l4 -5v-350h-45v810h330c139 0 246 -73 246 -228c0 -102 -59 -190 -182 -216v-2c63 -22 104 -78 129 -133z" />
    <glyph glyph-name="rcommacedilla" unicode="&#x157;" horiz-adv-x="376" 
d="M193 -89c0 -10 -2 -20 -6 -28l-48 -94l-27 13l29 59l8 7c-28 1 -39 19 -39 43c0 26 15 44 42 44s41 -17 41 -44zM356 634v-49h-10c-105 1 -213 -79 -213 -275v-310h-43v629h43v-158h2c30 104 117 163 216 163h5z" />
    <glyph glyph-name="Scommacedilla" unicode="&#x218;" horiz-adv-x="708" 
d="M403 -89c0 -10 -3 -20 -7 -28l-47 -94l-27 13l28 59l9 7c-28 1 -40 19 -40 43c0 26 16 44 42 44c27 0 42 -17 42 -44zM658 204c0 -101 -71 -214 -298 -214c-118 0 -227 40 -310 116l37 36c78 -71 170 -109 271 -109c169 0 253 74 253 168c0 74 -56 136 -179 171
c-18 5 -131 38 -150 43c-146 43 -224 95 -224 201c0 102 84 204 295 204c109 0 202 -38 271 -105l-35 -35c-58 59 -142 97 -235 97c-160 0 -249 -66 -249 -159c0 -86 79 -124 207 -162c18 -5 118 -35 137 -40c153 -45 209 -122 209 -212z" />
    <glyph glyph-name="scommacedilla" unicode="&#x219;" horiz-adv-x="577" 
d="M336 -89c0 -10 -2 -20 -6 -28l-48 -94l-27 13l29 59l8 7c-28 1 -39 19 -39 43c0 26 15 44 42 44s41 -17 41 -44zM522 159c0 -82 -56 -170 -228 -170c-88 0 -173 29 -239 94l34 33c62 -58 127 -85 202 -85c115 0 187 48 187 126c0 64 -40 99 -129 125
c-13 4 -98 31 -112 35c-111 34 -174 76 -174 161c0 80 64 162 224 162c85 0 157 -30 211 -86l-32 -33c-46 48 -104 77 -179 77c-112 0 -180 -50 -180 -118c0 -65 59 -96 157 -125c14 -4 87 -28 102 -33c119 -35 156 -92 156 -163z" />
    <glyph glyph-name="Tcommacedilla" unicode="&#x21a;" horiz-adv-x="665" 
d="M376 -89c0 -10 -3 -20 -7 -28l-47 -94l-27 13l28 59l9 7c-28 1 -40 19 -40 43c0 26 16 44 42 44c27 0 42 -17 42 -44zM645 810v-43h-293l3 -5v-762h-45v762l3 5h-293v43h625z" />
    <glyph glyph-name="tcommacedilla" unicode="&#x21b;" horiz-adv-x="409" 
d="M276 -89c0 -10 -3 -20 -7 -28l-47 -94l-27 13l28 59l9 7c-28 1 -40 19 -40 43c0 26 16 44 42 44c27 0 42 -17 42 -44zM369 72l30 -31c-45 -34 -91 -51 -145 -51c-89 0 -148 60 -148 181v414l3 5h-79v40h79l-3 5v115l43 23v-138l-3 -5h198v-40h-198l3 -5v-410
c0 -98 41 -144 110 -144c41 0 78 14 110 41z" />
    <glyph glyph-name="Scedilla" unicode="&#x15e;" horiz-adv-x="708" 
d="M658 204c0 -97 -66 -205 -272 -213l5 -5c22 -22 31 -34 31 -53s-5 -26 -40 -60l-58 -59l-28 28l60 59c34 35 38 45 10 74l-16 15c-114 2 -220 42 -300 116l37 36c78 -71 170 -109 271 -109c169 0 253 74 253 168c0 74 -56 136 -179 171c-18 5 -131 38 -150 43
c-146 43 -224 95 -224 201c0 102 84 204 295 204c109 0 202 -38 271 -105l-35 -35c-58 59 -142 97 -235 97c-160 0 -249 -66 -249 -159c0 -86 79 -124 207 -162l137 -40c153 -45 209 -122 209 -212z" />
    <glyph glyph-name="scedilla" unicode="&#x15f;" horiz-adv-x="577" 
d="M319 -10l4 -4c22 -22 31 -34 31 -53s-5 -26 -40 -60l-58 -59l-28 28l60 59c34 35 38 45 10 74l-15 14c-84 3 -165 32 -228 94l34 33c62 -58 127 -85 202 -85c115 0 187 48 187 126c0 64 -40 99 -129 125c-13 4 -98 31 -112 35c-111 34 -174 76 -174 161
c0 80 64 162 224 162c85 0 157 -30 211 -86l-32 -33c-46 48 -104 77 -179 77c-112 0 -180 -50 -180 -118c0 -65 59 -96 157 -125c14 -4 87 -28 102 -33c119 -35 156 -92 156 -163c0 -78 -51 -161 -203 -169z" />
    <glyph glyph-name="Tcedilla" unicode="&#x162;" horiz-adv-x="665" 
d="M645 810v-43h-293l3 -5v-762h-6l24 -25c28 -28 28 -55 1 -83l-78 -78l-28 28l60 59c34 35 41 45 12 74l-25 25h-5v762l3 5h-293v43h625z" />
    <glyph glyph-name="tcedilla" unicode="&#x163;" horiz-adv-x="409" 
d="M238 -9l5 -5c22 -22 31 -34 31 -53s-5 -26 -40 -60l-58 -59l-28 28l60 59c34 35 38 45 10 74l-29 28c-52 24 -83 79 -83 168v414l3 5h-79v40h79l-3 5v115l43 23v-138l-3 -5h198v-40h-198l3 -5v-410c0 -98 41 -144 110 -144c41 0 78 14 110 41l30 -31
c-45 -34 -91 -51 -145 -51c-6 0 -11 0 -16 1z" />
    <glyph glyph-name="Lcaron" unicode="&#x13d;" horiz-adv-x="603" 
d="M588 43v-43h-498v810h45v-762l-5 -5h458zM365 773c0 -11 -3 -21 -7 -29l-51 -101l-29 15l30 62l10 7c-31 2 -43 20 -43 46c0 29 17 48 45 48c29 0 45 -19 45 -48z" />
    <glyph glyph-name="lcaron" unicode="&#x13e;" horiz-adv-x="251" 
d="M133 840v-840h-43v840h43zM277 798c0 -11 -3 -21 -7 -30l-51 -100l-29 14l30 62l10 7c-31 2 -43 21 -43 47c0 28 17 47 45 47c29 0 45 -19 45 -47z" />
    <glyph glyph-name="napostrophe" unicode="&#x149;" horiz-adv-x="696" 
d="M611 409v-409h-43v387c0 119 -39 211 -200 211c-119 0 -218 -73 -218 -220v-378h-43v630h43v-115h2c38 79 126 125 220 125c166 0 239 -91 239 -231zM89 773c0 -11 -2 -21 -7 -30l-51 -100l-29 14l31 62l9 7c-30 2 -42 21 -42 47c0 28 16 47 45 47s44 -19 44 -47z" />
    <glyph glyph-name="Aogonek" unicode="&#x104;" horiz-adv-x="765" 
d="M174 261h416l-6 6l-178 419l-22 71h-2l-23 -71l-179 -420zM737 -183l20 -21c-3 -4 -7 -12 -13 -15c-16 -17 -38 -32 -66 -32c-49 -2 -90 39 -91 89c-1 27 11 53 28 70l90 92h-6l-92 214l2 4h-454l2 -5l-91 -213h-51l348 810h40l347 -810h-6l-100 -104
c-13 -14 -19 -32 -19 -48c1 -35 30 -60 61 -60c16 1 30 7 40 17c2 3 6 6 11 12z" />
    <glyph glyph-name="aogonek" unicode="&#x105;" horiz-adv-x="646" 
d="M518 320l5 5c-20 3 -62 5 -83 5c-28 0 -62 0 -97 -2c-37 -2 -74 -5 -109 -13c-71 -18 -136 -55 -136 -143c0 -118 125 -142 191 -142c73 0 229 31 229 143v147zM542 -183l20 -21c-4 -4 -8 -12 -14 -15c-16 -17 -38 -32 -66 -32c-49 -2 -89 39 -91 89c0 27 11 53 29 70
l98 100v73h-2c-42 -59 -133 -92 -228 -92c-125 0 -233 51 -233 183c0 191 223 196 377 196c28 0 69 -3 91 -7l-5 5v49c0 141 -91 183 -197 183c-63 0 -139 -16 -197 -59l-30 30c70 52 145 70 227 70c129 0 240 -52 240 -221v-418h-12l-101 -104c-12 -14 -19 -32 -18 -48
c0 -35 29 -60 61 -60c15 1 30 7 40 17c2 3 6 6 11 12z" />
    <glyph glyph-name="Eogonek" unicode="&#x118;" horiz-adv-x="705" 
d="M635 43v-43h-13l-99 -104c-13 -14 -19 -32 -19 -48c1 -35 30 -60 61 -60c16 1 30 7 40 17c2 3 6 6 11 12l20 -21c-3 -4 -7 -12 -13 -15c-16 -17 -38 -32 -66 -32c-49 -2 -90 39 -91 89c-1 27 11 53 28 70l90 92h-494v810h545v-43h-505l5 -5v-330l-5 -5h457v-43h-457l5 -5
v-331l-5 -5h505z" />
    <glyph glyph-name="eogonek" unicode="&#x119;" 
d="M94 336l467 1l-5 4c-8 143 -76 257 -225 257s-221 -116 -232 -257zM601 310v-13v0l-508 -1l5 -5c9 -153 81 -260 236 -260c66 0 126 23 173 65l31 -32l-163 -168c-12 -14 -19 -32 -18 -48c0 -35 29 -60 61 -60c15 1 30 7 40 17c2 3 6 6 11 12l20 -21
c-4 -4 -8 -12 -14 -15c-16 -17 -38 -32 -66 -32c-49 -2 -89 39 -91 89c0 27 11 53 29 70l98 100c-34 -12 -71 -18 -110 -18c-196 0 -280 140 -280 320c0 181 90 330 275 330c203 0 271 -165 271 -330z" />
    <glyph glyph-name="Iogonek" unicode="&#x12e;" horiz-adv-x="235" 
d="M133 -183l20 -21c-4 -4 -7 -12 -14 -15c-16 -17 -37 -32 -66 -32c-49 -2 -89 39 -90 89c-1 27 10 53 28 70l90 92h-6v810h45v-810l-101 -104c-12 -14 -19 -32 -18 -48c0 -35 29 -60 61 -60c15 1 30 7 40 17c2 3 6 6 11 12z" />
    <glyph glyph-name="iogonek" unicode="&#x12f;" horiz-adv-x="223" 
d="M126 -184l20 -21c-4 -3 -7 -11 -14 -14c-15 -17 -37 -32 -65 -32c-49 -2 -90 38 -91 88c0 28 11 53 28 71l91 92h-5v629h43v-629l-100 -104c-13 -14 -19 -33 -19 -48c1 -35 30 -61 61 -60c16 0 30 6 41 17c2 2 5 6 10 11zM149 801c0 -31 -14 -46 -37 -46
c-24 0 -38 15 -38 46c0 30 14 45 37 45c24 0 38 -15 38 -45z" />
    <glyph glyph-name="Uogonek" unicode="&#x172;" horiz-adv-x="807" 
d="M722 810v-441c0 -225 -82 -351 -253 -375l-96 -98c-13 -13 -19 -32 -18 -48c0 -35 29 -60 61 -60c15 1 30 7 40 17c2 3 6 6 11 12l20 -21c-4 -4 -8 -12 -14 -15c-16 -17 -38 -32 -66 -32c-49 -2 -89 39 -91 89c0 27 11 53 29 70l80 83c-7 -1 -14 -1 -21 -1
c-216 0 -319 127 -319 379v441h45v-445c0 -201 76 -332 274 -332c197 0 273 130 273 332v445h45z" />
    <glyph glyph-name="uogonek" unicode="&#x173;" horiz-adv-x="671" 
d="M562 -183l20 -21c-4 -4 -7 -12 -14 -15c-16 -17 -37 -31 -66 -32c-49 -1 -89 39 -90 89c-1 27 10 53 28 71l98 100v107h-2c-38 -76 -115 -126 -217 -126c-161 0 -234 87 -234 242v398h43v-393c0 -108 34 -205 196 -205c116 0 214 73 214 220v378h43v-630h-13l-99 -104
c-13 -13 -19 -32 -19 -47c1 -36 30 -61 61 -61c16 1 30 7 40 18c2 2 6 5 11 11z" />
    <glyph glyph-name="Amacron" unicode="&#x100;" horiz-adv-x="765" 
d="M174 261h416l-6 6l-178 419l-22 71h-2l-23 -71l-179 -420zM403 810l347 -810h-51l-92 214l2 4h-454l2 -5l-91 -213h-51l348 810h40zM567 936v-35h-369v35h369z" />
    <glyph glyph-name="amacron" unicode="&#x101;" horiz-adv-x="646" 
d="M518 320l5 5c-20 3 -62 5 -83 5c-28 0 -62 0 -97 -2c-37 -2 -74 -5 -109 -13c-71 -18 -136 -55 -136 -143c0 -118 125 -142 191 -142c73 0 229 31 229 143v147zM561 418v-418h-43v81h-2c-42 -59 -133 -92 -228 -92c-125 0 -233 51 -233 183c0 191 223 196 377 196
c28 0 69 -3 91 -7l-5 5v49c0 141 -91 183 -197 183c-63 0 -139 -16 -197 -59l-30 30c70 52 145 70 227 70c129 0 240 -52 240 -221zM503 767v-36h-369v36h369z" />
    <glyph glyph-name="Emacron" unicode="&#x112;" horiz-adv-x="705" 
d="M635 43v-43h-545v810h545v-43h-505l5 -5v-330l-5 -5h457v-43h-457l5 -5v-331l-5 -5h505zM555 936v-35h-369v35h369z" />
    <glyph glyph-name="emacron" unicode="&#x113;" 
d="M94 336l467 1l-5 4c-8 143 -76 257 -225 257s-221 -116 -232 -257zM601 310v-13v0l-508 -1l5 -5c9 -153 81 -260 236 -260c66 0 126 23 173 65l31 -32c-55 -49 -125 -74 -203 -74c-196 0 -280 140 -280 320c0 181 90 330 275 330c203 0 271 -165 271 -330zM515 767v-36
h-369v36h369z" />
    <glyph glyph-name="Imacron" unicode="&#x12a;" horiz-adv-x="235" 
d="M140 810v-810h-45v810h45zM300 936v-35h-368v35h368z" />
    <glyph glyph-name="imacron" unicode="&#x12b;" horiz-adv-x="223" 
d="M133 629v-629h-43v629h43zM296 767v-36h-369v36h369z" />
    <glyph glyph-name="Omacron" unicode="&#x14c;" horiz-adv-x="819" 
d="M717 400c0 196 -84 377 -307 377c-222 0 -308 -178 -308 -377s87 -367 308 -367c220 0 307 169 307 367zM764 400c0 -251 -126 -410 -355 -410c-232 0 -354 159 -354 410s124 420 354 420c232 0 355 -168 355 -420zM593 936v-35h-368v35h368z" />
    <glyph glyph-name="omacron" unicode="&#x14d;" 
d="M558 315c0 152 -66 283 -230 283c-165 0 -230 -131 -230 -283c0 -151 66 -283 230 -283c165 0 230 131 230 283zM601 315c0 -192 -93 -325 -273 -325c-182 0 -273 131 -273 325c0 193 92 325 272 325c182 0 274 -130 274 -325zM512 767v-36h-369v36h369z" />
    <glyph glyph-name="Umacron" unicode="&#x16a;" horiz-adv-x="807" 
d="M677 810h45v-441c0 -251 -102 -379 -318 -379s-319 127 -319 379v441h45v-445c0 -201 76 -332 274 -332c197 0 273 130 273 332v445zM588 936v-35h-368v35h368z" />
    <glyph glyph-name="umacron" unicode="&#x16b;" horiz-adv-x="671" 
d="M581 630v-630h-43v116h-2c-38 -76 -115 -126 -217 -126c-161 0 -234 87 -234 242v398h43v-393c0 -108 34 -205 196 -205c116 0 214 73 214 220v378h43zM516 767v-36h-369v36h369z" />
    <glyph glyph-name="Dcroat" unicode="&#x110;" horiz-adv-x="773" 
d="M361 767h-231l5 -5v-331l-3 -5h198v-42h-199l4 -5v-331l-5 -5h236c263 0 304 180 304 362s-43 362 -309 362zM90 0v379l4 5h-69v42h69l-4 5v379h281c295 0 347 -204 347 -405c0 -203 -51 -405 -342 -405h-286z" />
    <glyph glyph-name="dcroat" unicode="&#x111;" horiz-adv-x="683" 
d="M551 311c0 160 -68 287 -224 287c-165 0 -229 -139 -229 -287c0 -149 65 -280 229 -280c154 0 224 126 224 280zM668 753v-36h-82l3 -5v-711h-43v128h-2c-40 -90 -120 -139 -219 -139c-180 0 -270 132 -270 321c0 193 89 328 270 328c99 0 175 -49 219 -142h2v215l3 5
h-223v36h223l-3 5v81h43v-81l-3 -5h82z" />
    <glyph glyph-name="kgreenlandic" unicode="&#x138;" horiz-adv-x="529" 
d="M133 630v-630h-43v630h43zM203 322l326 -322h-61l-325 324l309 305h59l-309 -305z" />
    <glyph glyph-name="Ccircumflex" unicode="&#x108;" horiz-adv-x="725" 
d="M695 716l-34 -35c-51 60 -129 96 -233 96c-231 0 -326 -174 -326 -378c0 -201 92 -366 325 -366c103 0 181 36 233 95l33 -34c-61 -65 -149 -104 -267 -104c-245 0 -371 160 -371 410s132 420 372 420c120 0 207 -39 268 -104zM425 1056l162 -163l-19 -19l-144 126l-3 -2
l-142 -124l-19 20l162 163z" />
    <glyph glyph-name="ccircumflex" unicode="&#x109;" horiz-adv-x="558" 
d="M498 95l30 -32c-51 -49 -117 -73 -198 -73c-186 0 -275 132 -275 320c0 191 102 330 276 330c85 0 142 -23 189 -64l-30 -32c-38 35 -95 55 -158 54c-161 -1 -234 -139 -234 -288c0 -144 64 -279 231 -279c67 0 124 20 169 64zM327 875l162 -162l-19 -19l-144 125l-3 -1
l-142 -124l-19 20l162 163z" />
    <glyph glyph-name="Gcircumflex" unicode="&#x11c;" horiz-adv-x="839" 
d="M749 428v-428h-37v202h-2c-39 -105 -136 -212 -285 -212c-240 0 -370 153 -370 406c0 262 137 424 374 424c104 0 206 -29 278 -102l-35 -35c-61 68 -156 94 -242 94c-222 0 -328 -153 -328 -381c0 -220 105 -363 323 -363c170 0 288 143 285 347l5 5h-270v43h304z
M428 1056l162 -163l-19 -19l-144 126l-3 -2l-141 -124l-20 20l163 163z" />
    <glyph glyph-name="gcircumflex" unicode="&#x11d;" horiz-adv-x="679" 
d="M551 349c0 136 -75 250 -225 250c-154 0 -228 -110 -228 -250c0 -144 76 -246 228 -246c155 0 225 113 225 246zM546 630h43v-584c0 -168 -81 -261 -261 -261c-83 0 -157 23 -220 68l32 33c50 -38 122 -61 188 -61c147 0 218 81 218 222v145h-2
c-40 -77 -114 -130 -219 -130c-180 0 -270 117 -270 287c0 164 90 291 269 291c106 0 186 -58 220 -134h2v124zM337 875l162 -162l-19 -19l-144 125l-3 -1l-142 -124l-19 20l162 163z" />
    <glyph glyph-name="Hcircumflex" unicode="&#x124;" horiz-adv-x="795" 
d="M705 810v-810h-45v379l5 5h-535l5 -5v-379h-45v810h45v-378l-5 -5h535l-5 5v378h45zM400 1056l162 -163l-19 -19l-144 126l-3 -2l-142 -124l-19 20l162 163z" />
    <glyph glyph-name="hcircumflex" unicode="&#x125;" horiz-adv-x="679" 
d="M594 413v-413h-43v401c0 107 -38 197 -195 197c-105 0 -223 -60 -223 -215v-383h-43v840h43v-328h2c39 79 123 128 227 128c163 0 232 -91 232 -227zM353 1056l164 -163l-19 -19l-146 126l-3 -2l-142 -124l-19 20l162 163z" />
    <glyph glyph-name="Jcircumflex" unicode="&#x134;" horiz-adv-x="556" 
d="M426 810h45v-521c0 -228 -121 -299 -264 -299c-81 0 -156 40 -207 103l33 34c44 -56 109 -94 174 -94c116 0 219 59 219 252v525zM449 1056l162 -163l-19 -19l-144 126l-3 -2l-141 -124l-20 20l163 163z" />
    <glyph glyph-name="jcircumflex" unicode="&#x135;" horiz-adv-x="223" 
d="M90 630h43v-692c0 -105 -48 -153 -140 -153c-18 0 -40 4 -57 11v39c17 -6 39 -9 56 -9c63 0 98 36 98 119v685zM114 878l162 -162l-19 -20l-144 126l-3 -1l-142 -125l-19 20l162 163z" />
    <glyph glyph-name="Scircumflex" unicode="&#x15c;" horiz-adv-x="708" 
d="M658 204c0 -101 -71 -214 -298 -214c-118 0 -227 40 -310 116l37 36c78 -71 170 -109 271 -109c169 0 253 74 253 168c0 74 -56 136 -179 171c-18 5 -131 38 -150 43c-146 43 -224 95 -224 201c0 102 84 204 295 204c109 0 202 -38 271 -105l-35 -35
c-58 59 -142 97 -235 97c-160 0 -249 -66 -249 -159c0 -86 79 -124 207 -162c18 -5 118 -35 137 -40c153 -45 209 -122 209 -212zM355 1056l162 -163l-19 -19l-144 126l-3 -2l-141 -124l-20 20l163 163z" />
    <glyph glyph-name="scircumflex" unicode="&#x15d;" horiz-adv-x="577" 
d="M522 159c0 -82 -56 -170 -228 -170c-88 0 -173 29 -239 94l34 33c62 -58 127 -85 202 -85c115 0 187 48 187 126c0 64 -40 99 -129 125c-13 4 -98 31 -112 35c-111 34 -174 76 -174 161c0 80 64 162 224 162c85 0 157 -30 211 -86l-32 -33c-46 48 -104 77 -179 77
c-112 0 -180 -50 -180 -118c0 -65 59 -96 157 -125c14 -4 87 -28 102 -33c119 -35 156 -92 156 -163zM290 876l162 -162l-19 -20l-144 126l-3 -1l-142 -125l-19 20l162 163z" />
    <glyph glyph-name="Wcircumflex" unicode="&#x174;" horiz-adv-x="983" 
d="M908 810h50l-221 -810h-54l-172 634l-19 90h-1l-20 -90l-171 -634h-55l-220 810h50l180 -674l16 -86h2l16 86l184 674h37l184 -677l15 -83h2l16 84zM493 1056l162 -163l-19 -19l-144 126l-3 -2l-141 -124l-20 20l163 163z" />
    <glyph glyph-name="wcircumflex" unicode="&#x175;" horiz-adv-x="828" 
d="M767 630h46l-185 -630h-47l-151 500l-15 72h-1l-15 -72l-152 -500h-48l-184 630h47l148 -510l14 -68h2l14 68l154 510h40l155 -510l13 -68h3l13 68zM413 875l162 -162l-19 -19l-144 125l-2 -1l-142 -124l-20 20l163 163z" />
    <glyph glyph-name="Ycircumflex" unicode="&#x176;" horiz-adv-x="705" 
d="M632 810h58l-314 -466v-344h-46v344l-315 466h59l228 -344l51 -83v0l49 83zM353 1056l162 -163l-19 -19l-144 126l-3 -2l-141 -124l-20 20l163 163z" />
    <glyph glyph-name="ycircumflex" unicode="&#x177;" horiz-adv-x="590" 
d="M526 630h49l-271 -705c-37 -97 -95 -140 -165 -140c-36 0 -65 5 -90 17v40c26 -10 56 -16 82 -16c59 0 104 33 140 127c0 0 14 36 16 43l-272 634h49l212 -502l31 -86h2l28 86zM291 875l162 -162l-19 -19l-144 125l-2 -1l-142 -124l-20 20l163 163z" />
    <glyph glyph-name="Uring" unicode="&#x16e;" horiz-adv-x="807" 
d="M677 810h45v-441c0 -251 -102 -379 -318 -379s-319 127 -319 379v441h45v-445c0 -201 76 -332 274 -332c197 0 273 130 273 332v445zM468 971c0 37 -20 68 -63 68c-44 0 -63 -31 -63 -68s20 -68 63 -68c44 0 63 31 63 68zM496 971c0 -56 -31 -96 -91 -96
c-61 0 -90 39 -90 96s29 96 90 96s91 -39 91 -96z" />
    <glyph glyph-name="uring" unicode="&#x16f;" horiz-adv-x="671" 
d="M581 630v-630h-43v116h-2c-38 -76 -115 -126 -217 -126c-161 0 -234 87 -234 242v398h43v-393c0 -108 34 -205 196 -205c116 0 214 73 214 220v378h43zM397 791c0 37 -20 68 -63 68c-44 0 -63 -31 -63 -68s20 -68 63 -68c44 0 63 31 63 68zM425 791
c0 -56 -31 -96 -91 -96c-61 0 -90 39 -90 96s29 96 90 96s91 -39 91 -96z" />
    <glyph glyph-name="Ohungarumlaut" unicode="&#x150;" horiz-adv-x="819" 
d="M717 400c0 196 -84 377 -307 377c-222 0 -308 -178 -308 -377s87 -367 308 -367c220 0 307 169 307 367zM764 400c0 -251 -126 -410 -355 -410c-232 0 -354 159 -354 410s124 420 354 420c232 0 355 -168 355 -420zM420 1039l37 -38l-141 -128l-18 18zM560 1039l37 -38
l-141 -128l-18 18z" />
    <glyph glyph-name="ohungarumlaut" unicode="&#x151;" 
d="M558 315c0 152 -66 283 -230 283c-165 0 -230 -131 -230 -283c0 -151 66 -283 230 -283c165 0 230 131 230 283zM601 315c0 -192 -93 -325 -273 -325c-182 0 -273 131 -273 325c0 193 92 325 272 325c182 0 274 -130 274 -325zM337 860l37 -37l-141 -128l-18 18zM477 860
l37 -37l-141 -128l-18 18z" />
    <glyph glyph-name="Uhungarumlaut" unicode="&#x170;" horiz-adv-x="807" 
d="M677 810h45v-441c0 -251 -102 -379 -318 -379s-319 127 -319 379v441h45v-445c0 -201 76 -332 274 -332c197 0 273 130 273 332v445zM414 1039l37 -38l-141 -128l-19 18zM554 1039l37 -38l-141 -128l-19 18z" />
    <glyph glyph-name="uhungarumlaut" unicode="&#x171;" horiz-adv-x="671" 
d="M581 630v-630h-43v116h-2c-38 -76 -115 -126 -217 -126c-161 0 -234 87 -234 242v398h43v-393c0 -108 34 -205 196 -205c116 0 214 73 214 220v378h43zM329 860l37 -37l-141 -128l-18 18zM469 860l37 -37l-141 -128l-18 18z" />
    <glyph glyph-name="Abreve" unicode="&#x102;" horiz-adv-x="765" 
d="M174 261h416l-6 6l-178 419l-22 71h-2l-23 -71l-179 -420zM403 810l347 -810h-51l-92 214l2 4h-454l2 -5l-91 -213h-51l348 810h40zM498 983h44c-24 -64 -77 -108 -159 -108c-83 0 -136 43 -160 108h44c21 -42 57 -69 116 -69c58 0 94 27 115 69z" />
    <glyph glyph-name="abreve" unicode="&#x103;" horiz-adv-x="646" 
d="M518 320l5 5c-20 3 -62 5 -83 5c-28 0 -62 0 -97 -2c-37 -2 -74 -5 -109 -13c-71 -18 -136 -55 -136 -143c0 -118 125 -142 191 -142c73 0 229 31 229 143v147zM561 418v-418h-43v81h-2c-42 -59 -133 -92 -228 -92c-125 0 -233 51 -233 183c0 191 223 196 377 196
c28 0 69 -3 91 -7l-5 5v49c0 141 -91 183 -197 183c-63 0 -139 -16 -197 -59l-30 30c70 52 145 70 227 70c129 0 240 -53 240 -221zM440 804h44c-25 -65 -78 -109 -160 -109c-83 0 -135 44 -160 109h45c21 -43 57 -70 115 -70c59 0 95 27 116 70z" />
    <glyph glyph-name="Ebreve" unicode="&#x114;" horiz-adv-x="705" 
d="M635 43v-43h-545v810h545v-43h-505l5 -5v-330l-5 -5h457v-43h-457l5 -5v-331l-5 -5h505zM487 983h44c-25 -64 -78 -108 -160 -108c-83 0 -135 43 -160 108h45c21 -42 57 -69 115 -69c59 0 95 27 116 69z" />
    <glyph glyph-name="ebreve" unicode="&#x115;" 
d="M94 336l467 1l-5 4c-8 143 -76 257 -225 257s-221 -116 -232 -257zM601 310v-13v0l-508 -1l5 -5c9 -153 81 -260 236 -260c66 0 126 23 173 65l31 -32c-55 -49 -125 -74 -203 -74c-196 0 -280 140 -280 320c0 181 90 330 275 330c203 0 271 -165 271 -330zM446 804h44
c-25 -65 -78 -109 -160 -109c-83 0 -135 44 -160 109h45c21 -43 57 -70 115 -70c59 0 95 27 116 70z" />
    <glyph glyph-name="Gbreve" unicode="&#x11e;" horiz-adv-x="839" 
d="M749 428v-428h-37v199h-2c-34 -104 -136 -209 -285 -209c-240 0 -370 153 -370 406c0 262 137 424 374 424c104 0 206 -29 278 -102l-35 -35c-61 68 -156 94 -242 94c-222 0 -328 -153 -328 -381c0 -220 105 -363 323 -363c170 0 288 143 285 347l5 5h-270v43h304z
M544 983h44c-24 -64 -77 -108 -159 -108c-83 0 -136 43 -160 108h44c21 -42 57 -69 116 -69c58 0 94 27 115 69z" />
    <glyph glyph-name="gbreve" unicode="&#x11f;" horiz-adv-x="679" 
d="M551 349c0 136 -75 250 -225 250c-154 0 -228 -110 -228 -250c0 -144 76 -246 228 -246c155 0 225 113 225 246zM546 630h43v-584c0 -168 -81 -261 -261 -261c-83 0 -157 23 -220 68l32 33c50 -38 122 -61 188 -61c147 0 218 81 218 222v145h-2
c-40 -77 -114 -130 -219 -130c-180 0 -270 117 -270 287c0 164 90 291 269 291c106 0 186 -58 220 -134h2v124zM450 804h44c-24 -65 -78 -109 -159 -109c-83 0 -136 44 -160 109h44c21 -43 57 -70 116 -70c58 0 94 27 115 70z" />
    <glyph glyph-name="Ibreve" unicode="&#x12c;" horiz-adv-x="235" 
d="M140 810v-810h-45v810h45zM232 983h44c-24 -64 -77 -108 -159 -108c-83 0 -136 43 -160 108h44c21 -42 57 -69 116 -69c58 0 94 27 115 69z" />
    <glyph glyph-name="ibreve" unicode="&#x12d;" horiz-adv-x="223" 
d="M133 629v-629h-43v629h43zM227 804h44c-25 -65 -78 -109 -160 -109c-83 0 -135 44 -160 109h45c21 -43 57 -70 115 -70c59 0 95 27 116 70z" />
    <glyph glyph-name="Obreve" unicode="&#x14e;" horiz-adv-x="819" 
d="M717 400c0 196 -84 377 -307 377c-222 0 -308 -178 -308 -377s87 -367 308 -367c220 0 307 169 307 367zM764 400c0 -251 -126 -410 -355 -410c-232 0 -354 159 -354 410s124 420 354 420c232 0 355 -168 355 -420zM526 983h44c-24 -64 -77 -108 -159 -108
c-83 0 -136 43 -160 108h44c21 -42 57 -69 116 -69c58 0 94 27 115 69z" />
    <glyph glyph-name="obreve" unicode="&#x14f;" 
d="M558 315c0 152 -66 283 -230 283c-165 0 -230 -131 -230 -283c0 -151 66 -283 230 -283c165 0 230 131 230 283zM601 315c0 -192 -93 -325 -273 -325c-182 0 -273 131 -273 325c0 193 92 325 272 325c182 0 274 -130 274 -325zM444 804h44c-24 -65 -78 -109 -159 -109
c-83 0 -136 44 -160 109h44c21 -43 57 -70 116 -70c58 0 94 27 115 70z" />
    <glyph glyph-name="Ubreve" unicode="&#x16c;" horiz-adv-x="807" 
d="M677 810h45v-441c0 -251 -102 -379 -318 -379s-319 127 -319 379v441h45v-445c0 -201 76 -332 274 -332c197 0 273 130 273 332v445zM520 983h44c-25 -64 -78 -108 -160 -108c-83 0 -135 43 -160 108h45c21 -42 57 -69 115 -69c59 0 95 27 116 69z" />
    <glyph glyph-name="ubreve" unicode="&#x16d;" horiz-adv-x="671" 
d="M581 630v-630h-43v116h-2c-38 -76 -115 -126 -217 -126c-161 0 -234 87 -234 242v398h43v-393c0 -108 34 -205 196 -205c116 0 214 73 214 220v378h43zM451 804h44c-24 -65 -78 -109 -159 -109c-83 0 -136 44 -160 109h44c21 -43 57 -70 116 -70c58 0 94 27 115 70z" />
    <glyph glyph-name="Itilde" unicode="&#x128;" horiz-adv-x="235" 
d="M140 810v-810h-45v810h45zM294 993l23 -25c-17 -57 -58 -93 -117 -93c-67 0 -118 75 -176 75c-39 0 -74 -21 -87 -70l-23 25c15 56 54 84 113 84c68 0 117 -74 176 -74c43 0 78 32 91 78z" />
    <glyph glyph-name="itilde" unicode="&#x129;" horiz-adv-x="223" 
d="M133 629v-629h-43v629h43zM288 831l24 -25c-18 -57 -58 -93 -118 -93c-67 0 -117 75 -176 75c-39 0 -74 -21 -86 -70l-23 25c14 56 53 84 113 84c67 0 117 -74 175 -74c43 0 78 32 91 78z" />
    <glyph glyph-name="Utilde" unicode="&#x168;" horiz-adv-x="807" 
d="M677 810h45v-441c0 -251 -102 -379 -318 -379s-319 127 -319 379v441h45v-445c0 -201 76 -332 274 -332c197 0 273 130 273 332v445zM602 996l25 -26c-18 -57 -61 -95 -124 -95c-71 0 -134 80 -196 80c-43 0 -78 -24 -91 -73l-25 25c15 57 57 87 120 87
c71 0 134 -79 195 -79c47 0 82 34 96 81z" />
    <glyph glyph-name="utilde" unicode="&#x169;" horiz-adv-x="671" 
d="M581 630v-630h-43v116h-2c-38 -76 -115 -126 -217 -126c-161 0 -234 87 -234 242v398h43v-393c0 -108 34 -205 196 -205c116 0 214 73 214 220v378h43zM530 838l25 -25c-19 -57 -62 -95 -124 -95c-71 0 -135 79 -197 79c-42 0 -77 -23 -91 -72l-24 25c15 56 57 87 119 87
c72 0 134 -80 196 -80c46 0 82 35 96 81z" />
    <glyph glyph-name="Wgrave" unicode="&#x1e80;" horiz-adv-x="983" 
d="M908 810h50l-221 -810h-54l-172 634l-19 90h-1l-20 -90l-171 -634h-55l-220 810h50l180 -674l16 -86h2l16 86l184 674h37l184 -677l15 -83h2l16 84zM423 1075l164 -183l-17 -17l-183 164z" />
    <glyph glyph-name="wgrave" unicode="&#x1e81;" horiz-adv-x="828" 
d="M767 630h46l-185 -630h-47l-151 500l-15 72h-1l-15 -72l-152 -500h-48l-184 630h47l148 -510l14 -68h2l14 68l154 510h40l155 -510l13 -68h3l13 68zM344 895l164 -183l-17 -17l-183 165z" />
    <glyph glyph-name="Ygrave" unicode="&#x1ef2;" horiz-adv-x="705" 
d="M632 810h58l-314 -466v-344h-46v344l-315 466h59l228 -344l51 -83v0l49 83zM268 1075l165 -183l-18 -17l-183 164z" />
    <glyph glyph-name="ygrave" unicode="&#x1ef3;" horiz-adv-x="590" 
d="M526 630h49l-271 -705c-37 -97 -95 -140 -165 -140c-36 0 -65 5 -90 17v40c26 -10 56 -16 82 -16c59 0 104 33 140 127c0 0 14 36 16 43l-272 634h49l212 -502l31 -86h2l28 86zM204 895l165 -183l-18 -17l-183 165z" />
    <glyph glyph-name="Wdieresis" unicode="&#x1e84;" horiz-adv-x="983" 
d="M908 810h50l-221 -810h-54l-172 634l-19 90h-1l-20 -90l-171 -634h-55l-220 810h50l180 -674l16 -86h2l16 86l184 674h37l184 -677l15 -83h2l16 84zM428 942c0 -27 -14 -43 -38 -43c-25 0 -38 16 -38 43s13 43 38 43s38 -16 38 -43zM628 942c0 -27 -13 -43 -38 -43
s-38 16 -38 43s13 43 38 43s38 -16 38 -43z" />
    <glyph glyph-name="wdieresis" unicode="&#x1e85;" horiz-adv-x="828" 
d="M767 630h46l-185 -630h-47l-151 500l-15 72h-1l-15 -72l-152 -500h-48l-184 630h47l148 -510l14 -68h2l14 68l154 510h40l155 -510l13 -68h3l13 68zM350 751c0 -27 -13 -43 -38 -43s-38 16 -38 43s13 43 38 43s38 -16 38 -43zM551 751c0 -27 -14 -43 -39 -43
c-24 0 -38 16 -38 43s14 43 38 43c25 0 39 -16 39 -43z" />
    <glyph glyph-name="Hbar" unicode="&#x126;" horiz-adv-x="795" 
d="M130 427h535l-5 5v135l3 5h-531l3 -5v-135zM745 610v-38h-43l3 -5v-567h-45v379l5 5h-535l5 -5v-379h-45v567l3 5h-42v38h42l-3 5v195h45v-195l-3 -5h531l-3 5v195h45v-195l-3 -5h43z" />
    <glyph glyph-name="hbar" unicode="&#x127;" horiz-adv-x="681" 
d="M596 413l-1 -413h-43v401c0 107 -38 197 -194 197c-106 0 -224 -60 -224 -215v-383h-43v712l3 5h-79v36h79l-3 5v82h43v-82l-3 -5h226v-36h-226l3 -4v-201h2c39 79 124 128 227 128c163 0 233 -91 233 -227z" />
    <glyph glyph-name="Tbar" unicode="&#x166;" horiz-adv-x="665" 
d="M645 810v-43h-293l3 -5v-311l-3 -5h181v-40h-181l3 -4v-402h-45v402l3 4h-180v40h180l-3 5v311l3 5h-293v43h625z" />
    <glyph glyph-name="tbar" unicode="&#x167;" horiz-adv-x="409" 
d="M369 72l30 -31c-45 -34 -91 -51 -145 -51c-89 0 -148 60 -148 181v231l3 5h-79v39h79l-3 5v134l3 5h-79v40h79l-3 5v115l43 23v-138l-3 -5h198v-40h-198l3 -5v-134l-3 -5h198v-39h-198l3 -6v-226c0 -98 41 -144 110 -144c41 0 78 14 110 41z" />
    <glyph glyph-name="Eng" unicode="&#x14a;" horiz-adv-x="795" 
d="M705 25v-1v-134c0 -64 -45 -108 -97 -108c-51 0 -92 42 -91 105v17l36 -1v-14c0 -38 20 -64 54 -64c35 0 55 30 55 66v109v0l-458 634l-67 104h-2v-738h-45v810h42l460 -635l66 -105h2v740h45v-785z" />
    <glyph glyph-name="eng" unicode="&#x14b;" horiz-adv-x="679" 
d="M356 640c165 0 238 -91 238 -231v-430v-89c0 -64 -45 -108 -97 -108c-51 0 -92 42 -91 105v17l36 -1v-14c0 -38 20 -64 54 -64c35 0 55 30 55 66v92v404c0 119 -38 211 -200 211c-119 0 -218 -73 -218 -220v-378h-43v630h43v-115h2c39 79 126 125 221 125z" />
    <glyph glyph-name="IJ" unicode="&#x132;" horiz-adv-x="752" 
d="M140 810v-810h-45v810h45zM622 810h45v-521c0 -228 -121 -299 -264 -299c-81 0 -156 40 -207 103l33 34c44 -56 109 -94 174 -94c116 0 219 59 219 252v525z" />
    <glyph glyph-name="ij" unicode="&#x133;" horiz-adv-x="426" 
d="M293 630h43v-692c0 -105 -48 -153 -140 -153c-18 0 -40 4 -57 11v41c16 -7 39 -11 56 -11c63 0 98 36 98 119v685zM352 801c0 -31 -14 -45 -38 -45c-23 0 -37 14 -37 45s14 45 37 45c24 0 38 -14 38 -45zM133 629v-629h-43v629h43zM111 846c24 0 38 -15 38 -45
c0 -31 -14 -46 -37 -46c-24 0 -38 15 -38 46c0 30 14 45 37 45z" />
    <glyph glyph-name="Ldot" unicode="&#x13f;" horiz-adv-x="603" 
d="M345 432c0 -30 -16 -48 -44 -48s-43 18 -43 48c0 29 15 48 43 48c29 0 44 -19 44 -48zM588 43v-43h-498v810h45v-762l-5 -5h458z" />
    <glyph glyph-name="ldot" unicode="&#x140;" horiz-adv-x="270" 
d="M133 840v-840h-43v840h43zM270 432c0 -30 -16 -48 -44 -48s-43 18 -43 48c0 29 15 48 43 48c29 0 44 -19 44 -48z" />
    <glyph glyph-name="Bdotaccent" unicode="&#x1e02;" horiz-adv-x="734" 
d="M641 219c0 111 -73 177 -208 177h-302l5 -4v-344l-4 -5h302c139 0 207 61 207 176zM604 604c0 112 -73 163 -189 163h-283l4 -5v-318l-5 -4h284c138 0 189 77 189 164zM689 218c0 -132 -79 -218 -255 -218h-344v810h174h171c128 0 217 -79 217 -206
c0 -79 -41 -150 -118 -178v-2c109 -30 155 -110 155 -206zM353 971c29 0 44 -19 44 -48s-16 -48 -44 -48s-43 19 -43 48s15 48 43 48z" />
    <glyph glyph-name="bdotaccent" unicode="&#x1e03;" horiz-adv-x="679" 
d="M581 311c0 148 -63 287 -228 287c-156 0 -225 -127 -225 -287c0 -154 71 -280 225 -280c164 0 228 131 228 280zM624 311c0 -189 -90 -321 -269 -321c-100 0 -180 49 -220 139h-2v-129h-43v840h43v-343h2c44 93 121 142 220 142c180 0 269 -135 269 -328zM355 803
c29 0 44 -19 44 -48s-16 -48 -44 -48s-43 19 -43 48s15 48 43 48z" />
    <glyph glyph-name="Cdotaccent" unicode="&#x10a;" horiz-adv-x="725" 
d="M695 716l-34 -35c-51 60 -129 96 -233 96c-231 0 -326 -174 -326 -378c0 -201 92 -366 325 -366c103 0 181 36 233 95l33 -34c-61 -65 -149 -104 -267 -104c-245 0 -371 160 -371 410s132 420 372 420c120 0 207 -39 268 -104zM425 971c29 0 44 -19 44 -48
s-16 -48 -44 -48s-43 19 -43 48s15 48 43 48z" />
    <glyph glyph-name="cdotaccent" unicode="&#x10b;" horiz-adv-x="558" 
d="M498 95l30 -32c-51 -49 -117 -73 -198 -73c-186 0 -275 132 -275 320c0 191 102 330 276 330c85 0 142 -23 189 -64l-30 -32c-38 35 -95 55 -158 54c-161 -1 -234 -139 -234 -288c0 -144 64 -279 231 -279c67 0 124 20 169 64zM327 803c29 0 44 -19 44 -48
s-16 -48 -44 -48s-43 19 -43 48s15 48 43 48z" />
    <glyph glyph-name="Ddotaccent" unicode="&#x1e0a;" horiz-adv-x="776" 
d="M364 767h-234l5 -5v-715l-5 -4h239c264 0 305 181 305 362c0 179 -41 362 -310 362zM721 405c0 -201 -52 -405 -342 -405h-289v810h285c282 0 346 -189 346 -405zM354 971c28 0 43 -19 43 -48s-15 -48 -43 -48c-29 0 -44 19 -44 48s15 48 44 48z" />
    <glyph glyph-name="ddotaccent" unicode="&#x1e0b;" horiz-adv-x="679" 
d="M551 311c0 160 -68 287 -224 287c-165 0 -229 -139 -229 -287s65 -280 229 -280c154 0 224 126 224 280zM589 839v-838h-43v128h-2c-40 -90 -120 -139 -219 -139c-180 0 -270 132 -270 321c0 193 89 328 270 328c99 0 175 -49 219 -142h2v342h43zM324 803
c29 0 44 -19 44 -48s-16 -48 -44 -48s-43 19 -43 48s15 48 43 48z" />
    <glyph glyph-name="Edotaccent" unicode="&#x116;" horiz-adv-x="705" 
d="M635 43v-43h-545v810h545v-43h-505l5 -5v-330l-5 -5h457v-43h-457l5 -5v-331l-5 -5h505zM369 971c28 0 43 -19 43 -48s-15 -48 -43 -48c-29 0 -44 19 -44 48s15 48 44 48z" />
    <glyph glyph-name="edotaccent" unicode="&#x117;" 
d="M94 336l467 1l-5 4c-8 143 -76 257 -225 257s-221 -116 -232 -257zM601 310v-13v0l-508 -1l5 -5c9 -153 81 -260 236 -260c66 0 126 23 173 65l31 -32c-55 -49 -125 -74 -203 -74c-196 0 -280 140 -280 320c0 181 90 330 275 330c203 0 271 -165 271 -330zM331 803
c28 0 43 -19 43 -48s-15 -48 -43 -48c-29 0 -44 19 -44 48s15 48 44 48z" />
    <glyph glyph-name="Fdotaccent" unicode="&#x1e1e;" horiz-adv-x="645" 
d="M615 810v-43h-485l5 -5v-351l-5 -5h437v-44h-437l5 -4v-358h-45v810h525zM367 971c28 0 43 -19 43 -48s-15 -48 -43 -48c-29 0 -44 19 -44 48s15 48 44 48z" />
    <glyph glyph-name="fdotaccent" unicode="&#x1e1f;" horiz-adv-x="364" 
d="M344 629v-39h-198l3 -5v-585h-43v585l3 5h-79v39h79l-3 5v28c0 113 63 183 177 183c20 0 44 -4 61 -10v-39c-19 5 -44 9 -59 9c-92 0 -136 -54 -136 -145v-26l-3 -5h198zM242 991c29 0 44 -19 44 -48s-16 -48 -44 -48s-43 19 -43 48s15 48 43 48z" />
    <glyph glyph-name="Gdotaccent" unicode="&#x120;" horiz-adv-x="839" 
d="M749 428v-428h-37v199h-2c-34 -104 -136 -209 -285 -209c-240 0 -370 153 -370 406c0 262 137 424 374 424c104 0 206 -29 278 -102l-35 -35c-61 68 -156 94 -242 94c-222 0 -328 -153 -328 -381c0 -220 105 -363 323 -363c170 0 288 143 285 347l5 5h-270v43h304z
M428 971c29 0 44 -19 44 -48s-16 -48 -44 -48s-43 19 -43 48s15 48 43 48z" />
    <glyph glyph-name="gdotaccent" unicode="&#x121;" horiz-adv-x="679" 
d="M551 349c0 136 -75 250 -225 250c-154 0 -228 -110 -228 -250c0 -144 76 -246 228 -246c155 0 225 113 225 246zM546 630h43v-584c0 -168 -81 -261 -261 -261c-83 0 -157 23 -220 68l32 33c50 -38 122 -61 188 -61c147 0 218 81 218 222v145h-2
c-40 -77 -114 -130 -219 -130c-180 0 -270 117 -270 287c0 164 90 291 269 291c106 0 186 -58 220 -134h2v124zM332 803c28 0 43 -19 43 -48s-15 -48 -43 -48c-29 0 -44 19 -44 48s15 48 44 48z" />
    <glyph glyph-name="Idotaccent" unicode="&#x130;" horiz-adv-x="235" 
d="M140 810v-810h-45v810h45zM118 971c29 0 44 -19 44 -48s-16 -48 -44 -48s-43 19 -43 48s15 48 43 48z" />
    <glyph glyph-name="Mdotaccent" unicode="&#x1e40;" horiz-adv-x="924" 
d="M834 810v-810h-45v708h-2l-56 -138l-268 -580h-2l-269 583l-55 136h-2v-709h-45v810h41l289 -625l41 -97h2l41 98l289 624h41zM462 971c29 0 44 -19 44 -48s-16 -48 -44 -48s-43 19 -43 48s15 48 43 48z" />
    <glyph glyph-name="mdotaccent" unicode="&#x1e41;" horiz-adv-x="956" 
d="M871 384l-1 -384h-43v364c0 138 -30 235 -153 234c-113 0 -173 -100 -172 -209v-389h-43v380c0 131 -35 219 -154 219c-103 0 -171 -95 -171 -217v-382h-44v630h44v-117h2c29 76 94 127 178 127c98 0 154 -64 176 -135h2c35 84 109 135 190 135c122 0 189 -81 189 -256z
M481 803c29 0 44 -19 44 -48s-16 -48 -44 -48s-43 19 -43 48s15 48 43 48z" />
    <glyph glyph-name="Pdotaccent" unicode="&#x1e56;" horiz-adv-x="721" 
d="M629 570c0 117 -66 197 -195 197h-304l5 -5v-384l-5 -4h303c131 0 196 84 196 196zM676 570c0 -134 -83 -240 -242 -240h-304l5 -5v-325h-45v810h345c158 0 241 -99 241 -240zM353 971c29 0 44 -19 44 -48s-16 -48 -44 -48s-43 19 -43 48s15 48 43 48z" />
    <glyph glyph-name="pdotaccent" unicode="&#x1e57;" horiz-adv-x="679" 
d="M581 318c0 149 -64 280 -228 280c-154 0 -225 -126 -225 -280c0 -160 69 -287 225 -287c165 0 228 140 228 287zM624 318c0 -192 -89 -328 -269 -328c-99 0 -176 49 -220 143h-2v-343h-43v840h43v-130h2c40 90 120 140 220 140c179 0 269 -133 269 -322zM353 803
c29 0 44 -19 44 -48s-16 -48 -44 -48s-43 19 -43 48s15 48 43 48z" />
    <glyph glyph-name="Sdotaccent" unicode="&#x1e60;" horiz-adv-x="708" 
d="M658 204c0 -101 -71 -214 -298 -214c-118 0 -227 40 -310 116l37 36c78 -71 170 -109 271 -109c169 0 253 74 253 168c0 74 -56 136 -179 171c-18 5 -131 38 -150 43c-146 43 -224 95 -224 201c0 102 84 204 295 204c109 0 202 -38 271 -105l-35 -35
c-58 59 -142 97 -235 97c-160 0 -249 -66 -249 -159c0 -86 79 -124 207 -162c18 -5 118 -35 137 -40c153 -45 209 -122 209 -212zM353 971c28 0 43 -19 43 -48s-15 -48 -43 -48c-29 0 -44 19 -44 48s15 48 44 48z" />
    <glyph glyph-name="sdotaccent" unicode="&#x1e61;" horiz-adv-x="577" 
d="M522 159c0 -82 -56 -170 -228 -170c-88 0 -173 29 -239 94l34 33c62 -58 127 -85 202 -85c115 0 187 48 187 126c0 64 -40 99 -129 125c-13 4 -98 31 -112 35c-111 34 -174 76 -174 161c0 80 64 162 224 162c85 0 157 -30 211 -86l-32 -33c-46 48 -104 77 -179 77
c-112 0 -180 -50 -180 -118c0 -65 59 -96 157 -125c14 -4 87 -28 102 -33c119 -35 156 -92 156 -163zM285 803c28 0 43 -19 43 -48s-15 -48 -43 -48c-29 0 -44 19 -44 48s15 48 44 48z" />
    <glyph glyph-name="Tdotaccent" unicode="&#x1e6a;" horiz-adv-x="665" 
d="M645 810v-43h-293l3 -5v-762h-45v762l3 5h-293v43h625zM333 971c28 0 43 -19 43 -48s-15 -48 -43 -48c-29 0 -44 19 -44 48s15 48 44 48z" />
    <glyph glyph-name="tdotaccent" unicode="&#x1e6b;" horiz-adv-x="409" 
d="M369 72l30 -31c-45 -34 -91 -51 -145 -51c-89 0 -148 60 -148 181v414l3 5h-79v40h79l-3 5v115l43 23v-138l-3 -5h198v-40h-198l3 -5v-410c0 -98 41 -144 110 -144c41 0 78 14 110 41zM130 926c29 0 44 -19 44 -48s-16 -48 -44 -48s-43 19 -43 48s15 48 43 48z" />
    <glyph glyph-name="Zdotaccent" unicode="&#x17b;" horiz-adv-x="739" 
d="M679 43v-43h-619v37l503 664l58 64v2h-551v43h604v-41l-498 -655l-61 -69v-2h564zM363 971c28 0 43 -19 43 -48s-15 -48 -43 -48c-29 0 -44 19 -44 48s15 48 44 48z" />
    <glyph glyph-name="zdotaccent" unicode="&#x17c;" horiz-adv-x="616" 
d="M556 40v-40h-496v35l393 502l49 50v2h-435v40h486v-32l-395 -504l-48 -51v-2h446zM308 803c29 0 44 -19 44 -48s-16 -48 -44 -48s-43 19 -43 48s15 48 43 48z" />
    <glyph glyph-name="tironianet" unicode="&#x204a;" horiz-adv-x="424" 
d="M369 630v-34l-84 -276c-12 -40 -19 -102 -19 -160v-161h-41v171c0 60 7 121 19 158l57 187l30 73l-1 1h-295v41h334z" />
    <glyph glyph-name="longs" unicode="&#x17f;" horiz-adv-x="344" 
d="M344 835v-39c-19 5 -44 9 -59 9c-92 0 -136 -54 -136 -145v-660h-43v585l3 5h-79v39h79l-3 5v28c0 113 63 183 177 183c20 0 44 -4 61 -10z" />
    <glyph glyph-name="softhyphen" unicode="&#xad;" horiz-adv-x="355" 
d="M325 348v-45h-295v45h295z" />
    </font>
</defs>
</svg>
